<?xml version="1.0" encoding="utf-8"?>
<!-- Generator: Adobe Illustrator 16.0.0, SVG Export Plug-In . SVG Version: 6.00 Build 0)  -->
<!DOCTYPE svg PUBLIC "-//W3C//DTD SVG 1.1//EN" "http://www.w3.org/Graphics/SVG/1.1/DTD/svg11.dtd">
<svg version="1.1" id="Ebene_1" xmlns="http://www.w3.org/2000/svg" xmlns:xlink="http://www.w3.org/1999/xlink" x="0px" y="0px"
	 width="600px" height="300px" viewBox="0 0 600 300" enable-background="new 0 0 600 300" xml:space="preserve">
<rect x="-158.108" y="482.351" fill="#010202" stroke="#000000" stroke-miterlimit="10" width="279.375" height="279.39"/>
<rect x="160.312" y="10.305" fill="#010202" stroke="#000000" stroke-miterlimit="10" width="279.375" height="279.391"/>
<rect x="160.312" y="10.305" stroke="#FFFFFF" stroke-miterlimit="10" width="279.375" height="279.391"/>
<rect x="198.028" y="48.023" transform="matrix(-0.866 0.5 -0.5 -0.866 634.8073 129.9044)" stroke="#FFFFFF" stroke-miterlimit="10" width="203.943" height="203.955"/>
<rect x="225.561" y="75.557" transform="matrix(-0.5 0.866 -0.866 -0.5 579.9034 -34.8074)" fill="#2E2E2F" stroke="#FFFFFF" stroke-miterlimit="10" width="148.877" height="148.887"/>
<rect x="245.656" y="95.659" fill="#2E2E2F" stroke="#FFFFFF" stroke-miterlimit="10" width="108.688" height="108.681"/>
<rect x="260.331" y="110.329" transform="matrix(0.5 0.866 -0.866 0.5 279.9055 -184.8073)" fill="#2E2E2F" stroke="#FFFFFF" stroke-miterlimit="10" width="79.337" height="79.341"/>
<rect x="271.042" y="121.04" transform="matrix(0.866 0.5 -0.5 0.866 115.1891 -129.9019)" fill="#2E2E2F" stroke="#FFFFFF" stroke-miterlimit="10" width="57.915" height="57.919"/>
<rect x="278.861" y="128.859" fill="#2E2E2F" stroke="#FFFFFF" stroke-miterlimit="10" width="42.278" height="42.281"/>
<rect x="284.569" y="134.566" transform="matrix(0.866 -0.5 0.5 0.866 -34.8073 170.0955)" fill="#2E2E2F" stroke="#FFFFFF" stroke-miterlimit="10" width="30.863" height="30.866"/>
<rect x="288.735" y="138.733" transform="matrix(0.5 -0.866 0.866 0.5 20.1001 334.8123)" fill="#2E2E2F" stroke="#FFFFFF" stroke-miterlimit="10" width="22.53" height="22.532"/>
<rect x="291.776" y="141.776" fill="#2E2E2F" stroke="#FFFFFF" stroke-miterlimit="10" width="16.448" height="16.446"/>
<rect x="293.998" y="143.996" transform="matrix(-0.5 -0.866 0.866 -0.5 320.0972 484.8065)" fill="#2E2E2F" stroke="#FFFFFF" stroke-miterlimit="10" width="12.006" height="12.006"/>
<rect x="295.618" y="145.616" transform="matrix(-0.866 -0.5001 0.5001 -0.866 484.7864 429.9156)" fill="#2E2E2F" stroke="#FFFFFF" stroke-miterlimit="10" width="8.764" height="8.764"/>
<rect x="296.802" y="146.799" fill="#2E2E2F" stroke="#FFFFFF" stroke-miterlimit="10" width="6.397" height="6.398"/>
<rect x="297.665" y="147.663" transform="matrix(-0.8662 0.4998 -0.4998 -0.8662 634.8111 129.9838)" fill="#2E2E2F" stroke="#FFFFFF" stroke-miterlimit="10" width="4.67" height="4.67"/>
<rect x="298.295" y="148.293" transform="matrix(-0.5001 0.8659 -0.8659 -0.5001 579.9323 -34.7642)" fill="#2E2E2F" stroke="#FFFFFF" stroke-miterlimit="10" width="3.409" height="3.409"/>
<rect x="298.755" y="148.754" fill="#2E2E2F" stroke="#FFFFFF" stroke-miterlimit="10" width="2.49" height="2.488"/>
<rect x="-122.011" y="515.856" transform="matrix(0.866 -0.5 0.5 0.866 -311.5361 72.6341)" fill="#010202" stroke="#010202" stroke-miterlimit="10" width="203.554" height="203.561"/>
<rect x="-122.011" y="515.856" transform="matrix(0.866 -0.5 0.5 0.866 -311.5361 72.6341)" fill="#010202" stroke="#FFFFFF" stroke-miterlimit="10" width="203.554" height="203.561"/>
<rect x="-96.568" y="541.308" transform="matrix(0.5 -0.866 0.866 0.5 -545.0094 291.2937)" fill="#2E2E2F" stroke="#FFFFFF" stroke-miterlimit="10" width="152.665" height="152.668"/>
<rect x="-77.488" y="560.393" fill="#2E2E2F" stroke="#FFFFFF" stroke-miterlimit="10" width="114.504" height="114.501"/>
<rect x="-63.173" y="574.705" transform="matrix(-0.5 -0.866 0.866 -0.5 -565.2479 908.9419)" fill="#2E2E2F" stroke="#FFFFFF" stroke-miterlimit="10" width="85.872" height="85.877"/>
<polygon fill="#2E2E2F" stroke="#FFFFFF" stroke-miterlimit="10" points="-32.02,573.653 23.755,605.858 -8.451,661.632 
	-64.228,629.435 "/>
<rect x="-44.389" y="593.489" fill="#2E2E2F" stroke="#FFFFFF" stroke-miterlimit="10" width="48.307" height="48.308"/>
<rect x="-38.352" y="599.535" transform="matrix(-0.866 0.5 -0.5 -0.866 271.0695 1162.663)" fill="#2E2E2F" stroke="#FFFFFF" stroke-miterlimit="10" width="36.232" height="36.227"/>
<rect x="-33.817" y="604.061" transform="matrix(-0.5 0.866 -0.866 -0.5 504.5482 943.9904)" fill="#2E2E2F" stroke="#FFFFFF" stroke-miterlimit="10" width="27.168" height="27.171"/>
<rect x="-33.817" y="604.061" transform="matrix(-0.5 0.866 -0.866 -0.5 504.5482 943.9904)" fill="#2E2E2F" stroke="#FFFFFF" stroke-miterlimit="10" width="27.168" height="27.171"/>
<rect x="-30.425" y="607.454" fill="#2E2E2F" stroke="#FFFFFF" stroke-miterlimit="10" width="20.377" height="20.375"/>
<rect x="-27.878" y="610.003" transform="matrix(0.4999 0.8661 -0.8661 0.4999 524.8215 326.4323)" fill="#2E2E2F" stroke="#FFFFFF" stroke-miterlimit="10" width="15.281" height="15.279"/>
<rect x="-25.977" y="611.916" transform="matrix(0.866 0.5001 -0.5001 0.866 306.1867 92.9182)" fill="#2E2E2F" stroke="#FFFFFF" stroke-miterlimit="10" width="11.464" height="11.462"/>
<rect x="-24.536" y="613.346" fill="#2E2E2F" stroke="#FFFFFF" stroke-miterlimit="10" width="8.598" height="8.595"/>
<rect x="-23.461" y="614.42" transform="matrix(0.8663 -0.4995 0.4995 0.8663 -311.2247 72.4661)" fill="#2E2E2F" stroke="#FFFFFF" stroke-miterlimit="10" width="6.45" height="6.446"/>
<rect x="-22.651" y="615.226" transform="matrix(0.5001 -0.8659 0.8659 0.5001 -544.9562 291.2085)" fill="#2E2E2F" stroke="#FFFFFF" stroke-miterlimit="10" width="4.834" height="4.835"/>
<rect x="-22.047" y="615.83" fill="#2E2E2F" stroke="#FFFFFF" stroke-miterlimit="10" width="3.625" height="3.625"/>
</svg>
