<?xml version="1.0" encoding="utf-8"?>
<!-- Generator: Adobe Illustrator 16.0.0, SVG Export Plug-In . SVG Version: 6.00 Build 0)  -->
<!DOCTYPE svg PUBLIC "-//W3C//DTD SVG 1.1//EN" "http://www.w3.org/Graphics/SVG/1.1/DTD/svg11.dtd">
<svg version="1.1" id="Ebene_1" xmlns="http://www.w3.org/2000/svg" xmlns:xlink="http://www.w3.org/1999/xlink" x="0px" y="0px"
	 width="600px" height="300px" viewBox="0 0 600 300" enable-background="new 0 0 600 300" xml:space="preserve">
<rect x="160.312" y="10.305" fill="#010202" stroke="#FFFFFF" stroke-miterlimit="10" width="279.375" height="279.39"/>
<rect x="195.238" y="45.24" transform="matrix(0.9659 -0.2588 0.2588 0.9659 -28.6013 82.7534)" fill="#010202" stroke="#FFFFFF" stroke-miterlimit="10" width="209.519" height="209.53"/>
<rect x="221.427" y="71.421" transform="matrix(0.866 -0.5 0.5 0.866 -34.8058 170.0983)" fill="#2E2E2F" stroke="#FFFFFF" stroke-miterlimit="10" width="157.142" height="157.151"/>
<rect x="241.067" y="91.066" transform="matrix(0.7071 -0.7071 0.7071 0.7071 -18.1982 256.0617)" fill="#2E2E2F" stroke="#FFFFFF" stroke-miterlimit="10" width="117.86" height="117.864"/>
<rect x="255.807" y="105.81" transform="matrix(0.5 -0.866 0.866 0.5 20.0874 334.8101)" fill="#2E2E2F" stroke="#FFFFFF" stroke-miterlimit="10" width="88.391" height="88.396"/>
<rect x="266.849" y="116.852" transform="matrix(0.2588 -0.9659 0.9659 0.2588 77.4655 400.9541)" fill="#2E2E2F" stroke="#FFFFFF" stroke-miterlimit="10" width="66.294" height="66.297"/>
<rect x="275.135" y="125.141" fill="#2E2E2F" stroke="#FFFFFF" stroke-miterlimit="10" width="49.726" height="49.723"/>
<rect x="281.35" y="131.355" transform="matrix(-0.2588 -0.9659 0.9659 -0.2588 232.7411 478.5948)" fill="#2E2E2F" stroke="#FFFFFF" stroke-miterlimit="10" width="37.29" height="37.292"/>
<rect x="286.013" y="136.018" transform="matrix(-0.5 -0.866 0.866 -0.5 320.0896 484.8093)" fill="#2E2E2F" stroke="#FFFFFF" stroke-miterlimit="10" width="27.969" height="27.969"/>
<rect x="289.521" y="139.51" transform="matrix(-0.7071 -0.7071 0.7071 -0.7071 406.0811 468.2029)" fill="#2E2E2F" stroke="#FFFFFF" stroke-miterlimit="10" width="20.976" height="20.978"/>
<rect x="292.116" y="142.146" transform="matrix(-0.8661 -0.4999 0.4999 -0.8661 484.8008 429.8973)" fill="#2E2E2F" stroke="#FFFFFF" stroke-miterlimit="10" width="15.732" height="15.735"/>
<rect x="294.104" y="144.098" transform="matrix(-0.9659 -0.2587 0.2587 -0.9659 550.9789 372.5117)" fill="#2E2E2F" stroke="#FFFFFF" stroke-miterlimit="10" width="11.798" height="11.799"/>
<rect x="295.573" y="145.577" fill="#2E2E2F" stroke="#FFFFFF" stroke-miterlimit="10" width="8.85" height="8.851"/>
</svg>
