<?xml version="1.0" encoding="utf-8"?>
<!-- Generator: Adobe Illustrator 16.0.0, SVG Export Plug-In . SVG Version: 6.00 Build 0)  -->
<!DOCTYPE svg PUBLIC "-//W3C//DTD SVG 1.1//EN" "http://www.w3.org/Graphics/SVG/1.1/DTD/svg11.dtd">
<svg version="1.1" id="Ebene_1" xmlns="http://www.w3.org/2000/svg" xmlns:xlink="http://www.w3.org/1999/xlink" x="0px" y="0px"
	 width="600px" height="300px" viewBox="0 0 600 300" enable-background="new 0 0 600 300" xml:space="preserve">
<rect x="162.023" y="12.046" fill="#010202" stroke="#000000" stroke-miterlimit="10" width="276.527" height="276.541"/>
<rect x="175.842" y="25.888" transform="matrix(-0.9848 0.1736 -0.1736 -0.9848 622.0942 246.2457)" fill="#010202" stroke="#FFFFFF" stroke-miterlimit="10" width="248.872" height="248.882"/>
<rect x="188.295" y="38.327" transform="matrix(-0.9397 0.342 -0.342 -0.9397 633.8784 188.8879)" fill="#2E2E2F" stroke="#FFFFFF" stroke-miterlimit="10" width="223.986" height="223.996"/>
<rect x="199.487" y="49.523" transform="matrix(-0.866 0.5 -0.5 -0.866 635.4883 130.3546)" fill="#2E2E2F" stroke="#FFFFFF" stroke-miterlimit="10" width="201.586" height="201.591"/>
<polygon fill="#2E2E2F" stroke="#FFFFFF" stroke-miterlimit="10" points="428.093,161.497 289.11,278.124 172.484,139.136 
	311.465,22.509 "/>
<polygon fill="#2E2E2F" stroke="#FFFFFF" stroke-miterlimit="10" points="415.309,140.253 310.355,265.342 185.262,160.38 
	290.221,35.292 "/>
<polygon fill="#2E2E2F" stroke="#FFFFFF" stroke-miterlimit="10" points="400.66,123.42 327.187,250.692 199.912,177.214 
	273.387,49.94 "/>
<polygon fill="#2E2E2F" stroke="#FFFFFF" stroke-miterlimit="10" points="385.047,110.792 339.816,235.079 215.525,189.843 
	260.758,65.555 "/>
<polygon fill="#2E2E2F" stroke="#FFFFFF" stroke-miterlimit="10" points="369.232,102.038 348.57,219.265 231.34,198.597 
	252.005,81.369 "/>
<polygon fill="#2E2E2F" stroke="#FFFFFF" stroke-miterlimit="10" points="353.846,96.75 353.858,203.881 246.72,203.884 
	246.716,96.753 "/>
<polygon fill="#2E2E2F" stroke="#FFFFFF" stroke-miterlimit="10" points="339.388,94.468 356.141,189.421 261.18,206.167 
	244.435,111.213 "/>
<polygon fill="#2E2E2F" stroke="#FFFFFF" stroke-miterlimit="10" points="326.215,94.704 355.904,176.245 274.355,205.93 
	244.671,124.388 "/>
<rect x="261.241" y="111.255" transform="matrix(0.5001 0.866 -0.866 0.5001 280.2834 -184.9033)" fill="#2E2E2F" stroke="#FFFFFF" stroke-miterlimit="10" width="78.1" height="78.107"/>
<rect x="265.131" y="115.16" transform="matrix(0.6429 0.766 -0.766 0.6429 222.3673 -176.3238)" fill="#2E2E2F" stroke="#FFFFFF" stroke-miterlimit="10" width="70.291" height="70.296"/>
<rect x="268.647" y="118.697" transform="matrix(0.7661 0.6427 -0.6427 0.7661 166.8458 -157.8288)" fill="#2E2E2F" stroke="#FFFFFF" stroke-miterlimit="10" width="63.257" height="63.262"/>
<rect x="271.81" y="121.848" transform="matrix(0.8661 0.4999 -0.4999 0.8661 115.3521 -129.9761)" fill="#2E2E2F" stroke="#FFFFFF" stroke-miterlimit="10" width="56.935" height="56.94"/>
<rect x="274.664" y="124.713" transform="matrix(0.9397 0.3419 -0.3419 0.9397 69.4971 -93.6078)" fill="#2E2E2F" stroke="#FFFFFF" stroke-miterlimit="10" width="51.238" height="51.246"/>
<rect x="277.232" y="127.273" transform="matrix(0.9848 0.1735 -0.1735 0.9848 30.6402 -49.8248)" fill="#2E2E2F" stroke="#FFFFFF" stroke-miterlimit="10" width="46.117" height="46.12"/>
<polygon fill="#2E2E2F" stroke="#FFFFFF" stroke-miterlimit="10" points="279.531,129.568 321.037,129.561 321.04,171.069 
	279.531,171.073 "/>
<polygon fill="#2E2E2F" stroke="#FFFFFF" stroke-miterlimit="10" points="278.646,135.169 315.435,128.676 321.926,165.468 
	285.132,171.958 "/>
<rect x="283.464" y="133.493" transform="matrix(0.9397 -0.3421 0.3421 0.9397 -33.3012 111.7841)" fill="#2E2E2F" stroke="#FFFFFF" stroke-miterlimit="10" width="33.624" height="33.627"/>
<rect x="285.144" y="135.185" transform="matrix(0.866 -0.5001 0.5001 0.866 -34.9272 170.3067)" fill="#2E2E2F" stroke="#FFFFFF" stroke-miterlimit="10" width="30.263" height="30.264"/>
<rect x="286.654" y="136.697" transform="matrix(0.766 -0.6429 0.6429 0.766 -26.3625 228.2133)" fill="#2E2E2F" stroke="#FFFFFF" stroke-miterlimit="10" width="27.234" height="27.237"/>
<rect x="288.033" y="138.052" transform="matrix(0.6427 -0.7661 0.7661 0.6427 -7.8632 283.7573)" fill="#2E2E2F" stroke="#FFFFFF" stroke-miterlimit="10" width="24.509" height="24.514"/>
<polygon fill="#2E2E2F" stroke="#FFFFFF" stroke-miterlimit="10" points="285.221,154.354 296.247,135.249 315.352,146.283 
	304.32,165.385 "/>
</svg>
