<?xml version="1.0" encoding="utf-8"?>
<!-- Generator: Adobe Illustrator 16.0.0, SVG Export Plug-In . SVG Version: 6.00 Build 0)  -->
<!DOCTYPE svg PUBLIC "-//W3C//DTD SVG 1.1//EN" "http://www.w3.org/Graphics/SVG/1.1/DTD/svg11.dtd">
<svg version="1.1" id="Ebene_1" xmlns="http://www.w3.org/2000/svg" xmlns:xlink="http://www.w3.org/1999/xlink" x="0px" y="0px"
	 width="600px" height="300px" viewBox="0 0 600 300" enable-background="new 0 0 600 300" xml:space="preserve">
<polygon fill="#010202" stroke="#000000" stroke-miterlimit="10" points="423.468,273.458 176.503,273.458 176.503,26.479 
	423.468,26.485 "/>
<rect x="188.85" y="38.837" transform="matrix(-0.9397 0.342 -0.342 -0.9397 633.1726 188.3168)" fill="#010202" stroke="#FFFFFF" stroke-miterlimit="10" width="222.27" height="222.282"/>
<rect x="188.85" y="38.837" transform="matrix(-0.9397 0.342 -0.342 -0.9397 633.1726 188.3168)" fill="#010202" stroke="#FFFFFF" stroke-miterlimit="10" width="222.27" height="222.282"/>
<rect x="199.976" y="49.94" transform="matrix(-0.7661 0.6428 -0.6428 -0.7661 626.2213 72.0276)" fill="#2E2E2F" stroke="#FFFFFF" stroke-miterlimit="10" width="200.055" height="200.064"/>
<rect x="209.965" y="59.957" transform="matrix(-0.5 0.866 -0.866 -0.5 579.8622 -34.8185)" fill="#2E2E2F" stroke="#FFFFFF" stroke-miterlimit="10" width="180.035" height="180.047"/>
<polygon fill="#2E2E2F" stroke="#FFFFFF" stroke-miterlimit="10" points="393.842,84.251 365.707,243.827 206.12,215.687 
	234.262,56.115 "/>
<polygon fill="#2E2E2F" stroke="#FFFFFF" stroke-miterlimit="10" points="359.131,65.499 384.46,209.115 240.831,234.441 
	215.511,90.824 "/>
<polygon fill="#2E2E2F" stroke="#FFFFFF" stroke-miterlimit="10" points="324.004,60.324 389.634,173.988 275.959,239.619 
	210.337,125.952 "/>
<polygon fill="#2E2E2F" stroke="#FFFFFF" stroke-miterlimit="10" points="292.706,66.761 383.194,142.686 307.26,233.186 
	216.772,157.254 "/>
<rect x="246.826" y="96.813" transform="matrix(0.9397 0.342 -0.342 0.9397 69.3805 -93.5509)" fill="#2E2E2F" stroke="#FFFFFF" stroke-miterlimit="10" width="106.31" height="106.32"/>
<polygon fill="#2E2E2F" stroke="#FFFFFF" stroke-miterlimit="10" points="252.142,102.13 347.819,102.125 347.823,197.816 
	252.142,197.812 "/>
<rect x="256.926" y="106.898" transform="matrix(0.9397 -0.342 0.342 0.9397 -33.1974 111.6391)" fill="none" stroke="#FFFFFF" stroke-miterlimit="10" width="86.113" height="86.123"/>
<rect x="261.244" y="111.23" transform="matrix(0.766 -0.6428 0.6428 0.766 -26.219 227.9335)" fill="none" stroke="#FFFFFF" stroke-miterlimit="10" width="77.497" height="77.505"/>
<rect x="265.104" y="115.077" transform="matrix(0.5 -0.866 0.866 0.5 20.1227 334.7645)" fill="none" stroke="#FFFFFF" stroke-miterlimit="10" width="69.749" height="69.756"/>
<rect x="268.589" y="118.571" transform="matrix(0.1736 -0.9848 0.9848 0.1736 100.2099 419.3467)" fill="none" stroke="#FFFFFF" stroke-miterlimit="10" width="62.774" height="62.783"/>
<polygon fill="none" stroke="#FFFFFF" stroke-miterlimit="10" points="277.065,182.699 267.251,127.062 322.898,117.248 
	332.713,172.89 "/>
<rect x="274.556" y="124.554" transform="matrix(-0.5001 -0.866 0.866 -0.5001 320.1135 484.7637)" fill="none" stroke="#FFFFFF" stroke-miterlimit="10" width="50.849" height="50.857"/>
<polygon fill="none" stroke="#FFFFFF" stroke-miterlimit="10" points="302.802,182.212 267.743,152.801 297.16,117.736 
	332.223,147.152 "/>
<polygon fill="none" stroke="#FFFFFF" stroke-miterlimit="10" points="312.293,176.37 273.589,162.289 287.673,123.575 
	326.382,137.663 "/>
<rect x="281.449" y="131.438" fill="none" stroke="#FFFFFF" stroke-miterlimit="10" width="37.067" height="37.074"/>
<rect x="283.311" y="133.295" transform="matrix(-0.9397 0.3421 -0.3421 -0.9397 633.1957 188.2897)" fill="none" stroke="#FFFFFF" stroke-miterlimit="10" width="33.367" height="33.37"/>
<rect x="284.961" y="134.955" transform="matrix(-0.766 0.6428 -0.6428 -0.766 626.1625 72.0229)" fill="none" stroke="#FFFFFF" stroke-miterlimit="10" width="30.025" height="30.03"/>
<rect x="286.475" y="136.457" transform="matrix(-0.4999 0.8661 -0.8661 -0.4999 579.8367 -34.8727)" fill="none" stroke="#FFFFFF" stroke-miterlimit="10" width="27.023" height="27.028"/>
<rect x="287.822" y="137.818" transform="matrix(-0.1736 0.9848 -0.9848 -0.1736 499.7621 -119.4077)" fill="none" stroke="#FFFFFF" stroke-miterlimit="10" width="24.318" height="24.324"/>
<rect x="289.036" y="139.02" transform="matrix(0.1738 0.9848 -0.9848 0.1738 395.537 -171.5092)" fill="none" stroke="#FFFFFF" stroke-miterlimit="10" width="21.889" height="21.895"/>
<rect x="290.141" y="140.112" transform="matrix(0.5001 0.866 -0.866 0.5001 279.8277 -184.815)" fill="none" stroke="#FFFFFF" stroke-miterlimit="10" width="19.699" height="19.705"/>
<rect x="291.129" y="141.11" transform="matrix(0.7661 0.6427 -0.6427 0.7661 166.5598 -157.7318)" fill="none" stroke="#FFFFFF" stroke-miterlimit="10" width="17.729" height="17.734"/>
<rect x="292.024" y="141.993" transform="matrix(0.9397 0.3419 -0.3419 0.9397 69.3668 -93.5435)" fill="none" stroke="#FFFFFF" stroke-miterlimit="10" width="15.956" height="15.961"/>
<rect x="292.803" y="142.793" fill="none" stroke="#FFFFFF" stroke-miterlimit="10" width="14.36" height="14.365"/>
<rect x="293.53" y="143.516" transform="matrix(0.9396 -0.3422 0.3422 0.9396 -33.2118 111.7113)" fill="none" stroke="#FFFFFF" stroke-miterlimit="10" width="12.925" height="12.929"/>
<rect x="294.153" y="144.154" transform="matrix(0.766 -0.6429 0.6429 0.766 -26.2097 227.9503)" fill="none" stroke="#FFFFFF" stroke-miterlimit="10" width="11.634" height="11.637"/>
<rect x="294.743" y="144.738" transform="matrix(0.4999 -0.8661 0.8661 0.4999 20.1326 334.8139)" fill="none" stroke="#FFFFFF" stroke-miterlimit="10" width="10.469" height="10.472"/>
<rect x="295.28" y="145.253" transform="matrix(0.1735 -0.9848 0.9848 0.1735 100.2457 419.3834)" fill="none" stroke="#FFFFFF" stroke-miterlimit="10" width="9.421" height="9.425"/>
<rect x="295.754" y="145.743" transform="matrix(-0.1738 -0.9848 0.9848 -0.1738 204.4202 471.4774)" fill="none" stroke="#FFFFFF" stroke-miterlimit="10" width="8.481" height="8.483"/>
<rect x="296.154" y="146.151" transform="matrix(-0.5 -0.866 0.866 -0.5 320.0979 484.733)" fill="none" stroke="#FFFFFF" stroke-miterlimit="10" width="7.632" height="7.634"/>
<rect x="296.55" y="146.534" transform="matrix(-0.7661 -0.6427 0.6427 -0.7661 433.4181 457.666)" fill="none" stroke="#FFFFFF" stroke-miterlimit="10" width="6.869" height="6.871"/>
<rect x="296.89" y="146.887" transform="matrix(-0.9397 -0.342 0.342 -0.9397 530.5851 393.5025)" fill="none" stroke="#FFFFFF" stroke-miterlimit="10" width="6.182" height="6.183"/>
<rect x="297.203" y="147.192" fill="none" stroke="#FFFFFF" stroke-miterlimit="10" width="5.564" height="5.564"/>
<rect x="297.493" y="147.471" transform="matrix(-0.9397 0.3421 -0.3421 -0.9397 633.1982 188.2783)" fill="none" stroke="#FFFFFF" stroke-miterlimit="10" width="5.007" height="5.009"/>
<rect x="297.746" y="147.723" transform="matrix(-0.766 0.6429 -0.6429 -0.766 626.2054 71.9884)" fill="none" stroke="#FFFFFF" stroke-miterlimit="10" width="4.507" height="4.508"/>
<rect x="297.972" y="147.94" transform="matrix(-0.4998 0.8661 -0.8661 -0.4998 579.8443 -34.9075)" fill="none" stroke="#FFFFFF" stroke-miterlimit="10" width="4.058" height="4.057"/>
<rect x="298.161" y="148.157" transform="matrix(-0.1736 0.9848 -0.9848 -0.1736 499.7775 -119.4055)" fill="none" stroke="#FFFFFF" stroke-miterlimit="10" width="3.65" height="3.65"/>
</svg>
