<?xml version="1.0" encoding="utf-8"?>
<!-- Generator: Adobe Illustrator 16.0.0, SVG Export Plug-In . SVG Version: 6.00 Build 0)  -->
<!DOCTYPE svg PUBLIC "-//W3C//DTD SVG 1.1//EN" "http://www.w3.org/Graphics/SVG/1.1/DTD/svg11.dtd">
<svg version="1.1" id="Ebene_1" xmlns="http://www.w3.org/2000/svg" xmlns:xlink="http://www.w3.org/1999/xlink" x="0px" y="0px"
	 width="600px" height="300px" viewBox="0 0 600 300" enable-background="new 0 0 600 300" xml:space="preserve">
<rect x="5.5" y="74.5" stroke="#FFFFFF" stroke-miterlimit="10" width="10" height="150"/>
<rect x="10.129" y="75.25" transform="matrix(0.9962 -0.0871 0.0871 0.9962 -12.9645 1.8816)" stroke="#FFFFFF" stroke-miterlimit="10" width="9.9" height="148.5"/>
<rect x="15.178" y="75.992" transform="matrix(0.9848 -0.1737 0.1737 0.9848 -25.6604 5.7595)" stroke="#FFFFFF" stroke-miterlimit="10" width="9.8" height="147.016"/>
<rect x="20.227" y="76.727" transform="matrix(0.9659 -0.2589 0.2589 0.9659 -37.8455 11.5879)" stroke="#FFFFFF" stroke-miterlimit="10" width="9.703" height="145.545"/>
<rect x="25.276" y="77.455" transform="matrix(0.9397 -0.3421 0.3421 0.9397 -49.3281 19.3097)" stroke="#FFFFFF" stroke-miterlimit="10" width="9.606" height="144.09"/>
<rect x="30.324" y="78.175" transform="matrix(0.9063 -0.4226 0.4226 0.9063 -59.893 28.8302)" stroke="#FFFFFF" stroke-miterlimit="10" width="9.509" height="142.649"/>
<rect x="35.371" y="78.888" transform="matrix(0.866 -0.5001 0.5001 0.866 -69.3929 40.0808)" stroke="#FFFFFF" stroke-miterlimit="10" width="9.414" height="141.223"/>
<rect x="40.418" y="79.595" transform="matrix(0.8191 -0.5736 0.5736 0.8191 -77.6013 52.8976)" stroke="#FFFFFF" stroke-miterlimit="10" width="9.319" height="139.81"/>
<rect x="45.465" y="80.293" transform="matrix(0.766 -0.6429 0.6429 0.766 -84.39 67.1815)" stroke="#FFFFFF" stroke-miterlimit="10" width="9.227" height="138.413"/>
<rect x="50.511" y="80.985" transform="matrix(0.7071 -0.7072 0.7072 0.7071 -89.5851 82.7444)" stroke="#FFFFFF" stroke-miterlimit="10" width="9.134" height="137.028"/>
<rect x="55.556" y="81.67" transform="matrix(0.6427 -0.7661 0.7661 0.6427 -93.0681 99.4433)" stroke="#FFFFFF" stroke-miterlimit="10" width="9.044" height="135.658"/>
<rect x="60.601" y="82.348" transform="matrix(0.5735 -0.8192 0.8192 0.5735 -94.7156 117.077)" stroke="#FFFFFF" stroke-miterlimit="10" width="8.954" height="134.302"/>
<rect x="65.646" y="83.019" transform="matrix(0.4998 -0.8661 0.8661 0.4998 -94.4337 135.4724)" stroke="#FFFFFF" stroke-miterlimit="10" width="8.864" height="132.959"/>
<rect x="70.691" y="83.685" transform="matrix(0.4225 -0.9064 0.9064 0.4225 -92.1431 154.3893)" stroke="#FFFFFF" stroke-miterlimit="10" width="8.775" height="131.63"/>
<rect x="75.735" y="84.343" transform="matrix(0.3419 -0.9397 0.9397 0.3419 -87.7902 173.6418)" stroke="#FFFFFF" stroke-miterlimit="10" width="8.686" height="130.313"/>
<rect x="80.778" y="84.994" transform="matrix(0.2587 -0.966 0.966 0.2587 -81.3398 193.0114)" stroke="#FFFFFF" stroke-miterlimit="10" width="8.6" height="129.01"/>
<rect x="85.821" y="85.64" transform="matrix(0.1735 -0.9848 0.9848 0.1735 -72.7849 212.2658)" stroke="#FFFFFF" stroke-miterlimit="10" width="8.514" height="127.719"/>
<rect x="90.864" y="86.279" transform="matrix(0.087 -0.9962 0.9962 0.087 -62.1275 231.2084)" stroke="#FFFFFF" stroke-miterlimit="10" width="8.428" height="126.441"/>
<rect x="37.5" y="145.328" stroke="#FFFFFF" stroke-miterlimit="10" width="126" height="8.172"/>
<rect x="101.034" y="87.043" transform="matrix(-0.0872 -0.9962 0.9962 -0.0872 -34.6083 267.1143)" stroke="#FFFFFF" stroke-miterlimit="10" width="8.09" height="124.74"/>
<rect x="106.074" y="87.667" transform="matrix(-0.1736 -0.9848 0.9848 -0.1736 -17.9531 283.7633)" stroke="#FFFFFF" stroke-miterlimit="10" width="8.009" height="123.493"/>
<rect x="111.115" y="88.285" transform="matrix(-0.2588 -0.9659 0.9659 -0.2588 0.5363 299.2396)" stroke="#FFFFFF" stroke-miterlimit="10" width="7.928" height="122.259"/>
<rect x="116.154" y="88.896" transform="matrix(-0.342 -0.9397 0.9397 -0.342 20.737 313.3491)" stroke="#FFFFFF" stroke-miterlimit="10" width="7.85" height="121.037"/>
<rect x="121.194" y="89.501" transform="matrix(-0.4225 -0.9064 0.9064 -0.4225 42.5044 325.9099)" stroke="#FFFFFF" stroke-miterlimit="10" width="7.771" height="119.826"/>
<rect x="126.232" y="90.1" transform="matrix(-0.4999 -0.8661 0.8661 -0.4999 65.6963 336.764)" stroke="#FFFFFF" stroke-miterlimit="10" width="7.693" height="118.627"/>
<rect x="131.271" y="90.694" transform="matrix(-0.5735 -0.8192 0.8192 -0.5735 90.1371 345.7585)" stroke="#FFFFFF" stroke-miterlimit="10" width="7.617" height="117.441"/>
<rect x="136.309" y="91.281" transform="matrix(-0.6427 -0.7661 0.7661 -0.6427 115.64 352.7597)" stroke="#FFFFFF" stroke-miterlimit="10" width="7.541" height="116.266"/>
<rect x="141.347" y="91.861" transform="matrix(-0.7071 -0.7071 0.7071 -0.7071 142.0142 357.6513)" stroke="#FFFFFF" stroke-miterlimit="10" width="7.465" height="115.104"/>
<rect x="146.383" y="92.437" transform="matrix(-0.7661 -0.6427 0.6427 -0.7661 169.0275 360.3384)" stroke="#FFFFFF" stroke-miterlimit="10" width="7.391" height="113.954"/>
<rect x="151.42" y="93.007" transform="matrix(-0.8191 -0.5736 0.5736 -0.8191 196.4085 360.756)" stroke="#FFFFFF" stroke-miterlimit="10" width="7.318" height="112.814"/>
<rect x="156.457" y="93.571" transform="matrix(-0.8661 -0.4999 0.4999 -0.8661 224.0257 358.843)" stroke="#FFFFFF" stroke-miterlimit="10" width="7.244" height="111.686"/>
<rect x="161.493" y="94.129" transform="matrix(-0.9063 -0.4226 0.4226 -0.9063 251.5528 354.5905)" stroke="#FFFFFF" stroke-miterlimit="10" width="7.171" height="110.569"/>
<rect x="166.528" y="94.683" transform="matrix(-0.9397 -0.3419 0.3419 -0.9397 278.8132 347.9784)" stroke="#FFFFFF" stroke-miterlimit="10" width="7.1" height="109.463"/>
<rect x="171.564" y="95.229" transform="matrix(-0.966 -0.2587 0.2587 -0.966 305.5394 339.0359)" stroke="#FFFFFF" stroke-miterlimit="10" width="7.028" height="108.37"/>
<rect x="176.6" y="95.771" transform="matrix(-0.9848 -0.1735 0.1735 -0.9848 331.5023 327.8052)" stroke="#FFFFFF" stroke-miterlimit="10" width="6.957" height="107.286"/>
<rect x="181.634" y="96.308" transform="matrix(-0.9962 -0.0871 0.0871 -0.9962 356.4459 314.3723)" stroke="#FFFFFF" stroke-miterlimit="10" width="6.887" height="106.212"/>
<rect x="186.669" y="96.5" stroke="#FFFFFF" stroke-miterlimit="10" width="6.831" height="105"/>
<rect x="191.701" y="97.025" transform="matrix(-0.9962 0.0871 -0.0871 -0.9962 401.9846 280.4604)" stroke="#FFFFFF" stroke-miterlimit="10" width="6.346" height="103.949"/>
<rect x="196.733" y="97.544" transform="matrix(-0.9848 0.1735 -0.1735 -0.9848 422.5643 261.0688)" stroke="#FFFFFF" stroke-miterlimit="10" width="6.283" height="102.91"/>
<rect x="201.763" y="98.059" transform="matrix(-0.966 0.2587 -0.2587 -0.966 441.3207 239.9225)" stroke="#FFFFFF" stroke-miterlimit="10" width="6.221" height="101.882"/>
<rect x="206.794" y="98.568" transform="matrix(-0.9397 0.3419 -0.3419 -0.9397 458.042 217.2651)" stroke="#FFFFFF" stroke-miterlimit="10" width="6.158" height="100.863"/>
<rect x="211.825" y="99.073" transform="matrix(-0.9063 0.4226 -0.4226 -0.9063 472.5828 193.2442)" stroke="#FFFFFF" stroke-miterlimit="10" width="6.096" height="99.854"/>
<rect x="211.825" y="99.073" transform="matrix(-0.9063 0.4226 -0.4226 -0.9063 472.5828 193.2442)" stroke="#FFFFFF" stroke-miterlimit="10" width="6.096" height="99.854"/>
<rect x="216.856" y="99.572" transform="matrix(-0.8661 0.4999 -0.4999 -0.8661 484.7881 168.1217)" stroke="#FFFFFF" stroke-miterlimit="10" width="6.036" height="98.855"/>
<rect x="221.885" y="100.067" transform="matrix(-0.8193 0.5733 -0.5733 -0.8193 494.5428 142.1482)" stroke="#FFFFFF" stroke-miterlimit="10" width="5.975" height="97.866"/>
<rect x="226.916" y="100.556" transform="matrix(-0.7662 0.6426 -0.6426 -0.7662 501.7507 115.458)" stroke="#FFFFFF" stroke-miterlimit="10" width="5.915" height="96.887"/>
<rect x="231.945" y="101.04" transform="matrix(-0.7073 0.7069 -0.7069 -0.7073 506.3262 88.3417)" stroke="#FFFFFF" stroke-miterlimit="10" width="5.856" height="95.919"/>
<rect x="236.974" y="101.52" transform="matrix(-0.6429 0.7659 -0.7659 -0.6429 508.219 61.077)" stroke="#FFFFFF" stroke-miterlimit="10" width="5.798" height="94.96"/>
<rect x="242.003" y="101.995" transform="matrix(-0.5739 0.8189 -0.8189 -0.5739 507.4255 33.9804)" stroke="#FFFFFF" stroke-miterlimit="10" width="5.74" height="94.009"/>
<rect x="247.031" y="102.465" transform="matrix(-0.5005 0.8657 -0.8657 -0.5005 503.9271 7.2499)" stroke="#FFFFFF" stroke-miterlimit="10" width="5.682" height="93.068"/>
<rect x="252.06" y="102.931" transform="matrix(-0.4231 0.9061 -0.9061 -0.4231 497.7133 -18.8955)" stroke="#FFFFFF" stroke-miterlimit="10" width="5.625" height="92.138"/>
<rect x="257.087" y="103.391" transform="matrix(-0.3425 0.9395 -0.9395 -0.3425 488.8684 -44.1185)" stroke="#FFFFFF" stroke-miterlimit="10" width="5.568" height="91.216"/>
<rect x="262.115" y="103.847" transform="matrix(-0.2593 0.9658 -0.9658 -0.2593 477.4636 -68.1688)" stroke="#FFFFFF" stroke-miterlimit="10" width="5.513" height="90.304"/>
<rect x="267.141" y="104.299" transform="matrix(-0.1743 0.9847 -0.9847 -0.1743 463.6163 -90.7789)" stroke="#FFFFFF" stroke-miterlimit="10" width="5.459" height="89.4"/>
<rect x="272.169" y="104.746" transform="matrix(-0.0877 0.9962 -0.9962 -0.0877 447.3894 -111.7532)" stroke="#FFFFFF" stroke-miterlimit="10" width="5.404" height="88.507"/>
<polygon stroke="#FFFFFF" stroke-miterlimit="10" points="236.467,151.762 236.061,146.5 324.5,146.5 324.5,151.676 "/>
<polygon stroke="#FFFFFF" stroke-miterlimit="10" points="242.087,155.505 241.439,150.332 328.246,142.738 328.692,147.843 "/>
<polygon stroke="#FFFFFF" stroke-miterlimit="10" points="248.229,159.125 247.145,154.079 332.101,139.1 332.981,144.096 "/>
<polygon stroke="#FFFFFF" stroke-miterlimit="10" points="254.669,162.596 253.164,157.713 335.658,135.609 336.958,140.461 "/>
<polygon stroke="#FFFFFF" stroke-miterlimit="10" points="261.39,165.895 259.483,161.209 338.935,132.291 340.636,136.963 "/>
<polygon stroke="#FFFFFF" stroke-miterlimit="10" points="268.372,168.999 266.087,164.542 341.95,129.168 344.03,133.629 "/>
<polygon stroke="#FFFFFF" stroke-miterlimit="10" points="275.596,171.89 272.957,167.691 344.724,126.258 347.16,130.478 "/>
<polygon stroke="#FFFFFF" stroke-miterlimit="10" points="283.039,174.549 280.074,170.635 347.278,123.58 350.045,127.531 "/>
<polygon stroke="#FFFFFF" stroke-miterlimit="10" points="290.679,176.959 287.417,173.356 349.636,121.15 352.706,124.809 "/>
<polygon stroke="#FFFFFF" stroke-miterlimit="10" points="298.491,179.109 294.964,175.838 351.821,118.982 355.165,122.324 "/>
<polygon stroke="#FFFFFF" stroke-miterlimit="10" points="306.451,180.988 302.69,178.065 353.859,117.087 357.445,120.095 "/>
<polygon stroke="#FFFFFF" stroke-miterlimit="10" points="314.533,182.586 310.572,180.027 355.775,115.473 359.571,118.131 "/>
<polygon stroke="#FFFFFF" stroke-miterlimit="10" points="322.712,183.895 318.585,181.714 357.596,114.148 361.568,116.441 "/>
<polygon stroke="#FFFFFF" stroke-miterlimit="10" points="330.961,184.912 326.702,183.117 359.346,113.115 363.462,115.035 "/>
<polygon stroke="#FFFFFF" stroke-miterlimit="10" points="339.253,185.637 334.898,184.233 361.053,112.379 365.277,113.916 "/>
<polygon stroke="#FFFFFF" stroke-miterlimit="10" points="347.563,186.066 343.147,185.059 362.742,111.937 367.041,113.088 "/>
<polygon stroke="#FFFFFF" stroke-miterlimit="10" points="355.866,186.205 351.424,185.593 364.439,111.787 368.778,112.552 "/>
<polygon stroke="#FFFFFF" stroke-miterlimit="10" points="364.136,186.059 359.702,185.838 366.17,111.924 370.515,112.305 "/>
<polygon stroke="#FFFFFF" stroke-miterlimit="10" points="372.349,185.711 367.956,185.914 367.958,112.5 372.275,112.5 "/>
<polygon stroke="#FFFFFF" stroke-miterlimit="10" points="380.467,185.019 376.152,185.599 369.82,113.195 374.078,112.822 "/>
<polygon stroke="#FFFFFF" stroke-miterlimit="10" points="388.482,184.066 384.277,185.011 371.785,114.15 375.952,113.415 "/>
<polygon stroke="#FFFFFF" stroke-miterlimit="10" points="396.374,182.866 392.308,184.16 373.874,115.354 377.92,114.269 "/>
<polygon stroke="#FFFFFF" stroke-miterlimit="10" points="404.122,181.432 400.223,183.059 376.106,116.79 380.003,115.371 "/>
<polygon stroke="#FFFFFF" stroke-miterlimit="10" points="411.708,179.779 408.003,181.721 378.5,118.445 382.221,116.709 "/>
<polygon stroke="#FFFFFF" stroke-miterlimit="10" points="419.115,177.926 415.629,180.16 381.072,120.301 384.593,118.269 "/>
<polygon stroke="#FFFFFF" stroke-miterlimit="10" points="426.33,175.89 423.084,178.394 383.838,122.34 387.135,120.031 "/>
<polygon stroke="#FFFFFF" stroke-miterlimit="10" points="433.339,173.689 430.353,176.438 386.811,124.543 389.863,121.982 "/>
<polygon stroke="#FFFFFF" stroke-miterlimit="10" points="440.13,171.344 437.422,174.313 390.001,126.889 392.791,124.1 "/>
<polygon stroke="#FFFFFF" stroke-miterlimit="10" points="446.694,168.876 444.279,172.038 393.419,129.357 395.931,126.367 "/>
<polygon stroke="#FFFFFF" stroke-miterlimit="10" points="453.024,166.307 450.915,169.633 397.072,131.929 399.292,128.763 "/>
<polygon stroke="#FFFFFF" stroke-miterlimit="10" points="459.114,163.656 457.321,167.119 400.967,134.58 402.883,131.266 "/>
<polygon stroke="#FFFFFF" stroke-miterlimit="10" points="464.961,160.947 463.492,164.518 405.105,137.289 406.709,133.855 "/>
<polygon stroke="#FFFFFF" stroke-miterlimit="10" points="470.563,158.203 469.423,161.85 409.49,140.033 410.775,136.51 "/>
<polygon stroke="#FFFFFF" stroke-miterlimit="10" points="475.921,155.443 475.11,159.139 414.121,142.793 415.084,139.207 "/>
<polygon stroke="#FFFFFF" stroke-miterlimit="10" points="481.036,152.689 480.556,156.404 418.995,145.547 419.636,141.926 "/>
<polygon stroke="#FFFFFF" stroke-miterlimit="10" points="485.913,149.963 485.76,153.668 424.109,148.271 424.429,144.646 "/>
<polygon stroke="#FFFFFF" stroke-miterlimit="10" points="490.557,147.285 490.726,150.952 429.458,150.949 429.46,147.347 "/>
<polygon stroke="#FFFFFF" stroke-miterlimit="10" points="494.979,144.683 495.462,148.285 435.038,153.568 434.729,150.016 "/>
<polygon stroke="#FFFFFF" stroke-miterlimit="10" points="499.185,142.166 499.972,145.678 440.835,156.102 440.224,152.624 "/>
<polygon stroke="#FFFFFF" stroke-miterlimit="10" points="503.183,139.754 504.262,143.148 446.839,158.532 445.936,155.154 "/>
<polygon stroke="#FFFFFF" stroke-miterlimit="10" points="506.985,137.461 508.343,140.716 453.038,160.842 451.855,157.59 "/>
<polygon stroke="#FFFFFF" stroke-miterlimit="10" points="510.606,135.303 512.226,138.396 459.419,163.018 457.972,159.911 "/>
<polygon stroke="#FFFFFF" stroke-miterlimit="10" points="514.06,133.294 515.923,136.205 465.968,165.043 464.272,162.104 "/>
<polygon stroke="#FFFFFF" stroke-miterlimit="10" points="517.359,131.445 519.448,134.156 472.669,166.908 470.743,164.156 "/>
<polygon stroke="#FFFFFF" stroke-miterlimit="10" points="520.522,129.77 522.816,132.262 479.507,168.6 477.37,166.052 "/>
<polygon stroke="#FFFFFF" stroke-miterlimit="10" points="523.565,128.275 526.043,130.535 486.465,170.109 484.138,167.781 "/>
<polygon stroke="#FFFFFF" stroke-miterlimit="10" points="526.506,126.971 529.144,128.985 493.525,171.43 491.029,169.334 "/>
<polygon stroke="#FFFFFF" stroke-miterlimit="10" points="529.361,125.86 532.137,127.62 500.671,172.553 498.028,170.702 "/>
<polygon stroke="#FFFFFF" stroke-miterlimit="10" points="532.149,124.95 535.038,126.446 507.883,173.476 505.117,171.879 "/>
<polygon stroke="#FFFFFF" stroke-miterlimit="10" points="534.889,124.243 537.867,125.47 515.144,174.194 512.278,172.857 "/>
<polygon stroke="#FFFFFF" stroke-miterlimit="10" points="537.598,123.74 540.641,124.693 522.435,174.708 519.493,173.637 "/>
<polygon stroke="#FFFFFF" stroke-miterlimit="10" points="540.294,123.442 543.378,124.119 529.737,175.016 526.744,174.213 "/>
<polygon stroke="#FFFFFF" stroke-miterlimit="10" points="542.996,123.346 546.096,123.748 537.035,175.121 534.014,174.588 "/>
<polygon stroke="#FFFFFF" stroke-miterlimit="10" points="545.721,123.449 548.813,123.578 544.31,175.025 541.283,174.76 "/>
<polygon stroke="#FFFFFF" stroke-miterlimit="10" points="548.485,123.63 551.546,123.431 551.544,174.5 548.536,174.5 "/>
<polygon stroke="#FFFFFF" stroke-miterlimit="10" points="551.321,124.11 554.323,123.65 558.728,174.017 555.761,174.275 "/>
<polygon stroke="#FFFFFF" stroke-miterlimit="10" points="554.229,124.771 557.15,124.059 565.84,173.352 562.937,173.863 "/>
<polygon stroke="#FFFFFF" stroke-miterlimit="10" points="557.224,125.605 560.043,124.65 572.866,172.516 570.047,173.271 "/>
<polygon stroke="#FFFFFF" stroke-miterlimit="10" points="560.317,126.603 563.016,125.417 579.792,171.516 577.077,172.504 "/>
<polygon stroke="#FFFFFF" stroke-miterlimit="10" points="563.523,127.751 566.083,126.349 586.605,170.365 584.014,171.574 "/>
<polygon stroke="#FFFFFF" stroke-miterlimit="10" points="566.854,129.039 569.257,127.436 593.295,169.076 590.843,170.492 "/>
<polygon stroke="#FFFFFF" stroke-miterlimit="10" points="570.317,130.455 572.55,128.665 599.85,167.658 597.554,169.267 "/>
<polygon stroke="#FFFFFF" stroke-miterlimit="10" points="573.925,131.984 575.972,130.026 606.261,166.128 604.135,167.912 "/>
<polygon stroke="#FFFFFF" stroke-miterlimit="10" points="577.683,133.613 579.532,131.506 612.52,164.497 610.577,166.439 "/>
<polygon stroke="#FFFFFF" stroke-miterlimit="10" points="581.599,135.328 583.24,133.091 618.62,162.781 616.872,164.865 "/>
<polygon stroke="#FFFFFF" stroke-miterlimit="10" points="585.677,137.115 587.103,134.766 624.558,160.995 623.013,163.201 "/>
<polygon stroke="#FFFFFF" stroke-miterlimit="10" points="589.921,138.957 591.125,136.518 630.327,159.153 628.994,161.462 "/>
</svg>
