<?xml version="1.0" encoding="utf-8"?>
<!-- Generator: Adobe Illustrator 16.0.0, SVG Export Plug-In . SVG Version: 6.00 Build 0)  -->
<!DOCTYPE svg PUBLIC "-//W3C//DTD SVG 1.1//EN" "http://www.w3.org/Graphics/SVG/1.1/DTD/svg11.dtd">
<svg version="1.1" id="Ebene_1" xmlns="http://www.w3.org/2000/svg" xmlns:xlink="http://www.w3.org/1999/xlink" x="0px" y="0px"
	 width="600px" height="300px" viewBox="0 0 600 300" enable-background="new 0 0 600 300" xml:space="preserve">
<rect x="3.5" y="89.5" stroke="#FFFFFF" stroke-miterlimit="10" width="8" height="116"/>
<rect x="12.443" y="88.859" transform="matrix(0.9962 -0.0872 0.0872 0.9962 -12.7099 1.9777)" stroke="#FFFFFF" stroke-miterlimit="10" width="7.684" height="115.252"/>
<rect x="12.443" y="88.859" transform="matrix(0.9962 -0.0872 0.0872 0.9962 -12.7099 1.9777)" stroke="#FFFFFF" stroke-miterlimit="10" width="7.684" height="115.252"/>
<rect x="21.38" y="88.635" transform="matrix(0.9848 -0.1736 0.1736 0.9848 -24.9046 6.5825)" stroke="#FFFFFF" stroke-miterlimit="10" width="7.607" height="114.099"/>
<rect x="21.38" y="88.635" transform="matrix(0.9848 -0.1736 0.1736 0.9848 -24.9046 6.5825)" stroke="#FFFFFF" stroke-miterlimit="10" width="7.607" height="114.099"/>
<rect x="30.243" y="88.416" transform="matrix(0.9659 -0.2589 0.2589 0.9659 -36.3525 13.7441)" stroke="#FFFFFF" stroke-miterlimit="10" width="7.529" height="112.958"/>
<rect x="30.243" y="88.416" transform="matrix(0.9659 -0.2589 0.2589 0.9659 -36.3525 13.7441)" stroke="#FFFFFF" stroke-miterlimit="10" width="7.529" height="112.958"/>
<rect x="38.993" y="88.211" transform="matrix(0.9397 -0.342 0.342 0.9397 -46.7209 23.3058)" stroke="#FFFFFF" stroke-miterlimit="10" width="7.455" height="111.829"/>
<rect x="38.993" y="88.211" transform="matrix(0.9397 -0.342 0.342 0.9397 -46.7209 23.3058)" stroke="#FFFFFF" stroke-miterlimit="10" width="7.455" height="111.829"/>
<rect x="47.598" y="88.022" transform="matrix(0.9063 -0.4226 0.4226 0.9063 -55.7857 35.1059)" stroke="#FFFFFF" stroke-miterlimit="10" width="7.381" height="110.71"/>
<rect x="47.598" y="88.022" transform="matrix(0.9063 -0.4226 0.4226 0.9063 -55.7857 35.1059)" stroke="#FFFFFF" stroke-miterlimit="10" width="7.381" height="110.71"/>
<rect x="56.023" y="87.856" transform="matrix(0.8661 -0.4999 0.4999 0.8661 -63.3249 48.9394)" stroke="#FFFFFF" stroke-miterlimit="10" width="7.308" height="109.603"/>
<rect x="56.023" y="87.856" transform="matrix(0.8661 -0.4999 0.4999 0.8661 -63.3249 48.9394)" stroke="#FFFFFF" stroke-miterlimit="10" width="7.308" height="109.603"/>
<rect x="64.237" y="87.718" transform="matrix(0.8191 -0.5736 0.5736 0.8191 -69.1616 64.5969)" stroke="#FFFFFF" stroke-miterlimit="10" width="7.234" height="108.507"/>
<rect x="64.237" y="87.718" transform="matrix(0.8191 -0.5736 0.5736 0.8191 -69.1616 64.5969)" stroke="#FFFFFF" stroke-miterlimit="10" width="7.234" height="108.507"/>
<rect x="72.214" y="87.613" transform="matrix(0.7662 -0.6426 0.6426 0.7662 -73.0974 81.7571)" stroke="#FFFFFF" stroke-miterlimit="10" width="7.163" height="107.422"/>
<rect x="72.214" y="87.613" transform="matrix(0.7662 -0.6426 0.6426 0.7662 -73.0974 81.7571)" stroke="#FFFFFF" stroke-miterlimit="10" width="7.163" height="107.422"/>
<rect x="79.926" y="87.544" transform="matrix(0.7071 -0.7071 0.7071 0.7071 -75.0543 100.2383)" stroke="#FFFFFF" stroke-miterlimit="10" width="7.09" height="106.347"/>
<rect x="79.926" y="87.544" transform="matrix(0.7071 -0.7071 0.7071 0.7071 -75.0543 100.2383)" stroke="#FFFFFF" stroke-miterlimit="10" width="7.09" height="106.347"/>
<rect x="87.35" y="87.517" transform="matrix(0.6429 -0.7659 0.7659 0.6429 -74.9068 119.6354)" stroke="#FFFFFF" stroke-miterlimit="10" width="7.02" height="105.283"/>
<rect x="87.35" y="87.517" transform="matrix(0.6429 -0.7659 0.7659 0.6429 -74.9068 119.6354)" stroke="#FFFFFF" stroke-miterlimit="10" width="7.02" height="105.283"/>
<rect x="94.465" y="87.532" transform="matrix(0.5736 -0.8191 0.8191 0.5736 -72.6294 139.7723)" stroke="#FFFFFF" stroke-miterlimit="10" width="6.948" height="104.232"/>
<rect x="94.465" y="87.532" transform="matrix(0.5736 -0.8191 0.8191 0.5736 -72.6294 139.7723)" stroke="#FFFFFF" stroke-miterlimit="10" width="6.948" height="104.232"/>
<rect x="101.251" y="87.596" transform="matrix(0.5 -0.8661 0.8661 0.5 -68.1955 160.2688)" stroke="#FFFFFF" stroke-miterlimit="10" width="6.88" height="103.188"/>
<rect x="101.251" y="87.596" transform="matrix(0.5 -0.8661 0.8661 0.5 -68.1955 160.2688)" stroke="#FFFFFF" stroke-miterlimit="10" width="6.88" height="103.188"/>
<rect x="107.695" y="87.708" transform="matrix(0.4227 -0.9063 0.9063 0.4227 -61.6384 180.8129)" stroke="#FFFFFF" stroke-miterlimit="10" width="6.811" height="102.157"/>
<rect x="107.695" y="87.708" transform="matrix(0.4227 -0.9063 0.9063 0.4227 -61.6384 180.8129)" stroke="#FFFFFF" stroke-miterlimit="10" width="6.811" height="102.157"/>
<rect x="113.782" y="87.872" transform="matrix(0.342 -0.9397 0.9397 0.342 -53.0023 201.1886)" stroke="#FFFFFF" stroke-miterlimit="10" width="6.742" height="101.136"/>
<rect x="113.782" y="87.872" transform="matrix(0.342 -0.9397 0.9397 0.342 -53.0023 201.1886)" stroke="#FFFFFF" stroke-miterlimit="10" width="6.742" height="101.136"/>
<rect x="119.505" y="88.088" transform="matrix(0.259 -0.9659 0.9659 0.259 -42.4065 221.0285)" stroke="#FFFFFF" stroke-miterlimit="10" width="6.675" height="100.125"/>
<rect x="119.505" y="88.088" transform="matrix(0.259 -0.9659 0.9659 0.259 -42.4065 221.0285)" stroke="#FFFFFF" stroke-miterlimit="10" width="6.675" height="100.125"/>
<rect x="124.856" y="88.36" transform="matrix(0.1736 -0.9848 0.9848 0.1736 -29.917 240.1902)" stroke="#FFFFFF" stroke-miterlimit="10" width="6.609" height="99.123"/>
<rect x="124.856" y="88.36" transform="matrix(0.1736 -0.9848 0.9848 0.1736 -29.917 240.1902)" stroke="#FFFFFF" stroke-miterlimit="10" width="6.609" height="99.123"/>
<rect x="129.833" y="88.686" transform="matrix(0.0872 -0.9962 0.9962 0.0872 -15.7279 258.3394)" stroke="#FFFFFF" stroke-miterlimit="10" width="6.542" height="98.132"/>
<rect x="129.833" y="88.686" transform="matrix(0.0872 -0.9962 0.9962 0.0872 -15.7279 258.3394)" stroke="#FFFFFF" stroke-miterlimit="10" width="6.542" height="98.132"/>
<polygon stroke="#FFFFFF" stroke-miterlimit="10" points="186.5,134.404 186.5,141.5 89.095,141.5 89.223,134.713 "/>
<polygon stroke="#FFFFFF" stroke-miterlimit="10" points="186.5,134.404 186.5,141.5 89.095,141.5 89.223,134.713 "/>
<polygon stroke="#FFFFFF" stroke-miterlimit="10" points="189.87,130.19 190.447,136.777 94.256,145.192 93.879,138.688 "/>
<polygon stroke="#FFFFFF" stroke-miterlimit="10" points="189.87,130.19 190.447,136.777 94.256,145.192 93.879,138.688 "/>
<polygon stroke="#FFFFFF" stroke-miterlimit="10" points="193.13,126.069 194.268,132.516 100.127,149.114 99.193,142.732 "/>
<polygon stroke="#FFFFFF" stroke-miterlimit="10" points="193.13,126.069 194.268,132.516 100.127,149.114 99.193,142.732 "/>
<polygon stroke="#FFFFFF" stroke-miterlimit="10" points="196.411,122.06 198.089,128.318 106.677,152.813 105.205,146.599 "/>
<polygon stroke="#FFFFFF" stroke-miterlimit="10" points="196.411,122.06 198.089,128.318 106.677,152.813 105.205,146.599 "/>
<polygon stroke="#FFFFFF" stroke-miterlimit="10" points="199.716,118.191 201.911,124.22 113.871,156.264 111.884,150.262 "/>
<polygon stroke="#FFFFFF" stroke-miterlimit="10" points="199.716,118.191 201.911,124.22 113.871,156.264 111.884,150.262 "/>
<polygon stroke="#FFFFFF" stroke-miterlimit="10" points="203.05,114.49 205.734,120.246 121.671,159.446 119.192,153.698 "/>
<polygon stroke="#FFFFFF" stroke-miterlimit="10" points="203.05,114.49 205.734,120.246 121.671,159.446 119.192,153.698 "/>
<polygon stroke="#FFFFFF" stroke-miterlimit="10" points="206.417,110.982 209.561,116.427 130.037,162.34 127.097,156.885 "/>
<polygon stroke="#FFFFFF" stroke-miterlimit="10" points="206.417,110.982 209.561,116.427 130.037,162.34 127.097,156.885 "/>
<polygon stroke="#FFFFFF" stroke-miterlimit="10" points="209.818,107.688 213.39,112.787 138.923,164.931 135.552,159.804 "/>
<polygon stroke="#FFFFFF" stroke-miterlimit="10" points="209.818,107.688 213.39,112.787 138.923,164.931 135.552,159.804 "/>
<polygon stroke="#FFFFFF" stroke-miterlimit="10" points="213.259,104.632 217.22,109.352 148.278,167.203 144.511,162.437 "/>
<polygon stroke="#FFFFFF" stroke-miterlimit="10" points="213.259,104.632 217.22,109.352 148.278,167.203 144.511,162.437 "/>
<polygon stroke="#FFFFFF" stroke-miterlimit="10" points="216.741,101.83 221.056,106.143 158.054,169.146 153.927,164.771 "/>
<polygon stroke="#FFFFFF" stroke-miterlimit="10" points="216.741,101.83 221.056,106.143 158.054,169.146 153.927,164.771 "/>
<polygon stroke="#FFFFFF" stroke-miterlimit="10" points="220.267,99.298 224.894,103.18 168.195,170.751 163.747,166.793 "/>
<polygon stroke="#FFFFFF" stroke-miterlimit="10" points="220.267,99.298 224.894,103.18 168.195,170.751 163.747,166.793 "/>
<polygon stroke="#FFFFFF" stroke-miterlimit="10" points="223.837,97.052 228.734,100.482 178.648,172.015 173.921,168.495 "/>
<polygon stroke="#FFFFFF" stroke-miterlimit="10" points="223.837,97.052 228.734,100.482 178.648,172.015 173.921,168.495 "/>
<polygon stroke="#FFFFFF" stroke-miterlimit="10" points="227.455,95.103 232.58,98.063 189.356,172.933 184.39,169.869 "/>
<polygon stroke="#FFFFFF" stroke-miterlimit="10" points="227.455,95.103 232.58,98.063 189.356,172.933 184.39,169.869 "/>
<polygon stroke="#FFFFFF" stroke-miterlimit="10" points="231.12,93.459 236.431,95.936 200.261,173.504 195.1,170.912 "/>
<polygon stroke="#FFFFFF" stroke-miterlimit="10" points="231.12,93.459 236.431,95.936 200.261,173.504 195.1,170.912 "/>
<polygon stroke="#FFFFFF" stroke-miterlimit="10" points="234.834,92.127 240.284,94.111 211.307,173.732 205.992,171.621 "/>
<polygon stroke="#FFFFFF" stroke-miterlimit="10" points="234.834,92.127 240.284,94.111 211.307,173.732 205.992,171.621 "/>
<polygon stroke="#FFFFFF" stroke-miterlimit="10" points="238.597,91.111 244.143,92.598 222.435,173.624 217.011,171.999 "/>
<polygon stroke="#FFFFFF" stroke-miterlimit="10" points="238.597,91.111 244.143,92.598 222.435,173.624 217.011,171.999 "/>
<polygon stroke="#FFFFFF" stroke-miterlimit="10" points="242.407,90.413 248.007,91.4 233.587,173.184 228.098,172.05 "/>
<polygon stroke="#FFFFFF" stroke-miterlimit="10" points="242.407,90.413 248.007,91.4 233.587,173.184 228.098,172.05 "/>
<polygon stroke="#FFFFFF" stroke-miterlimit="10" points="246.267,90.031 251.873,90.521 244.71,172.423 239.198,171.779 "/>
<polygon stroke="#FFFFFF" stroke-miterlimit="10" points="246.267,90.031 251.873,90.521 244.71,172.423 239.198,171.779 "/>
<polygon stroke="#FFFFFF" stroke-miterlimit="10" points="250.173,89.5 255.5,89.5 255.5,171.354 250.133,170.963 "/>
<polygon stroke="#FFFFFF" stroke-miterlimit="10" points="250.173,89.5 255.5,89.5 255.5,171.354 250.133,170.963 "/>
<polygon stroke="#FFFFFF" stroke-miterlimit="10" points="254.124,90.094 259.577,89.616 266.608,169.988 261.197,170.252 "/>
<polygon stroke="#FFFFFF" stroke-miterlimit="10" points="254.124,90.094 259.577,89.616 266.608,169.988 261.197,170.252 "/>
<polygon stroke="#FFFFFF" stroke-miterlimit="10" points="258.169,90.62 263.505,89.679 277.374,168.338 272.062,169.064 "/>
<polygon stroke="#FFFFFF" stroke-miterlimit="10" points="258.169,90.62 263.505,89.679 277.374,168.338 272.062,169.064 "/>
<polygon stroke="#FFFFFF" stroke-miterlimit="10" points="262.302,91.43 267.483,90.041 287.948,166.42 282.771,167.596 "/>
<polygon stroke="#FFFFFF" stroke-miterlimit="10" points="262.302,91.43 267.483,90.041 287.948,166.42 282.771,167.596 "/>
<polygon stroke="#FFFFFF" stroke-miterlimit="10" points="266.519,92.51 271.509,90.694 298.285,164.256 293.278,165.861 "/>
<polygon stroke="#FFFFFF" stroke-miterlimit="10" points="266.519,92.51 271.509,90.694 298.285,164.256 293.278,165.861 "/>
<polygon stroke="#FFFFFF" stroke-miterlimit="10" points="270.818,93.849 275.582,91.627 308.337,161.867 303.537,163.882 "/>
<polygon stroke="#FFFFFF" stroke-miterlimit="10" points="270.818,93.849 275.582,91.627 308.337,161.867 303.537,163.882 "/>
<polygon stroke="#FFFFFF" stroke-miterlimit="10" points="275.192,95.43 279.7,92.828 318.063,159.274 313.505,161.676 "/>
<polygon stroke="#FFFFFF" stroke-miterlimit="10" points="275.192,95.43 279.7,92.828 318.063,159.274 313.505,161.676 "/>
<polygon stroke="#FFFFFF" stroke-miterlimit="10" points="279.639,97.236 283.86,94.281 327.429,156.502 323.14,159.265 "/>
<polygon stroke="#FFFFFF" stroke-miterlimit="10" points="279.639,97.236 283.86,94.281 327.429,156.502 323.14,159.265 "/>
<polygon stroke="#FFFFFF" stroke-miterlimit="10" points="284.149,99.251 288.058,95.973 336.396,153.577 332.403,156.671 "/>
<polygon stroke="#FFFFFF" stroke-miterlimit="10" points="284.149,99.251 288.058,95.973 336.396,153.577 332.403,156.671 "/>
<polygon stroke="#FFFFFF" stroke-miterlimit="10" points="288.72,101.452 292.291,97.882 344.935,150.523 341.263,153.919 "/>
<polygon stroke="#FFFFFF" stroke-miterlimit="10" points="288.72,101.452 292.291,97.882 344.935,150.523 341.263,153.919 "/>
<polygon stroke="#FFFFFF" stroke-miterlimit="10" points="293.343,103.821 296.557,99.991 353.017,147.366 349.689,151.031 "/>
<polygon stroke="#FFFFFF" stroke-miterlimit="10" points="293.343,103.821 296.557,99.991 353.017,147.366 349.689,151.031 "/>
<polygon stroke="#FFFFFF" stroke-miterlimit="10" points="298.012,106.336 300.851,102.281 360.622,144.133 357.657,148.035 "/>
<polygon stroke="#FFFFFF" stroke-miterlimit="10" points="298.012,106.336 300.851,102.281 360.622,144.133 357.657,148.035 "/>
<polygon stroke="#FFFFFF" stroke-miterlimit="10" points="302.72,108.975 305.171,104.73 367.729,140.849 365.141,144.952 "/>
<polygon stroke="#FFFFFF" stroke-miterlimit="10" points="302.72,108.975 305.171,104.73 367.729,140.849 365.141,144.952 "/>
<polygon stroke="#FFFFFF" stroke-miterlimit="10" points="307.46,111.714 309.511,107.316 374.325,137.539 372.126,141.811 "/>
<polygon stroke="#FFFFFF" stroke-miterlimit="10" points="307.46,111.714 309.511,107.316 374.325,137.539 372.126,141.811 "/>
<polygon stroke="#FFFFFF" stroke-miterlimit="10" points="312.226,114.531 313.869,110.018 380.397,134.232 378.597,138.635 "/>
<polygon stroke="#FFFFFF" stroke-miterlimit="10" points="312.226,114.531 313.869,110.018 380.397,134.232 378.597,138.635 "/>
<polygon stroke="#FFFFFF" stroke-miterlimit="10" points="317.009,117.404 318.239,112.812 385.94,130.951 384.544,135.449 "/>
<polygon stroke="#FFFFFF" stroke-miterlimit="10" points="317.009,117.404 318.239,112.812 385.94,130.951 384.544,135.449 "/>
<polygon stroke="#FFFFFF" stroke-miterlimit="10" points="321.8,120.309 322.618,115.674 390.953,127.723 389.964,132.278 "/>
<polygon stroke="#FFFFFF" stroke-miterlimit="10" points="321.8,120.309 322.618,115.674 390.953,127.723 389.964,132.278 "/>
<polygon stroke="#FFFFFF" stroke-miterlimit="10" points="326.596,123.223 327.002,118.581 395.436,124.567 394.854,129.146 "/>
<polygon stroke="#FFFFFF" stroke-miterlimit="10" points="326.596,123.223 327.002,118.581 395.436,124.567 394.854,129.146 "/>
<polygon stroke="#FFFFFF" stroke-miterlimit="10" points="331.5,126.124 331.5,121.5 399.396,121.5 399.272,126.07 "/>
<polygon stroke="#FFFFFF" stroke-miterlimit="10" points="331.5,126.124 331.5,121.5 399.396,121.5 399.272,126.07 "/>
<polygon stroke="#FFFFFF" stroke-miterlimit="10" points="336.521,128.976 336.14,124.594 402.844,118.758 403.237,123.176 "/>
<polygon stroke="#FFFFFF" stroke-miterlimit="10" points="341.776,131.691 341.022,127.402 406.304,115.891 407.074,120.214 "/>
<polygon stroke="#FFFFFF" stroke-miterlimit="10" points="341.776,131.691 341.022,127.402 406.304,115.891 407.074,120.214 "/>
<polygon stroke="#FFFFFF" stroke-miterlimit="10" points="347.504,134.252 346.39,130.088 409.78,113.102 410.911,117.299 "/>
<polygon stroke="#FFFFFF" stroke-miterlimit="10" points="347.504,134.252 346.39,130.088 409.78,113.102 410.911,117.299 "/>
<polygon stroke="#FFFFFF" stroke-miterlimit="10" points="353.679,136.642 352.222,132.631 413.272,110.409 414.751,114.45 "/>
<polygon stroke="#FFFFFF" stroke-miterlimit="10" points="353.679,136.642 352.222,132.631 413.272,110.409 414.751,114.45 "/>
<polygon stroke="#FFFFFF" stroke-miterlimit="10" points="360.276,138.845 358.492,135.016 416.786,107.832 418.593,111.689 "/>
<polygon stroke="#FFFFFF" stroke-miterlimit="10" points="360.276,138.845 358.492,135.016 416.786,107.832 418.593,111.689 "/>
<polygon stroke="#FFFFFF" stroke-miterlimit="10" points="367.267,140.85 365.175,137.228 420.323,105.388 422.437,109.037 "/>
<polygon stroke="#FFFFFF" stroke-miterlimit="10" points="367.267,140.85 365.175,137.228 420.323,105.388 422.437,109.037 "/>
<polygon stroke="#FFFFFF" stroke-miterlimit="10" points="374.617,142.644 372.243,139.252 423.884,103.092 426.282,106.509 "/>
<polygon stroke="#FFFFFF" stroke-miterlimit="10" points="374.617,142.644 372.243,139.252 423.884,103.092 426.282,106.509 "/>
<polygon stroke="#FFFFFF" stroke-miterlimit="10" points="382.296,144.218 379.662,141.077 427.472,100.961 430.133,104.123 "/>
<polygon stroke="#FFFFFF" stroke-miterlimit="10" points="382.296,144.218 379.662,141.077 427.472,100.961 430.133,104.123 "/>
<polygon stroke="#FFFFFF" stroke-miterlimit="10" points="390.269,145.565 387.399,142.695 431.088,99.006 433.986,101.895 "/>
<polygon stroke="#FFFFFF" stroke-miterlimit="10" points="390.269,145.565 387.399,142.695 431.088,99.006 433.986,101.895 "/>
<polygon stroke="#FFFFFF" stroke-miterlimit="10" points="398.495,146.68 395.417,144.097 434.735,97.238 437.843,99.838 "/>
<polygon stroke="#FFFFFF" stroke-miterlimit="10" points="398.495,146.68 395.417,144.097 434.735,97.238 437.843,99.838 "/>
<polygon stroke="#FFFFFF" stroke-miterlimit="10" points="406.938,147.556 403.681,145.274 438.414,95.668 441.703,97.964 "/>
<polygon stroke="#FFFFFF" stroke-miterlimit="10" points="406.938,147.556 403.681,145.274 438.414,95.668 441.703,97.964 "/>
<polygon stroke="#FFFFFF" stroke-miterlimit="10" points="415.558,148.193 412.149,146.225 442.124,94.305 445.565,96.285 "/>
<polygon stroke="#FFFFFF" stroke-miterlimit="10" points="415.558,148.193 412.149,146.225 442.124,94.305 445.565,96.285 "/>
<polygon stroke="#FFFFFF" stroke-miterlimit="10" points="424.318,148.592 420.784,146.943 445.867,93.153 449.433,94.809 "/>
<polygon stroke="#FFFFFF" stroke-miterlimit="10" points="424.318,148.592 420.784,146.943 445.867,93.153 449.433,94.809 "/>
<polygon stroke="#FFFFFF" stroke-miterlimit="10" points="433.175,148.752 429.55,147.432 449.645,92.218 453.304,93.543 "/>
<polygon stroke="#FFFFFF" stroke-miterlimit="10" points="433.175,148.752 429.55,147.432 449.645,92.218 453.304,93.543 "/>
<polygon stroke="#FFFFFF" stroke-miterlimit="10" points="442.09,148.68 438.4,147.689 453.454,91.502 457.179,92.493 "/>
<polygon stroke="#FFFFFF" stroke-miterlimit="10" points="442.09,148.68 438.4,147.689 453.454,91.502 457.179,92.493 "/>
<polygon stroke="#FFFFFF" stroke-miterlimit="10" points="451.024,148.378 447.298,147.72 457.298,91.007 461.056,91.663 "/>
<polygon stroke="#FFFFFF" stroke-miterlimit="10" points="451.024,148.378 447.298,147.72 457.298,91.007 461.056,91.663 "/>
<polygon stroke="#FFFFFF" stroke-miterlimit="10" points="459.937,147.854 456.206,147.525 461.175,90.73 464.937,91.054 "/>
<polygon stroke="#FFFFFF" stroke-miterlimit="10" points="459.937,147.854 456.206,147.525 461.175,90.73 464.937,91.054 "/>
<polygon stroke="#FFFFFF" stroke-miterlimit="10" points="468.791,147.5 465.5,147.5 465.5,90.762 469.03,90.904 "/>
<polygon stroke="#FFFFFF" stroke-miterlimit="10" points="477.558,146.35 473.901,146.67 469.022,90.918 472.714,90.632 "/>
<polygon stroke="#FFFFFF" stroke-miterlimit="10" points="486.224,145.209 482.646,145.84 473.023,91.276 476.638,90.676 "/>
<polygon stroke="#FFFFFF" stroke-miterlimit="10" points="494.757,143.883 491.282,144.813 477.085,91.831 480.599,90.928 "/>
<polygon stroke="#FFFFFF" stroke-miterlimit="10" points="503.124,142.386 499.779,143.603 481.206,92.574 484.593,91.38 "/>
<polygon stroke="#FFFFFF" stroke-miterlimit="10" points="511.298,140.73 508.104,142.221 485.383,93.497 488.62,92.026 "/>
<polygon stroke="#FFFFFF" stroke-miterlimit="10" points="519.247,138.936 516.225,140.68 489.612,94.588 492.679,92.858 "/>
<polygon stroke="#FFFFFF" stroke-miterlimit="10" points="526.944,137.015 524.114,138.996 493.892,95.835 496.766,93.864 "/>
<polygon stroke="#FFFFFF" stroke-miterlimit="10" points="534.366,134.987 531.747,137.186 498.216,97.227 500.88,95.035 "/>
<polygon stroke="#FFFFFF" stroke-miterlimit="10" points="541.493,132.871 539.099,135.264 502.582,98.749 505.021,96.357 "/>
<polygon stroke="#FFFFFF" stroke-miterlimit="10" points="548.302,130.682 546.147,133.249 506.983,100.387 509.182,97.818 "/>
<polygon stroke="#FFFFFF" stroke-miterlimit="10" points="554.78,128.439 552.877,131.157 511.417,102.126 513.363,99.402 "/>
<polygon stroke="#FFFFFF" stroke-miterlimit="10" points="560.915,126.161 559.271,129.005 515.878,103.951 517.562,101.098 "/>
<polygon stroke="#FFFFFF" stroke-miterlimit="10" points="566.694,123.865 565.318,126.813 520.36,105.848 521.774,102.889 "/>
<polygon stroke="#FFFFFF" stroke-miterlimit="10" points="572.11,121.57 571.008,124.596 524.86,107.799 525.999,104.758 "/>
<polygon stroke="#FFFFFF" stroke-miterlimit="10" points="577.158,119.293 576.333,122.372 529.371,109.788 530.231,106.691 "/>
<polygon stroke="#FFFFFF" stroke-miterlimit="10" points="581.839,117.052 581.29,120.159 533.888,111.801 534.47,108.672 "/>
<polygon stroke="#FFFFFF" stroke-miterlimit="10" points="586.151,114.861 585.878,117.973 538.407,113.819 538.712,110.685 "/>
<polygon stroke="#FFFFFF" stroke-miterlimit="10" points="590.5,112.738 590.5,115.5 542.923,115.5 543.154,112.547 "/>
<polygon stroke="#FFFFFF" stroke-miterlimit="10" points="593.421,110.701 593.657,113.397 547.413,117.443 547.048,114.555 "/>
<polygon stroke="#FFFFFF" stroke-miterlimit="10" points="597.02,108.705 597.485,111.343 552.227,119.324 551.618,116.507 "/>
<polygon stroke="#FFFFFF" stroke-miterlimit="10" points="600.63,106.759 601.317,109.32 557.369,121.098 556.526,118.371 "/>
<polygon stroke="#FFFFFF" stroke-miterlimit="10" points="604.251,104.879 605.15,107.346 562.823,122.753 561.757,120.137 "/>
<polygon stroke="#FFFFFF" stroke-miterlimit="10" points="607.888,103.076 608.987,105.432 568.573,124.279 567.295,121.791 "/>
<polygon stroke="#FFFFFF" stroke-miterlimit="10" points="611.541,101.365 612.829,103.594 574.597,125.668 573.121,123.324 "/>
<polygon stroke="#FFFFFF" stroke-miterlimit="10" points="615.212,99.755 616.674,101.842 580.873,126.91 579.214,124.727 "/>
<polygon stroke="#FFFFFF" stroke-miterlimit="10" points="618.9,98.258 620.522,100.188 587.378,128.002 585.554,125.991 "/>
<polygon stroke="#FFFFFF" stroke-miterlimit="10" points="622.61,96.881 624.376,98.646 594.087,128.936 592.115,127.109 "/>
<polygon stroke="#FFFFFF" stroke-miterlimit="10" points="626.339,95.633 628.233,97.222 600.974,129.708 598.874,128.078 "/>
<rect x="62.536" y="-83.118" fill="none" width="150.522" height="83.118"/>
<text transform="matrix(1 0 0 1 62.5366 -74.5977)"><tspan x="0" y="0" font-family="'MyriadPro-Regular'" font-size="12">skalieren:99%</tspan><tspan x="0" y="14.399" font-family="'MyriadPro-Regular'" font-size="12">verschieben:5px</tspan><tspan x="0" y="28.799" font-family="'MyriadPro-Regular'" font-size="12">drehen: 5°</tspan><tspan x="0" y="43.199" font-family="'MyriadPro-Regular'" font-size="12">fixpunkt: oben - mitte</tspan></text>
</svg>
