<?xml version="1.0" encoding="utf-8"?>
<!-- Generator: Adobe Illustrator 16.0.0, SVG Export Plug-In . SVG Version: 6.00 Build 0)  -->
<!DOCTYPE svg PUBLIC "-//W3C//DTD SVG 1.1//EN" "http://www.w3.org/Graphics/SVG/1.1/DTD/svg11.dtd">
<svg version="1.1" id="Ebene_1" xmlns="http://www.w3.org/2000/svg" xmlns:xlink="http://www.w3.org/1999/xlink" x="0px" y="0px"
	 width="600px" height="300px" viewBox="0 0 600 300" enable-background="new 0 0 600 300" xml:space="preserve">
<rect x="65.5" y="89.5" stroke="#FFFFFF" stroke-miterlimit="10" width="10" height="150"/>
<rect x="63.614" y="91.29" transform="matrix(0.9962 -0.0872 0.0872 0.9962 -14.1739 6.6094)" stroke="#FFFFFF" stroke-miterlimit="10" width="9.9" height="148.5"/>
<rect x="62.197" y="93.064" transform="matrix(0.9848 -0.1738 0.1738 0.9848 -27.9231 14.1931)" stroke="#FFFFFF" stroke-miterlimit="10" width="9.801" height="147.015"/>
<rect x="60.877" y="94.815" transform="matrix(0.9659 -0.259 0.259 0.9659 -41.1562 22.7377)" stroke="#FFFFFF" stroke-miterlimit="10" width="9.703" height="145.545"/>
<rect x="60.877" y="94.815" transform="matrix(0.9659 -0.259 0.259 0.9659 -41.1562 22.7377)" stroke="#FFFFFF" stroke-miterlimit="10" width="9.703" height="145.545"/>
<rect x="59.699" y="96.536" transform="matrix(0.9396 -0.3422 0.3422 0.9396 -53.7919 32.2482)" stroke="#FFFFFF" stroke-miterlimit="10" width="9.606" height="144.09"/>
<rect x="58.708" y="98.22" transform="matrix(0.9062 -0.4229 0.4229 0.9062 -65.74 42.7399)" stroke="#FFFFFF" stroke-miterlimit="10" width="9.51" height="142.649"/>
<rect x="57.947" y="99.86" transform="matrix(0.8659 -0.5003 0.5003 0.8659 -76.8757 54.2073)" stroke="#FFFFFF" stroke-miterlimit="10" width="9.415" height="141.222"/>
<rect x="57.456" y="101.45" transform="matrix(0.819 -0.5738 0.5738 0.819 -87.0826 66.662)" stroke="#FFFFFF" stroke-miterlimit="10" width="9.321" height="139.81"/>
<rect x="57.27" y="102.983" transform="matrix(0.7659 -0.643 0.643 0.7659 -96.2284 80.1071)" stroke="#FFFFFF" stroke-miterlimit="10" width="9.228" height="138.412"/>
<rect x="57.425" y="104.455" transform="matrix(0.7069 -0.7073 0.7073 0.7069 -104.1681 94.535)" stroke="#FFFFFF" stroke-miterlimit="10" width="9.136" height="137.028"/>
<rect x="57.95" y="105.862" transform="matrix(0.6426 -0.7662 0.7662 0.6426 -110.7547 109.9459)" stroke="#FFFFFF" stroke-miterlimit="10" width="9.045" height="135.658"/>
<rect x="58.874" y="107.198" transform="matrix(0.5734 -0.8193 0.8193 0.5734 -115.8145 126.2833)" stroke="#FFFFFF" stroke-miterlimit="10" width="8.955" height="134.301"/>
<rect x="60.219" y="108.46" transform="matrix(0.4998 -0.8661 0.8661 0.4998 -119.1821 143.4994)" stroke="#FFFFFF" stroke-miterlimit="10" width="8.867" height="132.957"/>
<rect x="62.004" y="109.644" transform="matrix(0.4224 -0.9064 0.9064 0.4224 -120.688 161.5259)" stroke="#FFFFFF" stroke-miterlimit="10" width="8.779" height="131.628"/>
<rect x="64.248" y="110.75" transform="matrix(0.3418 -0.9398 0.9398 0.3418 -120.1634 180.2358)" stroke="#FFFFFF" stroke-miterlimit="10" width="8.691" height="130.311"/>
<rect x="66.96" y="111.773" transform="matrix(0.2587 -0.966 0.966 0.2587 -117.4483 199.5184)" stroke="#FFFFFF" stroke-miterlimit="10" width="8.604" height="129.008"/>
<rect x="70.15" y="112.713" transform="matrix(0.1734 -0.9848 0.9848 0.1734 -112.3924 219.2285)" stroke="#FFFFFF" stroke-miterlimit="10" width="8.519" height="127.718"/>
<rect x="73.824" y="113.57" transform="matrix(0.087 -0.9962 0.9962 0.087 -104.867 239.1618)" stroke="#FFFFFF" stroke-miterlimit="10" width="8.433" height="126.441"/>
<rect x="19.5" y="172.499" stroke="#FFFFFF" stroke-miterlimit="10" width="126" height="8.607"/>
<rect x="82.404" y="114.499" transform="matrix(-0.0872 -0.9962 0.9962 -0.0872 -81.9724 278.6274)" stroke="#FFFFFF" stroke-miterlimit="10" width="8.522" height="124.74"/>
<rect x="86.565" y="115.263" transform="matrix(-0.1738 -0.9848 0.9848 -0.1738 -67.7601 297.1685)" stroke="#FFFFFF" stroke-miterlimit="10" width="8.436" height="123.493"/>
<rect x="90.274" y="116.094" transform="matrix(-0.259 -0.9659 0.9659 -0.259 -52.2625 314.351)" stroke="#FFFFFF" stroke-miterlimit="10" width="8.351" height="122.258"/>
<rect x="93.549" y="116.986" transform="matrix(-0.3423 -0.9396 0.9396 -0.3423 -35.6626 330.0453)" stroke="#FFFFFF" stroke-miterlimit="10" width="8.268" height="121.036"/>
<rect x="96.414" y="117.939" transform="matrix(-0.4229 -0.9062 0.9062 -0.4229 -18.1628 344.1364)" stroke="#FFFFFF" stroke-miterlimit="10" width="8.185" height="119.826"/>
<rect x="98.893" y="118.947" transform="matrix(-0.5002 -0.8659 0.8659 -0.5002 0.0713 356.5626)" stroke="#FFFFFF" stroke-miterlimit="10" width="8.103" height="118.627"/>
<rect x="101.014" y="120.006" transform="matrix(-0.5737 -0.8191 0.8191 -0.5737 18.8786 367.2795)" stroke="#FFFFFF" stroke-miterlimit="10" width="8.021" height="117.441"/>
<rect x="102.804" y="121.112" transform="matrix(-0.6428 -0.766 0.766 -0.6428 38.1034 376.2576)" stroke="#FFFFFF" stroke-miterlimit="10" width="7.941" height="116.267"/>
<rect x="104.297" y="122.259" transform="matrix(-0.7072 -0.707 0.707 -0.7072 57.6282 383.4895)" stroke="#FFFFFF" stroke-miterlimit="10" width="7.862" height="115.104"/>
<rect x="105.524" y="123.443" transform="matrix(-0.7661 -0.6427 0.6427 -0.7661 77.2754 388.9619)" stroke="#FFFFFF" stroke-miterlimit="10" width="7.782" height="113.952"/>
<rect x="106.521" y="124.658" transform="matrix(-0.8192 -0.5735 0.5735 -0.8192 96.9627 392.6931)" stroke="#FFFFFF" stroke-miterlimit="10" width="7.704" height="112.813"/>
<rect x="107.322" y="125.898" transform="matrix(-0.8661 -0.4999 0.4999 -0.8661 116.54 394.7)" stroke="#FFFFFF" stroke-miterlimit="10" width="7.627" height="111.685"/>
<rect x="107.965" y="127.158" transform="matrix(-0.9064 -0.4224 0.4224 -0.9064 135.9538 395.0092)" stroke="#FFFFFF" stroke-miterlimit="10" width="7.55" height="110.569"/>
<rect x="108.484" y="128.432" transform="matrix(-0.9398 -0.3417 0.3417 -0.9398 155.0922 393.6495)" stroke="#FFFFFF" stroke-miterlimit="10" width="7.475" height="109.463"/>
<rect x="108.918" y="129.714" transform="matrix(-0.966 -0.2585 0.2585 -0.966 173.8736 390.6569)" stroke="#FFFFFF" stroke-miterlimit="10" width="7.401" height="108.369"/>
<rect x="109.304" y="130.997" transform="matrix(-0.9849 -0.1733 0.1733 -0.9849 192.2321 386.0618)" stroke="#FFFFFF" stroke-miterlimit="10" width="7.327" height="107.285"/>
<rect x="109.678" y="132.278" transform="matrix(-0.9962 -0.0868 0.0868 -0.9962 210.0807 379.908)" stroke="#FFFFFF" stroke-miterlimit="10" width="7.253" height="106.213"/>
<rect x="110.5" y="133.549" stroke="#FFFFFF" stroke-miterlimit="10" width="7" height="104.952"/>
<rect x="110.5" y="133.549" stroke="#FFFFFF" stroke-miterlimit="10" width="7" height="104.952"/>
<rect x="110.543" y="134.803" transform="matrix(-0.9962 0.0875 -0.0875 -0.9962 243.9214 362.8153)" stroke="#FFFFFF" stroke-miterlimit="10" width="6.93" height="103.903"/>
<rect x="111.039" y="136.046" transform="matrix(-0.9847 0.1741 -0.1741 -0.9847 259.8279 352.1669)" stroke="#FFFFFF" stroke-miterlimit="10" width="6.861" height="102.865"/>
<rect x="111.602" y="137.274" transform="matrix(-0.9658 0.2592 -0.2592 -0.9658 274.8516 340.137)" stroke="#FFFFFF" stroke-miterlimit="10" width="6.792" height="101.835"/>
<rect x="112.263" y="138.481" transform="matrix(-0.9395 0.3425 -0.3425 -0.9395 288.9465 326.7596)" stroke="#FFFFFF" stroke-miterlimit="10" width="6.724" height="100.816"/>
<rect x="113.056" y="139.662" transform="matrix(-0.9061 0.4231 -0.4231 -0.9061 302.0441 312.0852)" stroke="#FFFFFF" stroke-miterlimit="10" width="6.656" height="99.809"/>
<rect x="114.008" y="140.812" transform="matrix(-0.8658 0.5005 -0.5005 -0.8658 314.0546 296.1949)" stroke="#FFFFFF" stroke-miterlimit="10" width="6.59" height="98.811"/>
<rect x="115.148" y="141.927" transform="matrix(-0.8188 0.5741 -0.5741 -0.8188 324.9192 279.1236)" stroke="#FFFFFF" stroke-miterlimit="10" width="6.524" height="97.822"/>
<rect x="116.503" y="143.003" transform="matrix(-0.7657 0.6432 -0.6432 -0.7657 334.5364 260.9839)" stroke="#FFFFFF" stroke-miterlimit="10" width="6.459" height="96.844"/>
<rect x="118.095" y="144.036" transform="matrix(-0.7067 0.7075 -0.7075 -0.7067 342.8307 241.8347)" stroke="#FFFFFF" stroke-miterlimit="10" width="6.394" height="95.876"/>
<rect x="119.946" y="145.023" transform="matrix(-0.6424 0.7664 -0.7664 -0.6424 349.711 221.769)" stroke="#FFFFFF" stroke-miterlimit="10" width="6.329" height="94.917"/>
<rect x="119.946" y="145.023" transform="matrix(-0.6424 0.7664 -0.7664 -0.6424 349.711 221.769)" stroke="#FFFFFF" stroke-miterlimit="10" width="6.329" height="94.917"/>
<rect x="122.076" y="145.961" transform="matrix(-0.5731 0.8195 -0.8195 -0.5731 355.0815 200.9098)" stroke="#FFFFFF" stroke-miterlimit="10" width="6.266" height="93.967"/>
<rect x="124.5" y="146.847" transform="matrix(-0.4995 0.8663 -0.8663 -0.4995 358.8502 179.4028)" stroke="#FFFFFF" stroke-miterlimit="10" width="6.203" height="93.027"/>
<polygon stroke="#FFFFFF" stroke-miterlimit="10" points="87.274,177.05 89.866,171.482 173.335,210.403 170.74,215.971 "/>
<rect x="130.288" y="148.454" transform="matrix(-0.3415 0.9399 -0.9399 -0.3415 361.2336 134.9848)" stroke="#FFFFFF" stroke-miterlimit="10" width="6.08" height="91.176"/>
<rect x="133.672" y="149.172" transform="matrix(-0.2582 0.9661 -0.9661 -0.2582 359.6847 112.4178)" stroke="#FFFFFF" stroke-miterlimit="10" width="6.018" height="90.265"/>
<rect x="137.391" y="149.832" transform="matrix(-0.1729 0.9849 -0.9849 -0.1729 356.2263 89.895)" stroke="#FFFFFF" stroke-miterlimit="10" width="5.958" height="89.363"/>
<rect x="141.447" y="150.434" transform="matrix(-0.0864 0.9963 -0.9963 -0.0864 350.8171 67.638)" stroke="#FFFFFF" stroke-miterlimit="10" width="5.898" height="88.469"/>
<polygon stroke="#FFFFFF" stroke-miterlimit="10" points="104.947,197.514 104.969,191.5 192.5,191.5 192.5,197.691 "/>
<polygon stroke="#FFFFFF" stroke-miterlimit="10" points="110.279,201.29 109.989,195.339 195.9,187.823 196.435,193.93 "/>
<polygon stroke="#FFFFFF" stroke-miterlimit="10" points="115.823,205.003 115.024,199.158 199.104,184.334 200.157,190.31 "/>
<polygon stroke="#FFFFFF" stroke-miterlimit="10" points="121.349,208.615 120.056,202.92 201.699,181.045 203.253,186.848 "/>
<polygon stroke="#FFFFFF" stroke-miterlimit="10" points="126.851,212.103 125.084,206.597 203.716,177.979 205.749,183.567 "/>
<polygon stroke="#FFFFFF" stroke-miterlimit="10" points="132.326,215.439 130.108,210.162 205.188,175.153 207.676,180.49 "/>
<polygon stroke="#FFFFFF" stroke-miterlimit="10" points="137.771,218.604 135.129,213.591 206.155,172.586 209.068,177.635 "/>
<polygon stroke="#FFFFFF" stroke-miterlimit="10" points="143.185,221.576 140.146,216.86 206.656,170.291 209.965,175.02 "/>
<polygon stroke="#FFFFFF" stroke-miterlimit="10" points="148.563,224.337 145.158,219.948 206.735,168.281 210.406,172.658 "/>
<polygon stroke="#FFFFFF" stroke-miterlimit="10" points="153.903,226.868 150.167,222.834 206.438,166.565 210.437,170.565 "/>
<polygon stroke="#FFFFFF" stroke-miterlimit="10" points="159.205,229.156 155.172,225.5 205.813,165.15 210.102,168.751 "/>
<polygon stroke="#FFFFFF" stroke-miterlimit="10" points="164.466,231.188 160.173,227.931 204.909,164.042 209.449,167.224 "/>
<polygon stroke="#FFFFFF" stroke-miterlimit="10" points="169.685,232.954 165.169,230.111 203.777,163.242 208.529,165.988 "/>
<polygon stroke="#FFFFFF" stroke-miterlimit="10" points="174.86,234.445 170.162,232.031 202.469,162.751 207.393,165.05 "/>
<polygon stroke="#FFFFFF" stroke-miterlimit="10" points="179.993,235.656 175.151,233.681 201.035,162.566 206.09,164.408 "/>
<polygon stroke="#FFFFFF" stroke-miterlimit="10" points="185.083,236.582 180.137,235.052 199.528,162.684 204.673,164.063 "/>
<polygon stroke="#FFFFFF" stroke-miterlimit="10" points="190.129,237.223 185.119,236.141 197.999,163.096 203.192,164.012 "/>
<polygon stroke="#FFFFFF" stroke-miterlimit="10" points="195.133,237.578 190.099,236.943 196.499,163.793 201.699,164.248 "/>
<polygon stroke="#FFFFFF" stroke-miterlimit="10" points="200.307,237.52 195.5,237.46 195.5,164.5 200.243,164.5 "/>
<rect x="471.5" y="19.5" stroke="#FFFFFF" stroke-miterlimit="10" width="10" height="150"/>
<rect x="469.614" y="21.29" transform="matrix(0.9962 -0.0872 0.0872 0.9962 -6.5234 41.7459)" stroke="#FFFFFF" stroke-miterlimit="10" width="9.9" height="148.5"/>
<rect x="468.197" y="23.064" transform="matrix(0.9848 -0.1738 0.1738 0.9848 -9.5835 83.6758)" stroke="#FFFFFF" stroke-miterlimit="10" width="9.801" height="147.015"/>
<rect x="466.877" y="24.815" transform="matrix(0.9659 -0.259 0.259 0.9659 -9.1797 125.4873)" stroke="#FFFFFF" stroke-miterlimit="10" width="9.703" height="145.545"/>
<rect x="466.877" y="24.815" transform="matrix(0.9659 -0.259 0.259 0.9659 -9.1797 125.4873)" stroke="#FFFFFF" stroke-miterlimit="10" width="9.703" height="145.545"/>
<rect x="465.699" y="26.536" transform="matrix(0.9396 -0.3422 0.3422 0.9396 -5.3301 166.9492)" stroke="#FFFFFF" stroke-miterlimit="10" width="9.606" height="144.09"/>
<rect x="464.708" y="28.22" transform="matrix(0.9062 -0.4229 0.4229 0.9062 1.9443 207.8537)" stroke="#FFFFFF" stroke-miterlimit="10" width="9.51" height="142.649"/>
<rect x="463.947" y="29.86" transform="matrix(0.8659 -0.5003 0.5003 0.8659 12.5957 247.9224)" stroke="#FFFFFF" stroke-miterlimit="10" width="9.415" height="141.222"/>
<rect x="463.456" y="31.45" transform="matrix(0.819 -0.5738 0.5738 0.819 26.5787 286.962)" stroke="#FFFFFF" stroke-miterlimit="10" width="9.321" height="139.81"/>
<rect x="463.27" y="32.983" transform="matrix(0.7659 -0.643 0.643 0.7659 43.8403 324.776)" stroke="#FFFFFF" stroke-miterlimit="10" width="9.228" height="138.412"/>
<rect x="463.425" y="34.455" transform="matrix(0.7069 -0.7073 0.7073 0.7069 64.3203 361.1717)" stroke="#FFFFFF" stroke-miterlimit="10" width="9.136" height="137.028"/>
<rect x="463.95" y="35.862" transform="matrix(0.6426 -0.7662 0.7662 0.6426 87.9876 396.008)" stroke="#FFFFFF" stroke-miterlimit="10" width="9.045" height="135.658"/>
<rect x="464.874" y="37.198" transform="matrix(0.5734 -0.8193 0.8193 0.5734 114.7427 429.0511)" stroke="#FFFFFF" stroke-miterlimit="10" width="8.955" height="134.301"/>
<rect x="466.219" y="38.46" transform="matrix(0.4998 -0.8661 0.8661 0.4998 144.5239 460.1367)" stroke="#FFFFFF" stroke-miterlimit="10" width="8.867" height="132.957"/>
<rect x="468.004" y="39.644" transform="matrix(0.4224 -0.9064 0.9064 0.4224 177.2697 489.0971)" stroke="#FFFFFF" stroke-miterlimit="10" width="8.779" height="131.628"/>
<rect x="470.248" y="40.75" transform="matrix(0.3418 -0.9398 0.9398 0.3418 212.8356 515.7069)" stroke="#FFFFFF" stroke-miterlimit="10" width="8.691" height="130.311"/>
<rect x="472.96" y="41.773" transform="matrix(0.2587 -0.966 0.966 0.2587 251.1541 539.8079)" stroke="#FFFFFF" stroke-miterlimit="10" width="8.604" height="129.008"/>
<rect x="476.15" y="42.713" transform="matrix(0.1734 -0.9848 0.9848 0.1734 292.1279 561.2161)" stroke="#FFFFFF" stroke-miterlimit="10" width="8.519" height="127.718"/>
<rect x="479.824" y="43.57" transform="matrix(0.087 -0.9962 0.9962 0.087 335.5603 579.7112)" stroke="#FFFFFF" stroke-miterlimit="10" width="8.433" height="126.441"/>
<rect x="424.5" y="103.499" stroke="#FFFFFF" stroke-miterlimit="10" width="126" height="8.607"/>
<rect x="488.404" y="44.499" transform="matrix(-0.0872 -0.9962 0.9962 -0.0872 429.1674 606.9761)" stroke="#FFFFFF" stroke-miterlimit="10" width="8.522" height="124.74"/>
<rect x="492.565" y="45.263" transform="matrix(-0.1738 -0.9848 0.9848 -0.1738 477.7212 614.8295)" stroke="#FFFFFF" stroke-miterlimit="10" width="8.436" height="123.493"/>
<rect x="496.274" y="46.094" transform="matrix(-0.259 -0.9659 0.9659 -0.259 526.5063 618.3656)" stroke="#FFFFFF" stroke-miterlimit="10" width="8.351" height="122.258"/>
<rect x="499.549" y="46.986" transform="matrix(-0.3423 -0.9396 0.9396 -0.3423 575.08 617.5597)" stroke="#FFFFFF" stroke-miterlimit="10" width="8.268" height="121.036"/>
<rect x="502.414" y="47.939" transform="matrix(-0.4229 -0.9062 0.9062 -0.4229 622.9493 612.4532)" stroke="#FFFFFF" stroke-miterlimit="10" width="8.185" height="119.826"/>
<rect x="504.893" y="48.947" transform="matrix(-0.5002 -0.8659 0.8659 -0.5002 669.7505 603.1211)" stroke="#FFFFFF" stroke-miterlimit="10" width="8.103" height="118.627"/>
<rect x="507.014" y="50.006" transform="matrix(-0.5737 -0.8191 0.8191 -0.5737 715.1205 589.6758)" stroke="#FFFFFF" stroke-miterlimit="10" width="8.021" height="117.441"/>
<rect x="508.804" y="51.112" transform="matrix(-0.6428 -0.766 0.766 -0.6428 758.7045 572.2692)" stroke="#FFFFFF" stroke-miterlimit="10" width="7.941" height="116.267"/>
<rect x="510.297" y="52.259" transform="matrix(-0.7072 -0.707 0.707 -0.7072 800.2319 551.0479)" stroke="#FFFFFF" stroke-miterlimit="10" width="7.862" height="115.104"/>
<rect x="511.524" y="53.443" transform="matrix(-0.7661 -0.6427 0.6427 -0.7661 839.2986 526.2864)" stroke="#FFFFFF" stroke-miterlimit="10" width="7.782" height="113.952"/>
<rect x="512.521" y="54.658" transform="matrix(-0.8192 -0.5735 0.5735 -0.8192 875.7151 498.1688)" stroke="#FFFFFF" stroke-miterlimit="10" width="7.704" height="112.813"/>
<rect x="513.322" y="55.898" transform="matrix(-0.8661 -0.4999 0.4999 -0.8661 909.1653 467.0269)" stroke="#FFFFFF" stroke-miterlimit="10" width="7.627" height="111.685"/>
<rect x="513.965" y="57.158" transform="matrix(-0.9064 -0.4224 0.4224 -0.9064 939.522 433.0629)" stroke="#FFFFFF" stroke-miterlimit="10" width="7.55" height="110.569"/>
<rect x="514.484" y="58.432" transform="matrix(-0.9398 -0.3417 0.3417 -0.9398 966.5703 396.6117)" stroke="#FFFFFF" stroke-miterlimit="10" width="7.475" height="109.463"/>
<rect x="514.918" y="59.714" transform="matrix(-0.966 -0.2585 0.2585 -0.966 990.1695 357.9837)" stroke="#FFFFFF" stroke-miterlimit="10" width="7.401" height="108.369"/>
<rect x="515.304" y="60.997" transform="matrix(-0.9849 -0.1733 0.1733 -0.9849 1010.22 317.4706)" stroke="#FFFFFF" stroke-miterlimit="10" width="7.327" height="107.285"/>
<rect x="515.678" y="62.278" transform="matrix(-0.9962 -0.0868 0.0868 -0.9962 1026.626 275.4313)" stroke="#FFFFFF" stroke-miterlimit="10" width="7.253" height="106.213"/>
<rect x="516.5" y="63.549" stroke="#FFFFFF" stroke-miterlimit="10" width="7" height="104.952"/>
<rect x="516.5" y="63.549" stroke="#FFFFFF" stroke-miterlimit="10" width="7" height="104.952"/>
<rect x="516.543" y="64.803" transform="matrix(-0.9962 0.0875 -0.0875 -0.9962 1048.238 187.5542)" stroke="#FFFFFF" stroke-miterlimit="10" width="6.93" height="103.903"/>
<rect x="517.039" y="66.046" transform="matrix(-0.9847 0.1741 -0.1741 -0.9847 1053.4425 142.5569)" stroke="#FFFFFF" stroke-miterlimit="10" width="6.861" height="102.865"/>
<rect x="517.602" y="67.274" transform="matrix(-0.9658 0.2592 -0.2592 -0.9658 1054.8237 97.2763)" stroke="#FFFFFF" stroke-miterlimit="10" width="6.792" height="101.835"/>
<rect x="518.263" y="68.481" transform="matrix(-0.9395 0.3425 -0.3425 -0.9395 1052.4231 51.9512)" stroke="#FFFFFF" stroke-miterlimit="10" width="6.724" height="100.816"/>
<rect x="519.056" y="69.662" transform="matrix(-0.9061 0.4231 -0.4231 -0.9061 1046.2942 6.877)" stroke="#FFFFFF" stroke-miterlimit="10" width="6.656" height="99.809"/>
<rect x="519.056" y="69.662" transform="matrix(-0.9061 0.4231 -0.4231 -0.9061 1046.2942 6.877)" stroke="#FFFFFF" stroke-miterlimit="10" width="6.656" height="99.809"/>
<rect x="519.056" y="69.662" transform="matrix(-0.9061 0.4231 -0.4231 -0.9061 1046.2942 6.877)" stroke="#FFFFFF" stroke-miterlimit="10" width="6.656" height="99.809"/>
<polygon stroke="#FFFFFF" stroke-miterlimit="10" points="205.02,237.316 200.065,237.69 193.771,165.735 198.863,165.289 "/>
<polygon stroke="#FFFFFF" stroke-miterlimit="10" points="209.863,236.844 205.01,237.64 192.593,167.219 197.577,166.339 "/>
<polygon stroke="#FFFFFF" stroke-miterlimit="10" points="214.626,236.117 209.908,237.321 191.586,168.941 196.426,167.644 "/>
<polygon stroke="#FFFFFF" stroke-miterlimit="10" points="219.312,235.148 214.762,236.742 190.792,170.885 195.453,169.188 "/>
<polygon stroke="#FFFFFF" stroke-miterlimit="10" points="223.923,233.949 219.573,235.913 190.251,173.03 194.702,170.954 "/>
<polygon stroke="#FFFFFF" stroke-miterlimit="10" points="228.465,232.533 224.345,234.845 190,175.357 194.211,172.926 "/>
<polygon stroke="#FFFFFF" stroke-miterlimit="10" points="232.942,230.915 229.078,233.551 190.073,177.846 194.017,175.084 "/>
<polygon stroke="#FFFFFF" stroke-miterlimit="10" points="237.36,229.111 233.776,232.044 190.502,180.472 194.153,177.408 "/>
<polygon stroke="#FFFFFF" stroke-miterlimit="10" points="241.725,227.14 238.442,230.342 191.314,183.213 194.651,179.877 "/>
<polygon stroke="#FFFFFF" stroke-miterlimit="10" points="246.04,225.019 243.08,228.46 192.534,186.046 195.537,182.469 "/>
<polygon stroke="#FFFFFF" stroke-miterlimit="10" points="250.314,222.768 247.692,226.417 194.183,188.948 196.835,185.161 "/>
<polygon stroke="#FFFFFF" stroke-miterlimit="10" points="254.554,220.406 252.282,224.231 196.276,191.896 198.565,187.932 "/>
<polygon stroke="#FFFFFF" stroke-miterlimit="10" points="258.764,217.954 256.854,221.923 198.829,194.864 200.744,190.758 "/>
<polygon stroke="#FFFFFF" stroke-miterlimit="10" points="262.951,215.433 261.41,219.512 201.85,197.832 203.384,193.616 "/>
<polygon stroke="#FFFFFF" stroke-miterlimit="10" points="267.124,212.861 265.956,217.018 205.345,200.775 206.494,196.485 "/>
<polygon stroke="#FFFFFF" stroke-miterlimit="10" points="271.287,210.262 270.494,214.462 209.315,203.673 210.079,199.343 "/>
<polygon stroke="#FFFFFF" stroke-miterlimit="10" points="275.448,207.654 275.028,211.865 213.761,206.503 214.141,202.167 "/>
<polygon stroke="#FFFFFF" stroke-miterlimit="10" points="280.025,205.059 280.18,209.248 219.5,209.246 219.5,204.937 "/>
<polygon stroke="#FFFFFF" stroke-miterlimit="10" points="283.992,202.505 284.403,206.633 224.454,211.876 224.082,207.625 "/>
<polygon stroke="#FFFFFF" stroke-miterlimit="10" points="287.728,200.074 288.489,204.11 229.817,214.454 229.084,210.294 "/>
<polygon stroke="#FFFFFF" stroke-miterlimit="10" points="291.038,197.783 292.138,201.698 235.166,216.962 234.084,212.922 "/>
<polygon stroke="#FFFFFF" stroke-miterlimit="10" points="293.946,195.646 295.368,199.412 240.498,219.382 239.082,215.49 "/>
<polygon stroke="#FFFFFF" stroke-miterlimit="10" points="296.476,193.677 298.202,197.268 245.811,221.697 244.078,217.981 "/>
<polygon stroke="#FFFFFF" stroke-miterlimit="10" points="298.651,191.886 300.664,195.278 251.102,223.893 249.073,220.377 "/>
<polygon stroke="#FFFFFF" stroke-miterlimit="10" points="300.503,190.284 302.781,193.456 256.37,225.953 254.065,222.66 "/>
<polygon stroke="#FFFFFF" stroke-miterlimit="10" points="302.062,188.88 304.582,191.812 261.613,227.865 259.057,224.816 "/>
<polygon stroke="#FFFFFF" stroke-miterlimit="10" points="303.358,187.68 306.097,190.354 266.831,229.618 264.046,226.832 "/>
<polygon stroke="#FFFFFF" stroke-miterlimit="10" points="304.427,186.689 307.358,189.09 272.021,231.202 269.034,228.694 "/>
<polygon stroke="#FFFFFF" stroke-miterlimit="10" points="305.302,185.911 308.4,188.026 277.184,232.607 274.021,230.392 "/>
<polygon stroke="#FFFFFF" stroke-miterlimit="10" points="306.019,185.348 309.257,187.167 282.316,233.827 279.006,231.915 "/>
<polygon stroke="#FFFFFF" stroke-miterlimit="10" points="306.613,184.999 309.964,186.514 287.42,234.856 283.99,233.256 "/>
<polygon stroke="#FFFFFF" stroke-miterlimit="10" points="307.121,184.863 310.557,186.067 292.494,235.69 288.974,234.407 "/>
<polygon stroke="#FFFFFF" stroke-miterlimit="10" points="307.579,184.938 311.071,185.828 297.539,236.326 293.956,235.365 "/>
<polygon stroke="#FFFFFF" stroke-miterlimit="10" points="308.022,185.217 311.544,185.793 302.555,236.764 298.938,236.125 "/>
<polygon stroke="#FFFFFF" stroke-miterlimit="10" points="308.486,185.694 312.009,185.959 307.542,237.004 303.92,236.686 "/>
<polygon stroke="#FFFFFF" stroke-miterlimit="10" points="309.004,186.363 312.5,186.32 312.5,237.048 308.9,237.046 "/>
<polygon stroke="#FFFFFF" stroke-miterlimit="10" points="309.398,187.2 312.635,186.875 317.012,236.904 313.565,237.203 "/>
<polygon stroke="#FFFFFF" stroke-miterlimit="10" points="310.09,188.225 313.253,187.625 321.887,236.588 318.514,237.18 "/>
<polygon stroke="#FFFFFF" stroke-miterlimit="10" points="310.897,189.416 313.965,188.552 326.704,236.095 323.429,236.97 "/>
<polygon stroke="#FFFFFF" stroke-miterlimit="10" points="311.851,190.761 314.801,189.645 331.467,235.434 328.312,236.579 "/>
<polygon stroke="#FFFFFF" stroke-miterlimit="10" points="312.977,192.247 315.79,190.892 336.178,234.612 333.165,236.014 "/>
<polygon stroke="#FFFFFF" stroke-miterlimit="10" points="314.303,193.859 316.96,192.28 340.84,233.64 337.989,235.282 "/>
<polygon stroke="#FFFFFF" stroke-miterlimit="10" points="315.853,195.584 318.337,193.798 345.456,232.527 342.787,234.393 "/>
<polygon stroke="#FFFFFF" stroke-miterlimit="10" points="317.647,197.405 319.943,195.43 350.031,231.286 347.56,233.355 "/>
<polygon stroke="#FFFFFF" stroke-miterlimit="10" points="319.708,199.308 321.802,197.161 354.569,229.928 352.31,232.182 "/>
<polygon stroke="#FFFFFF" stroke-miterlimit="10" points="322.051,201.274 323.93,198.977 359.073,228.465 357.04,230.883 "/>
<polygon stroke="#FFFFFF" stroke-miterlimit="10" points="324.69,203.289 326.345,200.861 363.549,226.911 361.752,229.471 "/>
<polygon stroke="#FFFFFF" stroke-miterlimit="10" points="327.639,205.336 329.061,202.799 368.001,225.28 366.449,227.959 "/>
<polygon stroke="#FFFFFF" stroke-miterlimit="10" points="330.905,207.398 332.089,204.773 372.433,223.586 371.134,226.361 "/>
<polygon stroke="#FFFFFF" stroke-miterlimit="10" points="334.497,209.461 335.438,206.77 376.85,221.842 375.809,224.691 "/>
<polygon stroke="#FFFFFF" stroke-miterlimit="10" points="338.419,211.507 339.115,208.771 381.257,220.063 380.476,222.963 "/>
<polygon stroke="#FFFFFF" stroke-miterlimit="10" points="342.673,213.521 343.123,210.764 385.659,218.264 385.139,221.191 "/>
<polygon stroke="#FFFFFF" stroke-miterlimit="10" points="347.257,215.49 347.463,212.731 390.061,216.458 389.8,219.39 "/>
<polygon stroke="#FFFFFF" stroke-miterlimit="10" points="352.168,217.318 352.134,214.5 394.466,214.5 394.462,217.453 "/>
<polygon stroke="#FFFFFF" stroke-miterlimit="10" points="357.404,219.15 357.127,216.374 398.876,212.721 399.127,215.634 "/>
<polygon stroke="#FFFFFF" stroke-miterlimit="10" points="362.643,220.945 362.13,218.231 402.989,211.026 403.487,213.877 "/>
<polygon stroke="#FFFFFF" stroke-miterlimit="10" points="367.87,222.693 367.131,220.061 406.806,209.43 407.543,212.197 "/>
<polygon stroke="#FFFFFF" stroke-miterlimit="10" points="373.085,224.381 372.129,221.849 410.341,207.94 411.307,210.606 "/>
<polygon stroke="#FFFFFF" stroke-miterlimit="10" points="378.286,225.997 377.125,223.582 413.61,206.568 414.793,209.114 "/>
<polygon stroke="#FFFFFF" stroke-miterlimit="10" points="383.473,227.531 382.119,225.249 416.634,205.321 418.02,207.73 "/>
<polygon stroke="#FFFFFF" stroke-miterlimit="10" points="388.643,228.973 387.11,226.838 419.431,204.207 421.005,206.463 "/>
<polygon stroke="#FFFFFF" stroke-miterlimit="10" points="393.795,230.313 392.1,228.339 422.022,203.23 423.77,205.32 "/>
<polygon stroke="#FFFFFF" stroke-miterlimit="10" points="398.929,231.542 397.087,229.742 424.432,202.397 426.335,204.308 "/>
<polygon stroke="#FFFFFF" stroke-miterlimit="10" points="404.044,232.654 402.072,231.038 426.681,201.711 428.724,203.431 "/>
<polygon stroke="#FFFFFF" stroke-miterlimit="10" points="409.14,233.644 407.056,232.22 428.795,201.173 430.958,202.692 "/>
<polygon stroke="#FFFFFF" stroke-miterlimit="10" points="414.216,234.504 412.038,233.28 430.799,200.784 433.063,202.097 "/>
<polygon stroke="#FFFFFF" stroke-miterlimit="10" points="419.272,235.232 417.019,234.214 432.718,200.546 435.064,201.645 "/>
<polygon stroke="#FFFFFF" stroke-miterlimit="10" points="424.309,235.825 421.998,235.016 434.576,200.456 436.985,201.337 "/>
<polygon stroke="#FFFFFF" stroke-miterlimit="10" points="429.325,236.281 426.977,235.682 436.399,200.513 438.852,201.174 "/>
<polygon stroke="#FFFFFF" stroke-miterlimit="10" points="434.322,236.6 431.954,236.211 438.213,200.713 440.688,201.153 "/>
<polygon stroke="#FFFFFF" stroke-miterlimit="10" points="439.3,236.78 436.931,236.601 440.041,201.052 442.521,201.272 "/>
<polygon stroke="#FFFFFF" stroke-miterlimit="10" points="444.555,236.824 442.5,236.852 442.5,201.523 444.816,201.527 "/>
<polygon stroke="#FFFFFF" stroke-miterlimit="10" points="449.284,236.74 447.052,236.963 444.004,202.121 446.393,201.916 "/>
<polygon stroke="#FFFFFF" stroke-miterlimit="10" points="454.182,236.522 451.999,236.936 445.986,202.836 448.324,202.428 "/>
<polygon stroke="#FFFFFF" stroke-miterlimit="10" points="459.039,236.183 456.922,236.778 448.05,203.667 450.32,203.063 "/>
<polygon stroke="#FFFFFF" stroke-miterlimit="10" points="463.858,235.725 461.822,236.495 450.215,204.605 452.402,203.813 "/>
<polygon stroke="#FFFFFF" stroke-miterlimit="10" points="468.643,235.155 466.7,236.091 452.501,205.642 454.591,204.672 "/>
<polygon stroke="#FFFFFF" stroke-miterlimit="10" points="473.393,234.48 471.558,235.571 454.927,206.767 456.904,205.63 "/>
<polygon stroke="#FFFFFF" stroke-miterlimit="10" points="478.112,233.708 476.396,234.942 457.509,207.969 459.361,206.678 "/>
<polygon stroke="#FFFFFF" stroke-miterlimit="10" points="482.804,232.846 481.218,234.211 460.263,209.238 461.979,207.806 "/>
<polygon stroke="#FFFFFF" stroke-miterlimit="10" points="487.47,231.901 486.023,233.385 463.202,210.564 464.771,209.003 "/>
<polygon stroke="#FFFFFF" stroke-miterlimit="10" points="492.113,230.885 490.814,232.472 466.339,211.936 467.751,210.26 "/>
<polygon stroke="#FFFFFF" stroke-miterlimit="10" points="496.737,229.804 495.594,231.481 469.684,213.34 470.932,211.565 "/>
<polygon stroke="#FFFFFF" stroke-miterlimit="10" points="501.346,228.669 500.362,230.422 473.244,214.766 474.321,212.908 "/>
<polygon stroke="#FFFFFF" stroke-miterlimit="10" points="505.941,227.49 505.123,229.304 477.027,216.202 477.93,214.277 "/>
<polygon stroke="#FFFFFF" stroke-miterlimit="10" points="510.528,226.276 509.878,228.136 481.038,217.639 481.762,215.662 "/>
<polygon stroke="#FFFFFF" stroke-miterlimit="10" points="515.109,225.038 514.628,226.928 485.28,219.063 485.823,217.052 "/>
<polygon stroke="#FFFFFF" stroke-miterlimit="10" points="519.688,223.785 519.376,225.69 489.754,220.467 490.116,218.436 "/>
<polygon stroke="#FFFFFF" stroke-miterlimit="10" points="524.268,222.527 524.124,224.434 494.459,221.838 494.642,219.803 "/>
<polygon stroke="#FFFFFF" stroke-miterlimit="10" points="528.851,221.441 528.874,223.5 499.394,223.5 499.397,221.394 "/>
<polygon stroke="#FFFFFF" stroke-miterlimit="10" points="533.427,220.207 533.628,222.235 504.554,224.779 504.376,222.701 "/>
<polygon stroke="#FFFFFF" stroke-miterlimit="10" points="537.787,219.033 538.16,221.016 509.706,226.033 509.352,223.999 "/>
<polygon stroke="#FFFFFF" stroke-miterlimit="10" points="541.939,217.927 542.479,219.85 514.85,227.254 514.324,225.278 "/>
<polygon stroke="#FFFFFF" stroke-miterlimit="10" points="545.896,216.896 546.593,218.745 519.983,228.432 519.295,226.529 "/>
<polygon stroke="#FFFFFF" stroke-miterlimit="10" points="549.667,215.946 550.514,217.71 525.106,229.559 524.264,227.742 "/>
<polygon stroke="#FFFFFF" stroke-miterlimit="10" points="553.267,215.084 554.253,216.75 530.218,230.628 529.23,228.909 "/>
<polygon stroke="#FFFFFF" stroke-miterlimit="10" points="556.708,214.313 557.824,215.871 535.317,231.632 534.195,230.022 "/>
<polygon stroke="#FFFFFF" stroke-miterlimit="10" points="560.006,213.639 561.241,215.078 540.404,232.564 539.159,231.074 "/>
<polygon stroke="#FFFFFF" stroke-miterlimit="10" points="563.177,213.063 564.52,214.376 545.479,233.42 544.122,232.058 "/>
<polygon stroke="#FFFFFF" stroke-miterlimit="10" points="566.238,212.59 567.675,213.768 550.539,234.192 549.084,232.967 "/>
<polygon stroke="#FFFFFF" stroke-miterlimit="10" points="569.205,212.219 570.724,213.257 555.586,234.879 554.045,233.796 "/>
<polygon stroke="#FFFFFF" stroke-miterlimit="10" points="572.096,211.952 573.683,212.845 560.62,235.476 559.007,234.54 "/>
<polygon stroke="#FFFFFF" stroke-miterlimit="10" points="574.928,211.789 576.57,212.532 565.64,235.979 563.968,235.195 "/>
<polygon stroke="#FFFFFF" stroke-miterlimit="10" points="577.719,211.729 579.403,212.32 570.646,236.389 568.93,235.759 "/>
<polygon stroke="#FFFFFF" stroke-miterlimit="10" points="580.487,211.771 582.199,212.209 575.64,236.701 573.892,236.229 "/>
<polygon stroke="#FFFFFF" stroke-miterlimit="10" points="583.249,211.912 584.976,212.196 580.62,236.917 578.855,236.602 "/>
<polygon stroke="#FFFFFF" stroke-miterlimit="10" points="586.023,212.149 587.75,212.28 585.588,237.037 583.82,236.878 "/>
<polygon stroke="#FFFFFF" stroke-miterlimit="10" points="588.825,212.479 590.541,212.459 590.544,237.062 588.787,237.057 "/>
<polygon stroke="#FFFFFF" stroke-miterlimit="10" points="591.672,212.896 593.362,212.729 595.489,236.992 593.755,237.14 "/>
<polygon stroke="#FFFFFF" stroke-miterlimit="10" points="594.56,213.402 596.212,213.092 600.403,236.837 598.706,237.132 "/>
<polygon stroke="#FFFFFF" stroke-miterlimit="10" points="597.503,213.989 599.105,213.54 605.288,236.597 603.64,237.034 "/>
<polygon stroke="#FFFFFF" stroke-miterlimit="10" points="600.515,214.65 602.057,214.069 610.144,236.275 608.556,236.849 "/>
</svg>
