<?xml version="1.0" encoding="utf-8"?>
<!-- Generator: Adobe Illustrator 16.0.0, SVG Export Plug-In . SVG Version: 6.00 Build 0)  -->
<!DOCTYPE svg PUBLIC "-//W3C//DTD SVG 1.1//EN" "http://www.w3.org/Graphics/SVG/1.1/DTD/svg11.dtd">
<svg version="1.1" id="Ebene_1" xmlns="http://www.w3.org/2000/svg" xmlns:xlink="http://www.w3.org/1999/xlink" x="0px" y="0px"
	 width="600px" height="300px" viewBox="0 0 600 300" enable-background="new 0 0 600 300" xml:space="preserve">
<rect x="23.5" y="15.5" stroke="#FFFFFF" stroke-miterlimit="10" width="7" height="104"/>
<rect x="28.169" y="16.365" transform="matrix(0.9962 -0.0872 0.0872 0.9962 -5.7977 3.0181)" stroke="#FFFFFF" stroke-miterlimit="10" width="6.93" height="102.96"/>
<rect x="33.32" y="17.611" transform="matrix(0.9848 -0.1737 0.1737 0.9848 -11.3513 7.4246)" stroke="#FFFFFF" stroke-miterlimit="10" width="6.86" height="101.93"/>
<rect x="38.531" y="19.226" transform="matrix(0.9659 -0.2588 0.2588 0.9659 -16.6078 13.2273)" stroke="#FFFFFF" stroke-miterlimit="10" width="6.791" height="100.911"/>
<rect x="43.799" y="21.194" transform="matrix(0.9397 -0.342 0.342 0.9397 -21.4851 20.4154)" stroke="#FFFFFF" stroke-miterlimit="10" width="6.723" height="99.902"/>
<rect x="49.119" y="23.495" transform="matrix(0.9062 -0.4229 0.4229 0.9062 -25.9267 29.0214)" stroke="#FFFFFF" stroke-miterlimit="10" width="6.656" height="98.903"/>
<rect x="54.491" y="26.109" transform="matrix(0.8659 -0.5002 0.5002 0.8659 -29.8015 38.9737)" stroke="#FFFFFF" stroke-miterlimit="10" width="6.589" height="97.915"/>
<rect x="59.91" y="29.016" transform="matrix(0.819 -0.5738 0.5738 0.819 -33.0247 50.2684)" stroke="#FFFFFF" stroke-miterlimit="10" width="6.522" height="96.936"/>
<rect x="65.372" y="32.19" transform="matrix(0.7659 -0.6429 0.6429 0.7659 -35.4887 62.874)" stroke="#FFFFFF" stroke-miterlimit="10" width="6.457" height="95.966"/>
<rect x="70.872" y="35.605" transform="matrix(0.7069 -0.7073 0.7073 0.7069 -37.0745 76.7521)" stroke="#FFFFFF" stroke-miterlimit="10" width="6.392" height="95.007"/>
<rect x="76.408" y="39.235" transform="matrix(0.6426 -0.7662 0.7662 0.6426 -37.656 91.7993)" stroke="#FFFFFF" stroke-miterlimit="10" width="6.328" height="94.056"/>
<rect x="81.973" y="43.05" transform="matrix(0.5733 -0.8193 0.8193 0.5733 -37.106 107.9604)" stroke="#FFFFFF" stroke-miterlimit="10" width="6.265" height="93.116"/>
<rect x="87.563" y="47.021" transform="matrix(0.4998 -0.8662 0.8662 0.4998 -35.2975 125.1089)" stroke="#FFFFFF" stroke-miterlimit="10" width="6.202" height="92.185"/>
<rect x="93.175" y="51.118" transform="matrix(0.4223 -0.9065 0.9065 0.4223 -32.0983 143.1347)" stroke="#FFFFFF" stroke-miterlimit="10" width="6.14" height="91.263"/>
<rect x="98.801" y="55.312" transform="matrix(0.3417 -0.9398 0.9398 0.3417 -27.3974 161.8611)" stroke="#FFFFFF" stroke-miterlimit="10" width="6.079" height="90.35"/>
<rect x="104.44" y="59.572" transform="matrix(0.2585 -0.966 0.966 0.2585 -21.0769 181.1312)" stroke="#FFFFFF" stroke-miterlimit="10" width="6.018" height="89.446"/>
<rect x="110.084" y="63.867" transform="matrix(0.1734 -0.9848 0.9848 0.1734 -13.0497 200.7366)" stroke="#FFFFFF" stroke-miterlimit="10" width="5.957" height="88.552"/>
<rect x="115.729" y="68.166" transform="matrix(0.0869 -0.9962 0.9962 0.0869 -3.2132 220.4923)" stroke="#FFFFFF" stroke-miterlimit="10" width="5.898" height="87.667"/>
<rect x="81.5" y="112.5" stroke="#FFFFFF" stroke-miterlimit="10" width="87" height="6"/>
<rect x="127.215" y="76.232" transform="matrix(-0.0871 -0.9962 0.9962 -0.0871 22.6849 259.3802)" stroke="#FFFFFF" stroke-miterlimit="10" width="5.941" height="86.13"/>
<rect x="132.847" y="80.433" transform="matrix(-0.1737 -0.9848 0.9848 -0.1737 38.1783 278.1681)" stroke="#FFFFFF" stroke-miterlimit="10" width="5.88" height="85.268"/>
<rect x="138.469" y="84.577" transform="matrix(-0.259 -0.9659 0.9659 -0.259 55.5391 296.1768)" stroke="#FFFFFF" stroke-miterlimit="10" width="5.822" height="84.415"/>
<rect x="144.078" y="88.634" transform="matrix(-0.3422 -0.9396 0.9396 -0.3422 74.7099 313.1397)" stroke="#FFFFFF" stroke-miterlimit="10" width="5.764" height="83.572"/>
<rect x="149.67" y="92.58" transform="matrix(-0.4229 -0.9062 0.9062 -0.4229 95.641 328.8067)" stroke="#FFFFFF" stroke-miterlimit="10" width="5.706" height="82.736"/>
<rect x="155.24" y="96.391" transform="matrix(-0.5003 -0.8659 0.8659 -0.5003 118.2166 342.9176)" stroke="#FFFFFF" stroke-miterlimit="10" width="5.649" height="81.908"/>
<rect x="160.785" y="100.041" transform="matrix(-0.5738 -0.819 0.819 -0.5738 142.3194 355.2276)" stroke="#FFFFFF" stroke-miterlimit="10" width="5.594" height="81.089"/>
<rect x="166.302" y="103.51" transform="matrix(-0.6432 -0.7657 0.7657 -0.6432 167.814 365.5027)" stroke="#FFFFFF" stroke-miterlimit="10" width="5.538" height="80.28"/>
<polygon stroke="#FFFFFF" stroke-miterlimit="10" points="200.688,116.481 204.567,120.355 148.368,176.554 144.491,172.68 "/>
<rect x="177.238" y="109.83" transform="matrix(-0.7664 -0.6424 0.6424 -0.7664 222.0355 379.0916)" stroke="#FFFFFF" stroke-miterlimit="10" width="5.427" height="78.682"/>
<rect x="182.651" y="112.645" transform="matrix(-0.8194 -0.5732 0.5732 -0.8194 250.3191 382.0436)" stroke="#FFFFFF" stroke-miterlimit="10" width="5.374" height="77.895"/>
<rect x="188.025" y="115.212" transform="matrix(-0.8662 -0.4997 0.4997 -0.8662 279.0298 382.2451)" stroke="#FFFFFF" stroke-miterlimit="10" width="5.32" height="77.115"/>
<polygon stroke="#FFFFFF" stroke-miterlimit="10" points="209.737,119.984 214.511,122.207 182.246,191.398 177.473,189.175 "/>
<rect x="198.65" y="119.556" transform="matrix(-0.9399 -0.3416 0.3416 -0.9399 336.6608 373.974)" stroke="#FFFFFF" stroke-miterlimit="10" width="5.212" height="75.58"/>
<rect x="203.897" y="121.316" transform="matrix(-0.966 -0.2585 0.2585 -0.966 364.8966 365.4419)" stroke="#FFFFFF" stroke-miterlimit="10" width="5.16" height="74.825"/>
<rect x="209.099" y="122.794" transform="matrix(-0.9849 -0.1732 0.1732 -0.9849 392.4247 353.9061)" stroke="#FFFFFF" stroke-miterlimit="10" width="5.108" height="74.076"/>
<polygon stroke="#FFFFFF" stroke-miterlimit="10" points="217.46,123.906 222.498,124.344 216.107,197.401 211.067,196.963 "/>
<rect x="219.5" y="124.892" stroke="#FFFFFF" stroke-miterlimit="10" width="5" height="72.604"/>
<rect x="224.145" y="125.514" transform="matrix(-0.9962 0.0876 -0.0876 -0.9962 466.5098 302.4358)" stroke="#FFFFFF" stroke-miterlimit="10" width="4.951" height="71.877"/>
<rect x="229.254" y="126.402" transform="matrix(-0.9848 0.1739 -0.1739 -0.9848 488.05 281.1957)" stroke="#FFFFFF" stroke-miterlimit="10" width="4.902" height="71.158"/>
<rect x="234.404" y="127.55" transform="matrix(-0.9658 0.2592 -0.2592 -0.9658 507.7545 258.6062)" stroke="#FFFFFF" stroke-miterlimit="10" width="4.853" height="70.446"/>
<rect x="239.594" y="128.944" transform="matrix(-0.9396 0.3423 -0.3423 -0.9396 525.4454 234.908)" stroke="#FFFFFF" stroke-miterlimit="10" width="4.805" height="69.741"/>
<rect x="244.822" y="130.572" transform="matrix(-0.9062 0.4229 -0.4229 -0.9062 541.0255 210.1534)" stroke="#FFFFFF" stroke-miterlimit="10" width="4.757" height="69.043"/>
<rect x="250.085" y="132.419" transform="matrix(-0.8658 0.5004 -0.5004 -0.8658 554.3655 184.5129)" stroke="#FFFFFF" stroke-miterlimit="10" width="4.709" height="68.353"/>
<rect x="255.382" y="134.47" transform="matrix(-0.819 0.5738 -0.5738 -0.819 565.3513 158.2541)" stroke="#FFFFFF" stroke-miterlimit="10" width="4.661" height="67.67"/>
<rect x="260.708" y="136.707" transform="matrix(-0.7659 0.6429 -0.6429 -0.7659 573.8939 131.4585)" stroke="#FFFFFF" stroke-miterlimit="10" width="4.614" height="66.992"/>
<rect x="266.061" y="139.113" transform="matrix(-0.707 0.7072 -0.7072 -0.707 579.9009 104.2947)" stroke="#FFFFFF" stroke-miterlimit="10" width="4.569" height="66.322"/>
<rect x="271.439" y="141.668" transform="matrix(-0.6425 0.7663 -0.7663 -0.6425 583.2737 76.8957)" stroke="#FFFFFF" stroke-miterlimit="10" width="4.523" height="65.66"/>
<rect x="276.837" y="144.352" transform="matrix(-0.5733 0.8193 -0.8193 -0.5733 583.9799 49.596)" stroke="#FFFFFF" stroke-miterlimit="10" width="4.478" height="65.003"/>
<rect x="282.254" y="147.145" transform="matrix(-0.4997 0.8662 -0.8662 -0.4997 581.9557 22.5355)" stroke="#FFFFFF" stroke-miterlimit="10" width="4.432" height="64.353"/>
<rect x="287.684" y="150.026" transform="matrix(-0.4224 0.9064 -0.9064 -0.4224 577.178 -4.0453)" stroke="#FFFFFF" stroke-miterlimit="10" width="4.388" height="63.709"/>
<rect x="293.125" y="152.973" transform="matrix(-0.3417 0.9398 -0.9398 -0.3417 569.5973 -29.9756)" stroke="#FFFFFF" stroke-miterlimit="10" width="4.344" height="63.072"/>
<rect x="298.574" y="155.964" transform="matrix(-0.2584 0.966 -0.966 -0.2584 559.2656 -54.9503)" stroke="#FFFFFF" stroke-miterlimit="10" width="4.3" height="62.441"/>
<rect x="304.026" y="158.979" transform="matrix(-0.1732 0.9849 -0.9849 -0.1732 546.1912 -78.7592)" stroke="#FFFFFF" stroke-miterlimit="10" width="4.258" height="61.817"/>
<rect x="309.479" y="161.997" transform="matrix(-0.0866 0.9962 -0.9962 -0.0866 530.4528 -101.1348)" stroke="#FFFFFF" stroke-miterlimit="10" width="4.216" height="61.199"/>
<rect x="286.724" y="193.5" stroke="#FFFFFF" stroke-miterlimit="10" width="60.587" height="4"/>
<rect x="320.461" y="168.166" transform="matrix(0.0878 0.9961 -0.9961 0.0878 491.522 -140.4372)" stroke="#FFFFFF" stroke-miterlimit="10" width="3.96" height="59.981"/>
<rect x="325.901" y="171.107" transform="matrix(0.1741 0.9847 -0.9847 0.1741 468.5173 -157.0142)" stroke="#FFFFFF" stroke-miterlimit="10" width="3.921" height="59.381"/>
<rect x="331.337" y="174.006" transform="matrix(0.2592 0.9658 -0.9658 0.2592 443.3405 -171.2081)" stroke="#FFFFFF" stroke-miterlimit="10" width="3.881" height="58.787"/>
<rect x="336.762" y="176.846" transform="matrix(0.3423 0.9396 -0.9396 0.3423 416.2418 -182.7762)" stroke="#FFFFFF" stroke-miterlimit="10" width="3.843" height="58.199"/>
<rect x="342.175" y="179.609" transform="matrix(0.423 0.9061 -0.9061 0.423 387.3739 -191.5232)" stroke="#FFFFFF" stroke-miterlimit="10" width="3.804" height="57.617"/>
<rect x="347.573" y="182.277" transform="matrix(0.5003 0.8658 -0.8658 0.5003 357.1328 -197.2431)" stroke="#FFFFFF" stroke-miterlimit="10" width="3.767" height="57.04"/>
<polygon stroke="#FFFFFF" stroke-miterlimit="10" points="332.761,230.789 330.621,227.736 376.878,195.347 379.02,198.398 "/>
<polygon stroke="#FFFFFF" stroke-miterlimit="10" points="339.937,234.598 337.563,231.771 380.388,195.836 382.764,198.661 "/>
<polygon stroke="#FFFFFF" stroke-miterlimit="10" points="347.208,238.086 344.623,235.504 383.758,196.368 386.345,198.949 "/>
<polygon stroke="#FFFFFF" stroke-miterlimit="10" points="354.557,241.237 351.784,238.912 387.003,196.939 389.777,199.262 "/>
<polygon stroke="#FFFFFF" stroke-miterlimit="10" points="361.962,244.032 359.027,241.979 390.14,197.545 393.076,199.596 "/>
<rect x="379.522" y="195.467" transform="matrix(0.8661 0.4998 -0.4998 0.8661 162.1725 -160.8225)" stroke="#FFFFFF" stroke-miterlimit="10" width="3.546" height="53.701"/>
<rect x="384.755" y="197.085" transform="matrix(0.9065 0.4222 -0.4222 0.9065 130.5822 -142.281)" stroke="#FFFFFF" stroke-miterlimit="10" width="3.511" height="53.165"/>
<rect x="389.958" y="198.514" transform="matrix(0.9398 0.3417 -0.3417 0.9398 100.384 -120.295)" stroke="#FFFFFF" stroke-miterlimit="10" width="3.476" height="52.633"/>
<polygon stroke="#FFFFFF" stroke-miterlimit="10" points="391.77,251.414 388.445,250.525 401.932,200.193 405.256,201.08 "/>
<rect x="400.272" y="200.789" transform="matrix(0.9848 0.1735 -0.1735 0.9848 45.396 -66.2911)" stroke="#FFFFFF" stroke-miterlimit="10" width="3.406" height="51.586"/>
<rect x="405.381" y="201.628" transform="matrix(0.9962 0.0869 -0.0869 0.9962 21.2751 -34.5069)" stroke="#FFFFFF" stroke-miterlimit="10" width="3.372" height="51.07"/>
<polygon stroke="#FFFFFF" stroke-miterlimit="10" points="413.798,252.5 410.5,252.5 410.5,202.268 413.816,202.102 "/>
<polygon stroke="#FFFFFF" stroke-miterlimit="10" points="420.979,252.196 417.313,252.518 412.978,202.977 416.442,202.508 "/>
<polygon stroke="#FFFFFF" stroke-miterlimit="10" points="428.118,251.903 424.528,252.536 415.979,204.052 419.355,203.29 "/>
<polygon stroke="#FFFFFF" stroke-miterlimit="10" points="435.197,251.623 431.711,252.557 419.097,205.478 422.36,204.436 "/>
<polygon stroke="#FFFFFF" stroke-miterlimit="10" points="442.202,251.357 438.845,252.579 422.342,207.236 425.471,205.927 "/>
<polygon stroke="#FFFFFF" stroke-miterlimit="10" points="449.119,251.108 445.913,252.604 425.726,209.309 428.698,207.747 "/>
<polygon stroke="#FFFFFF" stroke-miterlimit="10" points="455.936,250.877 452.902,252.628 429.257,211.672 432.054,209.875 "/>
<polygon stroke="#FFFFFF" stroke-miterlimit="10" points="462.64,250.666 459.799,252.654 432.944,214.303 435.548,212.289 "/>
<polygon stroke="#FFFFFF" stroke-miterlimit="10" points="469.22,250.476 466.59,252.682 436.796,217.175 439.19,214.965 "/>
<polygon stroke="#FFFFFF" stroke-miterlimit="10" points="475.667,250.307 473.264,252.71 440.816,220.263 442.987,217.877 "/>
<polygon stroke="#FFFFFF" stroke-miterlimit="10" points="481.973,250.161 479.81,252.738 445.01,223.537 446.944,220.997 "/>
<polygon stroke="#FFFFFF" stroke-miterlimit="10" points="488.13,250.039 486.219,252.768 449.378,226.971 451.067,224.299 "/>
<polygon stroke="#FFFFFF" stroke-miterlimit="10" points="494.133,249.94 492.483,252.796 453.924,230.534 455.359,227.753 "/>
<polygon stroke="#FFFFFF" stroke-miterlimit="10" points="499.977,249.866 498.597,252.824 458.647,234.196 459.823,231.33 "/>
<polygon stroke="#FFFFFF" stroke-miterlimit="10" points="505.658,249.816 504.553,252.854 463.546,237.928 464.458,235 "/>
<polygon stroke="#FFFFFF" stroke-miterlimit="10" points="511.176,249.791 510.348,252.881 468.617,241.699 469.265,238.732 "/>
<polygon stroke="#FFFFFF" stroke-miterlimit="10" points="516.528,249.789 515.978,252.908 473.857,245.481 474.239,242.499 "/>
<polygon stroke="#FFFFFF" stroke-miterlimit="10" points="521.716,249.81 521.442,252.934 479.261,249.244 479.38,246.27 "/>
<polygon stroke="#FFFFFF" stroke-miterlimit="10" points="527.5,249.854 527.5,252.5 484.821,252.5 485.063,249.786 "/>
<polygon stroke="#FFFFFF" stroke-miterlimit="10" points="531.975,249.914 532.203,252.524 490.526,256.171 490.323,253.492 "/>
<polygon stroke="#FFFFFF" stroke-miterlimit="10" points="536.715,250.023 537.166,252.578 496.378,259.771 495.946,257.146 "/>
<polygon stroke="#FFFFFF" stroke-miterlimit="10" points="541.309,250.18 541.974,252.66 502.368,263.272 501.716,260.722 "/>
<polygon stroke="#FFFFFF" stroke-miterlimit="10" points="545.761,250.38 546.632,252.77 508.486,266.652 507.623,264.193 "/>
<polygon stroke="#FFFFFF" stroke-miterlimit="10" points="550.079,250.622 551.145,252.903 514.722,269.887 513.659,267.536 "/>
<polygon stroke="#FFFFFF" stroke-miterlimit="10" points="554.271,250.904 555.519,253.062 521.063,272.954 519.813,270.728 "/>
<polygon stroke="#FFFFFF" stroke-miterlimit="10" points="558.347,251.223 559.763,253.242 527.499,275.834 526.072,273.746 "/>
<polygon stroke="#FFFFFF" stroke-miterlimit="10" points="562.313,251.574 563.884,253.444 534.015,278.509 532.427,276.572 "/>
<polygon stroke="#FFFFFF" stroke-miterlimit="10" points="566.183,251.956 567.893,253.665 540.597,280.961 538.864,279.188 "/>
<polygon stroke="#FFFFFF" stroke-miterlimit="10" points="569.964,252.364 571.798,253.902 547.233,283.178 545.372,281.579 "/>
<polygon stroke="#FFFFFF" stroke-miterlimit="10" points="573.669,252.795 575.61,254.154 553.91,285.146 551.937,283.73 "/>
<polygon stroke="#FFFFFF" stroke-miterlimit="10" points="-40.079,138.957 -38.875,136.518 0.327,159.153 -1.006,161.462 "/>
</svg>
