<?xml version="1.0" encoding="utf-8"?>
<!-- Generator: Adobe Illustrator 16.0.0, SVG Export Plug-In . SVG Version: 6.00 Build 0)  -->
<!DOCTYPE svg PUBLIC "-//W3C//DTD SVG 1.1//EN" "http://www.w3.org/Graphics/SVG/1.1/DTD/svg11.dtd">
<svg version="1.1" id="Ebene_1" xmlns="http://www.w3.org/2000/svg" xmlns:xlink="http://www.w3.org/1999/xlink" x="0px" y="0px"
	 width="600px" height="300px" viewBox="0 0 600 300" enable-background="new 0 0 600 300" xml:space="preserve">
<rect x="6.5" y="184.5" stroke="#FFFFFF" stroke-miterlimit="10" width="7" height="104"/>
<rect x="10.575" y="184.675" transform="matrix(0.9962 -0.0872 0.0872 0.9962 -20.5438 2.1245)" stroke="#FFFFFF" stroke-miterlimit="10" width="6.931" height="102.96"/>
<rect x="15.493" y="184.458" transform="matrix(0.9848 -0.1737 0.1737 0.9848 -40.5988 6.8639)" stroke="#FFFFFF" stroke-miterlimit="10" width="6.86" height="101.93"/>
<rect x="20.351" y="183.863" transform="matrix(0.9659 -0.2588 0.2588 0.9659 -59.8344 14.1294)" stroke="#FFFFFF" stroke-miterlimit="10" width="6.792" height="100.911"/>
<rect x="25.152" y="182.904" transform="matrix(0.9397 -0.342 0.342 0.9397 -77.9172 23.7925)" stroke="#FFFFFF" stroke-miterlimit="10" width="6.722" height="99.902"/>
<rect x="29.898" y="181.603" transform="matrix(0.9063 -0.4226 0.4226 0.9063 -94.5369 35.6911)" stroke="#FFFFFF" stroke-miterlimit="10" width="6.655" height="98.903"/>
<rect x="34.593" y="179.976" transform="matrix(0.866 -0.5001 0.5001 0.866 -109.4165 49.6358)" stroke="#FFFFFF" stroke-miterlimit="10" width="6.588" height="97.915"/>
<rect x="39.24" y="178.049" transform="matrix(0.8192 -0.5736 0.5736 0.8192 -122.2354 65.3398)" stroke="#FFFFFF" stroke-miterlimit="10" width="6.521" height="96.935"/>
<rect x="43.844" y="175.844" transform="matrix(0.766 -0.6429 0.6429 0.766 -132.8733 82.6396)" stroke="#FFFFFF" stroke-miterlimit="10" width="6.456" height="95.966"/>
<rect x="48.409" y="173.388" transform="matrix(0.7071 -0.7071 0.7071 0.7071 -141.0793 101.1875)" stroke="#FFFFFF" stroke-miterlimit="10" width="6.392" height="95.006"/>
<rect x="52.937" y="170.708" transform="matrix(0.6426 -0.7662 0.7662 0.6426 -146.7803 120.8047)" stroke="#FFFFFF" stroke-miterlimit="10" width="6.328" height="94.057"/>
<rect x="57.434" y="167.834" transform="matrix(0.5735 -0.8192 0.8192 0.5735 -149.7947 141.0433)" stroke="#FFFFFF" stroke-miterlimit="10" width="6.266" height="93.115"/>
<rect x="61.907" y="164.794" transform="matrix(0.4998 -0.8662 0.8662 0.4998 -150.1423 161.8003)" stroke="#FFFFFF" stroke-miterlimit="10" width="6.202" height="92.184"/>
<rect x="66.358" y="161.619" transform="matrix(0.4224 -0.9064 0.9064 0.4224 -147.7508 182.6315)" stroke="#FFFFFF" stroke-miterlimit="10" width="6.14" height="91.261"/>
<rect x="70.791" y="158.337" transform="matrix(0.3418 -0.9398 0.9398 0.3418 -142.6591 203.3252)" stroke="#FFFFFF" stroke-miterlimit="10" width="6.079" height="90.349"/>
<rect x="75.215" y="154.981" transform="matrix(0.2587 -0.966 0.966 0.2587 -134.9184 223.6029)" stroke="#FFFFFF" stroke-miterlimit="10" width="6.017" height="89.446"/>
<rect x="79.631" y="151.581" transform="matrix(0.1734 -0.9848 0.9848 0.1734 -124.606 243.2466)" stroke="#FFFFFF" stroke-miterlimit="10" width="5.957" height="88.55"/>
<rect x="84.046" y="148.167" transform="matrix(0.0868 -0.9962 0.9962 0.0868 -111.8304 262.0057)" stroke="#FFFFFF" stroke-miterlimit="10" width="5.897" height="87.666"/>
<rect x="48.5" y="185.5" stroke="#FFFFFF" stroke-miterlimit="10" width="87" height="6"/>
<rect x="92.519" y="141.638" transform="matrix(-0.0875 -0.9962 0.9962 -0.0875 -80.1543 295.9823)" stroke="#FFFFFF" stroke-miterlimit="10" width="5.94" height="86.131"/>
<rect x="96.947" y="138.299" transform="matrix(-0.1737 -0.9848 0.9848 -0.1737 -60.9427 310.7314)" stroke="#FFFFFF" stroke-miterlimit="10" width="5.88" height="85.268"/>
<rect x="101.383" y="135.007" transform="matrix(-0.259 -0.9659 0.9659 -0.259 -39.8629 323.8497)" stroke="#FFFFFF" stroke-miterlimit="10" width="5.822" height="84.417"/>
<rect x="105.832" y="131.793" transform="matrix(-0.3422 -0.9396 0.9396 -0.3422 -17.1792 335.1341)" stroke="#FFFFFF" stroke-miterlimit="10" width="5.764" height="83.573"/>
<rect x="110.298" y="128.684" transform="matrix(-0.4227 -0.9062 0.9062 -0.4227 6.8764 344.4836)" stroke="#FFFFFF" stroke-miterlimit="10" width="5.706" height="82.736"/>
<rect x="114.785" y="125.702" transform="matrix(-0.5 -0.866 0.866 -0.5 32.0878 351.8363)" stroke="#FFFFFF" stroke-miterlimit="10" width="5.648" height="81.907"/>
<rect x="119.296" y="122.87" transform="matrix(-0.5738 -0.819 0.819 -0.5738 58.3152 357.1763)" stroke="#FFFFFF" stroke-miterlimit="10" width="5.592" height="81.089"/>
<rect x="123.835" y="120.211" transform="matrix(-0.6428 -0.7661 0.7661 -0.6428 85.1417 360.4039)" stroke="#FFFFFF" stroke-miterlimit="10" width="5.536" height="80.278"/>
<rect x="128.405" y="117.745" transform="matrix(-0.7071 -0.7071 0.7071 -0.7071 112.5222 361.574)" stroke="#FFFFFF" stroke-miterlimit="10" width="5.48" height="79.476"/>
<rect x="133.01" y="115.49" transform="matrix(-0.766 -0.6429 0.6429 -0.766 140.1469 360.6781)" stroke="#FFFFFF" stroke-miterlimit="10" width="5.426" height="78.681"/>
<rect x="137.65" y="113.461" transform="matrix(-0.8192 -0.5736 0.5736 -0.8192 167.8791 357.7456)" stroke="#FFFFFF" stroke-miterlimit="10" width="5.372" height="77.893"/>
<rect x="142.328" y="111.673" transform="matrix(-0.8662 -0.4997 0.4997 -0.8662 195.4972 352.812)" stroke="#FFFFFF" stroke-miterlimit="10" width="5.319" height="77.115"/>
<rect x="147.049" y="110.138" transform="matrix(-0.9063 -0.4226 0.4226 -0.9063 222.6736 345.9772)" stroke="#FFFFFF" stroke-miterlimit="10" width="5.265" height="76.344"/>
<rect x="151.811" y="108.864" transform="matrix(-0.9398 -0.3417 0.3417 -0.9398 249.419 337.25)" stroke="#FFFFFF" stroke-miterlimit="10" width="5.212" height="75.581"/>
<rect x="156.615" y="107.859" transform="matrix(-0.966 -0.2586 0.2586 -0.966 275.4069 326.7735)" stroke="#FFFFFF" stroke-miterlimit="10" width="5.162" height="74.826"/>
<rect x="161.464" y="107.13" transform="matrix(-0.9849 -0.1733 0.1733 -0.9849 300.5699 314.5834)" stroke="#FFFFFF" stroke-miterlimit="10" width="5.111" height="74.078"/>
<rect x="166.361" y="106.678" transform="matrix(-0.9962 -0.0869 0.0869 -0.9962 324.6868 300.8244)" stroke="#FFFFFF" stroke-miterlimit="10" width="5.058" height="73.338"/>
<rect x="172.5" y="106.505" stroke="#FFFFFF" stroke-miterlimit="10" width="5" height="72.996"/>
<rect x="176.578" y="106.611" transform="matrix(-0.9962 0.0874 -0.0874 -0.9962 369.8965 269.2952)" stroke="#FFFFFF" stroke-miterlimit="10" width="4.951" height="72.266"/>
<rect x="181.517" y="106.442" transform="matrix(-0.9848 0.1739 -0.1739 -0.9848 389.8639 250.2694)" stroke="#FFFFFF" stroke-miterlimit="10" width="4.903" height="71.543"/>
<rect x="186.416" y="106.005" transform="matrix(-0.9659 0.259 -0.259 -0.9659 407.8671 229.1061)" stroke="#FFFFFF" stroke-miterlimit="10" width="4.853" height="70.827"/>
<rect x="191.274" y="105.313" transform="matrix(-0.9396 0.3423 -0.3423 -0.9396 423.7036 205.9636)" stroke="#FFFFFF" stroke-miterlimit="10" width="4.804" height="70.119"/>
<rect x="196.094" y="104.379" transform="matrix(-0.9061 0.4231 -0.4231 -0.9061 437.1502 181.1498)" stroke="#FFFFFF" stroke-miterlimit="10" width="4.755" height="69.419"/>
<rect x="200.877" y="103.217" transform="matrix(-0.8658 0.5003 -0.5003 -0.8658 448.0295 155.0168)" stroke="#FFFFFF" stroke-miterlimit="10" width="4.708" height="68.724"/>
<rect x="205.625" y="101.844" transform="matrix(-0.819 0.5737 -0.5737 -0.819 456.2292 127.824)" stroke="#FFFFFF" stroke-miterlimit="10" width="4.662" height="68.036"/>
<rect x="210.344" y="100.276" transform="matrix(-0.7659 0.643 -0.643 -0.7659 461.6477 99.8203)" stroke="#FFFFFF" stroke-miterlimit="10" width="4.616" height="67.356"/>
<rect x="215.035" y="98.532" transform="matrix(-0.707 0.7072 -0.7072 -0.707 464.2261 71.4153)" stroke="#FFFFFF" stroke-miterlimit="10" width="4.569" height="66.682"/>
<rect x="219.701" y="96.63" transform="matrix(-0.6425 0.7663 -0.7663 -0.6425 463.9183 42.8559)" stroke="#FFFFFF" stroke-miterlimit="10" width="4.523" height="66.016"/>
<rect x="224.347" y="94.593" transform="matrix(-0.5732 0.8194 -0.8194 -0.5732 460.7502 14.5494)" stroke="#FFFFFF" stroke-miterlimit="10" width="4.477" height="65.355"/>
<rect x="228.974" y="92.438" transform="matrix(-0.4997 0.8662 -0.8662 -0.4997 454.815 -13.0999)" stroke="#FFFFFF" stroke-miterlimit="10" width="4.432" height="64.701"/>
<rect x="233.585" y="90.19" transform="matrix(-0.4224 0.9064 -0.9064 -0.4224 446.1488 -39.874)" stroke="#FFFFFF" stroke-miterlimit="10" width="4.388" height="64.054"/>
<rect x="238.185" y="87.868" transform="matrix(-0.3417 0.9398 -0.9398 -0.3417 434.8601 -65.4614)" stroke="#FFFFFF" stroke-miterlimit="10" width="4.344" height="63.414"/>
<rect x="242.779" y="85.495" transform="matrix(-0.2584 0.966 -0.966 -0.2584 421.1394 -89.5173)" stroke="#FFFFFF" stroke-miterlimit="10" width="4.3" height="62.78"/>
<rect x="247.366" y="83.092" transform="matrix(-0.1734 0.9849 -0.9849 -0.1734 405.1954 -111.7509)" stroke="#FFFFFF" stroke-miterlimit="10" width="4.258" height="62.153"/>
<rect x="251.953" y="80.68" transform="matrix(-0.0871 0.9962 -0.9962 -0.0871 387.2138 -131.941)" stroke="#FFFFFF" stroke-miterlimit="10" width="4.215" height="61.531"/>
<rect x="228.171" y="106.5" stroke="#FFFFFF" stroke-miterlimit="10" width="61.33" height="4"/>
<rect x="260.981" y="75.939" transform="matrix(0.0878 0.9961 -0.9961 0.0878 345.3201 -165.3872)" stroke="#FFFFFF" stroke-miterlimit="10" width="3.961" height="59.821"/>
<rect x="265.581" y="73.605" transform="matrix(0.1744 0.9847 -0.9847 0.1744 322.526 -178.2234)" stroke="#FFFFFF" stroke-miterlimit="10" width="3.92" height="59.224"/>
<rect x="270.185" y="71.306" transform="matrix(0.2591 0.9658 -0.9658 0.2591 298.7928 -188.2838)" stroke="#FFFFFF" stroke-miterlimit="10" width="3.882" height="58.631"/>
<rect x="274.801" y="69.058" transform="matrix(0.3426 0.9395 -0.9395 0.3426 274.0494 -195.4962)" stroke="#FFFFFF" stroke-miterlimit="10" width="3.842" height="58.046"/>
<rect x="279.425" y="66.884" transform="matrix(0.4231 0.9061 -0.9061 0.4231 248.9259 -199.7439)" stroke="#FFFFFF" stroke-miterlimit="10" width="3.804" height="57.464"/>
<rect x="284.066" y="64.797" transform="matrix(0.5009 0.8655 -0.8655 0.5009 223.4077 -200.9506)" stroke="#FFFFFF" stroke-miterlimit="10" width="3.766" height="56.892"/>
<rect x="288.723" y="62.816" transform="matrix(0.5743 0.8187 -0.8187 0.5743 198.1969 -199.1641)" stroke="#FFFFFF" stroke-miterlimit="10" width="3.728" height="56.321"/>
<rect x="293.4" y="60.954" transform="matrix(0.6435 0.7655 -0.7655 0.6435 173.2582 -194.3277)" stroke="#FFFFFF" stroke-miterlimit="10" width="3.691" height="55.759"/>
<rect x="298.098" y="59.227" transform="matrix(0.7076 0.7066 -0.7066 0.7076 149.0357 -186.5337)" stroke="#FFFFFF" stroke-miterlimit="10" width="3.654" height="55.201"/>
<rect x="302.82" y="57.646" transform="matrix(0.7666 0.6421 -0.6421 0.7666 125.67 -175.7827)" stroke="#FFFFFF" stroke-miterlimit="10" width="3.618" height="54.65"/>
<rect x="307.567" y="56.223" transform="matrix(0.8199 0.5724 -0.5724 0.8199 103.3699 -162.0946)" stroke="#FFFFFF" stroke-miterlimit="10" width="3.583" height="54.103"/>
<rect x="312.342" y="54.969" transform="matrix(0.8665 0.4991 -0.4991 0.8665 82.7218 -145.8652)" stroke="#FFFFFF" stroke-miterlimit="10" width="3.545" height="53.561"/>
<rect x="317.144" y="53.889" transform="matrix(0.9069 0.4214 -0.4214 0.9069 63.5878 -126.9075)" stroke="#FFFFFF" stroke-miterlimit="10" width="3.511" height="53.027"/>
<rect x="321.976" y="52.993" transform="matrix(0.94 0.3411 -0.3411 0.94 46.4365 -105.6566)" stroke="#FFFFFF" stroke-miterlimit="10" width="3.476" height="52.496"/>
<rect x="326.838" y="52.284" transform="matrix(0.9663 0.2576 -0.2576 0.9663 31.2493 -81.993)" stroke="#FFFFFF" stroke-miterlimit="10" width="3.442" height="51.971"/>
<rect x="331.731" y="51.768" transform="matrix(0.985 0.1726 -0.1726 0.985 18.3761 -56.3798)" stroke="#FFFFFF" stroke-miterlimit="10" width="3.407" height="51.45"/>
<rect x="336.656" y="51.445" transform="matrix(0.9963 0.0863 -0.0863 0.9963 7.8951 -28.8971)" stroke="#FFFFFF" stroke-miterlimit="10" width="3.374" height="50.936"/>
<rect x="342.5" y="51.499" stroke="#FFFFFF" stroke-miterlimit="10" width="3" height="50.244"/>
<rect x="346.582" y="51.577" transform="matrix(0.9961 -0.0881 0.0881 0.9961 -5.3819 30.9637)" stroke="#FFFFFF" stroke-miterlimit="10" width="2.971" height="49.742"/>
<rect x="351.54" y="51.465" transform="matrix(0.9846 -0.1747 0.1747 0.9846 -7.8641 62.8529)" stroke="#FFFFFF" stroke-miterlimit="10" width="2.94" height="49.244"/>
<rect x="356.468" y="51.166" transform="matrix(0.9656 -0.26 0.26 0.9656 -7.3311 95.6661)" stroke="#FFFFFF" stroke-miterlimit="10" width="2.911" height="48.753"/>
<rect x="361.367" y="50.692" transform="matrix(0.9393 -0.343 0.343 0.9393 -3.6539 128.9906)" stroke="#FFFFFF" stroke-miterlimit="10" width="2.884" height="48.265"/>
<rect x="366.24" y="50.049" transform="matrix(0.9059 -0.4235 0.4235 0.9059 3.2875 162.6739)" stroke="#FFFFFF" stroke-miterlimit="10" width="2.855" height="47.782"/>
<rect x="371.088" y="49.248" transform="matrix(0.8654 -0.5011 0.5011 0.8654 13.615 196.4808)" stroke="#FFFFFF" stroke-miterlimit="10" width="2.826" height="47.304"/>
<rect x="375.912" y="48.3" transform="matrix(0.8186 -0.5744 0.5744 0.8186 27.2513 229.7181)" stroke="#FFFFFF" stroke-miterlimit="10" width="2.799" height="46.83"/>
<rect x="380.716" y="47.216" transform="matrix(0.7653 -0.6436 0.6436 0.7653 44.3593 262.4586)" stroke="#FFFFFF" stroke-miterlimit="10" width="2.769" height="46.363"/>
<rect x="385.501" y="46.01" transform="matrix(0.7062 -0.708 0.708 0.7062 64.8337 294.1628)" stroke="#FFFFFF" stroke-miterlimit="10" width="2.741" height="45.9"/>
<rect x="390.268" y="44.695" transform="matrix(0.6419 -0.7668 0.7668 0.6419 88.5421 324.4281)" stroke="#FFFFFF" stroke-miterlimit="10" width="2.714" height="45.441"/>
<rect x="395.019" y="43.283" transform="matrix(0.5722 -0.8201 0.8201 0.5722 115.6213 353.2043)" stroke="#FFFFFF" stroke-miterlimit="10" width="2.686" height="44.988"/>
<rect x="399.759" y="41.792" transform="matrix(0.4987 -0.8667 0.8667 0.4987 145.5222 379.7536)" stroke="#FFFFFF" stroke-miterlimit="10" width="2.659" height="44.537"/>
<rect x="404.488" y="40.235" transform="matrix(0.4214 -0.9069 0.9069 0.4214 178.3316 404.0595)" stroke="#FFFFFF" stroke-miterlimit="10" width="2.633" height="44.092"/>
<polygon stroke="#FFFFFF" stroke-miterlimit="10" points="431.465,66.691 430.578,69.143 389.559,54.213 390.449,51.765 "/>
<rect x="413.925" y="36.982" transform="matrix(0.2575 -0.9663 0.9663 0.2575 251.6937 444.7201)" stroke="#FFFFFF" stroke-miterlimit="10" width="2.579" height="43.215"/>
<polygon stroke="#FFFFFF" stroke-miterlimit="10" points="441.199,59.163 440.76,61.68 398.627,54.25 399.072,51.735 "/>
<rect x="423.349" y="33.643" transform="matrix(0.0857 -0.9963 0.9963 0.0857 333.5928 473.1706)" stroke="#FFFFFF" stroke-miterlimit="10" width="2.529" height="42.355"/>
<rect x="409.498" y="51.5" stroke="#FFFFFF" stroke-miterlimit="10" width="40.781" height="3"/>
<polygon stroke="#FFFFFF" stroke-miterlimit="10" points="454.566,47.881 454.83,50.84 413.717,54.436 413.459,51.478 "/>
<rect x="437.38" y="28.9" transform="matrix(-0.1747 -0.9846 0.9846 -0.1747 466.9383 490.0471)" stroke="#FFFFFF" stroke-miterlimit="10" width="2.941" height="40.855"/>
<rect x="442.106" y="27.296" transform="matrix(-0.2603 -0.9655 0.9655 -0.2603 513.1168 488.1628)" stroke="#FFFFFF" stroke-miterlimit="10" width="2.912" height="40.447"/>
<polygon stroke="#FFFFFF" stroke-miterlimit="10" points="466.598,37.547 467.588,40.254 429.961,53.949 428.975,51.242 "/>
<polygon stroke="#FFFFFF" stroke-miterlimit="10" points="470.363,34.358 471.574,36.942 435.646,53.696 434.439,51.111 "/>
<polygon stroke="#FFFFFF" stroke-miterlimit="10" points="474.025,31.334 475.441,33.778 441.455,53.402 440.041,50.956 "/>
<polygon stroke="#FFFFFF" stroke-miterlimit="10" points="477.596,28.495 479.203,30.783 447.377,53.068 445.771,50.779 "/>
<polygon stroke="#FFFFFF" stroke-miterlimit="10" points="481.088,25.858 482.871,27.977 453.406,52.701 451.625,50.581 "/>
<rect x="470.652" y="18.831" transform="matrix(-0.7078 -0.7064 0.7064 -0.7078 779.3774 398.1098)" stroke="#FFFFFF" stroke-miterlimit="10" width="2.74" height="38.079"/>
<rect x="475.458" y="17.715" transform="matrix(-0.7666 -0.6421 0.6421 -0.7666 818.8749 370.7554)" stroke="#FFFFFF" stroke-miterlimit="10" width="2.713" height="37.699"/>
<rect x="480.281" y="16.708" transform="matrix(-0.8197 -0.5728 0.5728 -0.8197 856.1576 340.2247)" stroke="#FFFFFF" stroke-miterlimit="10" width="2.685" height="37.321"/>
<rect x="485.123" y="15.816" transform="matrix(-0.8664 -0.4993 0.4993 -0.8664 890.7949 306.9035)" stroke="#FFFFFF" stroke-miterlimit="10" width="2.658" height="36.947"/>
<polygon stroke="#FFFFFF" stroke-miterlimit="10" points="497.836,16.204 500.221,17.313 484.764,50.465 482.375,49.354 "/>
<polygon stroke="#FFFFFF" stroke-miterlimit="10" points="501.135,15.049 503.584,15.938 491.199,49.966 488.748,49.076 "/>
<rect x="499.766" y="13.887" transform="matrix(-0.9662 -0.2578 0.2578 -0.9662 976.9691 191.7345)" stroke="#FFFFFF" stroke-miterlimit="10" width="2.579" height="35.851"/>
<rect x="504.691" y="13.505" transform="matrix(-0.985 -0.1726 0.1726 -0.985 998.9479 149.356)" stroke="#FFFFFF" stroke-miterlimit="10" width="2.552" height="35.492"/>
<rect x="509.634" y="13.258" transform="matrix(-0.9963 -0.0861 0.0861 -0.9963 1017.2445 105.5339)" stroke="#FFFFFF" stroke-miterlimit="10" width="2.529" height="35.138"/>
<rect x="515.5" y="13.146" stroke="#FFFFFF" stroke-miterlimit="10" width="3" height="34.786"/>
<polygon stroke="#FFFFFF" stroke-miterlimit="10" points="518.088,13.344 521.047,13.082 524.047,47.389 521.09,47.65 "/>
<rect x="524.549" y="13.015" transform="matrix(-0.9846 0.1746 -0.1746 -0.9846 1049.2068 -32.1897)" stroke="#FFFFFF" stroke-miterlimit="10" width="2.942" height="34.094"/>
<rect x="529.494" y="12.756" transform="matrix(-0.9657 0.2595 -0.2595 -0.9657 1051.3967 -79.5539)" stroke="#FFFFFF" stroke-miterlimit="10" width="2.912" height="33.753"/>
<rect x="534.422" y="12.373" transform="matrix(-0.9394 0.3429 -0.3429 -0.9394 1049.2034 -127.3704)" stroke="#FFFFFF" stroke-miterlimit="10" width="2.882" height="33.416"/>
<polygon stroke="#FFFFFF" stroke-miterlimit="10" points="532.475,14.029 535.059,12.82 549.039,42.803 546.455,44.01 "/>
<rect x="544.22" y="11.269" transform="matrix(-0.8655 0.5009 -0.5009 -0.8655 1031.7395 -221.7144)" stroke="#FFFFFF" stroke-miterlimit="10" width="2.825" height="32.751"/>
<rect x="549.095" y="10.561" transform="matrix(-0.8188 0.5741 -0.5741 -0.8188 1016.5944 -267.3547)" stroke="#FFFFFF" stroke-miterlimit="10" width="2.798" height="32.423"/>
<rect x="553.956" y="9.763" transform="matrix(-0.7656 0.6433 -0.6433 -0.7656 997.1227 -311.6765)" stroke="#FFFFFF" stroke-miterlimit="10" width="2.77" height="32.098"/>
<rect x="558.806" y="8.88" transform="matrix(-0.7064 0.7078 -0.7078 -0.7064 973.4127 -354.2366)" stroke="#FFFFFF" stroke-miterlimit="10" width="2.74" height="31.778"/>
<rect x="563.64" y="7.925" transform="matrix(-0.6421 0.7666 -0.7666 -0.6421 945.9131 -394.2972)" stroke="#FFFFFF" stroke-miterlimit="10" width="2.713" height="31.46"/>
<polygon stroke="#FFFFFF" stroke-miterlimit="10" points="556.285,14.648 557.822,12.446 583.336,30.311 581.797,32.514 "/>
<polygon stroke="#FFFFFF" stroke-miterlimit="10" points="560.6,14.696 561.926,12.392 588.629,27.809 587.301,30.114 "/>
<polygon stroke="#FFFFFF" stroke-miterlimit="10" points="565.023,14.728 566.135,12.34 593.799,25.241 592.689,27.629 "/>
<polygon stroke="#FFFFFF" stroke-miterlimit="10" points="569.561,14.742 570.449,12.293 598.846,22.629 597.959,25.08 "/>
<polygon stroke="#FFFFFF" stroke-miterlimit="10" points="574.213,14.742 574.877,12.248 603.775,19.992 603.111,22.486 "/>
<polygon stroke="#FFFFFF" stroke-miterlimit="10" points="578.979,14.725 579.418,12.209 608.586,17.354 608.146,19.869 "/>
<polygon stroke="#FFFFFF" stroke-miterlimit="10" points="583.857,14.693 584.072,12.174 613.283,14.73 613.066,17.25 "/>
<polygon stroke="#FFFFFF" stroke-miterlimit="10" points="588.848,14.5 588.844,12.5 617.873,12.5 617.877,14.5 "/>
<polygon stroke="#FFFFFF" stroke-miterlimit="10" points="593.928,14.442 593.75,12.471 622.379,9.966 622.557,11.938 "/>
</svg>
