<?xml version="1.0" encoding="utf-8"?>
<!-- Generator: Adobe Illustrator 16.0.0, SVG Export Plug-In . SVG Version: 6.00 Build 0)  -->
<!DOCTYPE svg PUBLIC "-//W3C//DTD SVG 1.1//EN" "http://www.w3.org/Graphics/SVG/1.1/DTD/svg11.dtd">
<svg version="1.1" id="Ebene_1" xmlns="http://www.w3.org/2000/svg" xmlns:xlink="http://www.w3.org/1999/xlink" x="0px" y="0px"
	 width="600px" height="300px" viewBox="0 0 600 300" enable-background="new 0 0 600 300" xml:space="preserve">
<rect x="49.72" y="199.553" fill="#010202" stroke="#000000" stroke-miterlimit="10" width="74.197" height="74.201"/>
<rect x="73.43" y="193.263" fill="#010202" stroke="#FFFFFF" stroke-miterlimit="10" width="66.777" height="66.781"/>
<rect x="96.769" y="186.602" fill="#2E2E2F" stroke="#FFFFFF" stroke-miterlimit="10" width="60.1" height="60.104"/>
<rect x="119.773" y="179.606" fill="#2E2E2F" stroke="#FFFFFF" stroke-miterlimit="10" width="54.09" height="54.094"/>
<rect x="142.478" y="172.312" fill="#2E2E2F" stroke="#FFFFFF" stroke-miterlimit="10" width="48.681" height="48.684"/>
<rect x="164.912" y="164.746" fill="#2E2E2F" stroke="#FFFFFF" stroke-miterlimit="10" width="43.813" height="43.814"/>
<rect x="187.103" y="156.937" fill="#2E2E2F" stroke="#FFFFFF" stroke-miterlimit="10" width="39.432" height="39.434"/>
<rect x="209.074" y="148.908" fill="#2E2E2F" stroke="#FFFFFF" stroke-miterlimit="10" width="35.488" height="35.49"/>
<rect x="230.849" y="140.683" fill="#2E2E2F" stroke="#FFFFFF" stroke-miterlimit="10" width="31.938" height="31.941"/>
<rect x="252.445" y="132.279" fill="#2E2E2F" stroke="#FFFFFF" stroke-miterlimit="10" width="28.746" height="28.748"/>
<rect x="273.883" y="123.717" fill="#2E2E2F" stroke="#FFFFFF" stroke-miterlimit="10" width="25.871" height="25.873"/>
<rect x="295.176" y="115.011" fill="#2E2E2F" stroke="#FFFFFF" stroke-miterlimit="10" width="23.283" height="23.285"/>
<rect x="316.34" y="106.175" fill="#2E2E2F" stroke="#FFFFFF" stroke-miterlimit="10" width="20.955" height="20.957"/>
<rect x="337.389" y="97.223" fill="#2E2E2F" stroke="#FFFFFF" stroke-miterlimit="10" width="18.859" height="18.861"/>
<rect x="358.332" y="88.166" fill="#2E2E2F" stroke="#FFFFFF" stroke-miterlimit="10" width="16.973" height="16.975"/>
<rect x="379.18" y="79.015" fill="#2E2E2F" stroke="#FFFFFF" stroke-miterlimit="10" width="15.275" height="15.277"/>
<rect x="399.943" y="69.778" fill="#2E2E2F" stroke="#FFFFFF" stroke-miterlimit="10" width="13.748" height="13.75"/>
<rect x="420.631" y="60.466" fill="#2E2E2F" stroke="#FFFFFF" stroke-miterlimit="10" width="12.373" height="12.375"/>
<rect x="441.25" y="51.085" fill="#2E2E2F" stroke="#FFFFFF" stroke-miterlimit="10" width="11.135" height="11.137"/>
<rect x="461.807" y="41.642" fill="#2E2E2F" stroke="#FFFFFF" stroke-miterlimit="10" width="10.021" height="10.023"/>
<rect x="482.309" y="32.143" fill="#2E2E2F" stroke="#FFFFFF" stroke-miterlimit="10" width="9.02" height="9.021"/>
<rect x="502.76" y="22.594" fill="#2E2E2F" stroke="#FFFFFF" stroke-miterlimit="10" width="8.117" height="8.119"/>
<rect x="523.166" y="13" fill="#2E2E2F" stroke="#FFFFFF" stroke-miterlimit="10" width="7.305" height="7.307"/>
</svg>
