<?xml version="1.0" encoding="utf-8"?>
<!-- Generator: Adobe Illustrator 16.0.0, SVG Export Plug-In . SVG Version: 6.00 Build 0)  -->
<!DOCTYPE svg PUBLIC "-//W3C//DTD SVG 1.1//EN" "http://www.w3.org/Graphics/SVG/1.1/DTD/svg11.dtd">
<svg version="1.1" id="Ebene_1" xmlns="http://www.w3.org/2000/svg" xmlns:xlink="http://www.w3.org/1999/xlink" x="0px" y="0px"
	 width="600px" height="200px" viewBox="0 0 600 200" enable-background="new 0 0 600 200" xml:space="preserve">
<rect x="170.668" y="62.899" fill="#010202" stroke="#000000" stroke-miterlimit="10" width="74.197" height="74.201"/>
<rect x="199.942" y="72.175" fill="#010202" stroke="#FFFFFF" stroke-miterlimit="10" width="55.648" height="55.65"/>
<rect x="226.898" y="79.131" fill="#2E2E2F" stroke="#FFFFFF" stroke-miterlimit="10" width="41.736" height="41.738"/>
<rect x="252.115" y="84.349" fill="#2E2E2F" stroke="#FFFFFF" stroke-miterlimit="10" width="31.303" height="31.303"/>
<rect x="276.028" y="88.262" fill="#2E2E2F" stroke="#FFFFFF" stroke-miterlimit="10" width="23.477" height="23.477"/>
<rect x="298.963" y="91.196" fill="#2E2E2F" stroke="#FFFFFF" stroke-miterlimit="10" width="17.607" height="17.607"/>
<rect x="321.164" y="93.397" fill="#2E2E2F" stroke="#FFFFFF" stroke-miterlimit="10" width="13.205" height="13.205"/>
<rect x="342.814" y="95.048" fill="#2E2E2F" stroke="#FFFFFF" stroke-miterlimit="10" width="9.904" height="9.904"/>
<rect x="364.053" y="96.286" fill="#2E2E2F" stroke="#FFFFFF" stroke-miterlimit="10" width="7.428" height="7.428"/>
<rect x="384.981" y="97.215" fill="#2E2E2F" stroke="#FFFFFF" stroke-miterlimit="10" width="5.57" height="5.57"/>
<rect x="405.677" y="97.911" fill="#2E2E2F" stroke="#FFFFFF" stroke-miterlimit="10" width="4.178" height="4.178"/>
<rect x="426.2" y="98.434" fill="#2E2E2F" stroke="#FFFFFF" stroke-miterlimit="10" width="3.133" height="3.133"/>
<rect x="412.604" y="92.225" fill="#2E2E2F" stroke="#FFFFFF" stroke-miterlimit="10" width="2.35" height="2.35"/>
<rect x="432.898" y="92.519" fill="#2E2E2F" stroke="#FFFFFF" stroke-miterlimit="10" width="1.762" height="1.762"/>
</svg>
