<?xml version="1.0" encoding="utf-8"?>
<!-- Generator: Adobe Illustrator 16.0.0, SVG Export Plug-In . SVG Version: 6.00 Build 0)  -->
<!DOCTYPE svg PUBLIC "-//W3C//DTD SVG 1.1//EN" "http://www.w3.org/Graphics/SVG/1.1/DTD/svg11.dtd">
<svg version="1.1" id="Ebene_1" xmlns="http://www.w3.org/2000/svg" xmlns:xlink="http://www.w3.org/1999/xlink" x="0px" y="0px"
	 width="600px" height="200px" viewBox="0 0 600 200" enable-background="new 0 0 600 200" xml:space="preserve">
<rect x="262.719" y="20.439" fill="#010202" stroke="#000000" stroke-miterlimit="10" width="74.197" height="74.201"/>
<rect x="271.993" y="39.715" fill="#010202" stroke="#FFFFFF" stroke-miterlimit="10" width="55.648" height="55.65"/>
<rect x="278.949" y="56.671" fill="#2E2E2F" stroke="#FFFFFF" stroke-miterlimit="10" width="41.736" height="41.738"/>
<rect x="284.166" y="71.889" fill="#2E2E2F" stroke="#FFFFFF" stroke-miterlimit="10" width="31.303" height="31.303"/>
<rect x="288.079" y="85.802" fill="#2E2E2F" stroke="#FFFFFF" stroke-miterlimit="10" width="23.477" height="23.477"/>
<rect x="291.014" y="98.736" fill="#2E2E2F" stroke="#FFFFFF" stroke-miterlimit="10" width="17.607" height="17.607"/>
<rect x="293.215" y="110.938" fill="#2E2E2F" stroke="#FFFFFF" stroke-miterlimit="10" width="13.205" height="13.205"/>
<rect x="294.865" y="122.588" fill="#2E2E2F" stroke="#FFFFFF" stroke-miterlimit="10" width="9.904" height="9.904"/>
<rect x="296.104" y="133.826" fill="#2E2E2F" stroke="#FFFFFF" stroke-miterlimit="10" width="7.428" height="7.428"/>
<rect x="297.032" y="144.755" fill="#2E2E2F" stroke="#FFFFFF" stroke-miterlimit="10" width="5.57" height="5.57"/>
<rect x="297.729" y="155.451" fill="#2E2E2F" stroke="#FFFFFF" stroke-miterlimit="10" width="4.178" height="4.178"/>
<rect x="298.251" y="165.974" fill="#2E2E2F" stroke="#FFFFFF" stroke-miterlimit="10" width="3.133" height="3.133"/>
<rect x="298.643" y="176.365" fill="#2E2E2F" stroke="#FFFFFF" stroke-miterlimit="10" width="2.35" height="2.35"/>
<rect x="299.237" y="116.961" fill="#2E2E2F" stroke="#FFFFFF" stroke-miterlimit="10" width="1.16" height="1.158"/>
</svg>
