<?xml version="1.0" encoding="utf-8"?>
<!-- Generator: Adobe Illustrator 16.0.0, SVG Export Plug-In . SVG Version: 6.00 Build 0)  -->
<!DOCTYPE svg PUBLIC "-//W3C//DTD SVG 1.1//EN" "http://www.w3.org/Graphics/SVG/1.1/DTD/svg11.dtd">
<svg version="1.1" id="Ebene_1" xmlns="http://www.w3.org/2000/svg" xmlns:xlink="http://www.w3.org/1999/xlink" x="0px" y="0px"
	 width="600px" height="89.667px" viewBox="0 0 600 89.667" enable-background="new 0 0 600 89.667" xml:space="preserve">
<rect x="22.5" y="19.5" stroke="#000000" stroke-miterlimit="10" width="30" height="50"/>
<rect x="63.5" y="22.5" stroke="#000000" stroke-miterlimit="10" width="27" height="45"/>
<rect x="104.5" y="24.5" stroke="#000000" stroke-miterlimit="10" width="25" height="41"/>
<rect x="145.5" y="26.5" stroke="#000000" stroke-miterlimit="10" width="23" height="37"/>
<rect x="186.5" y="28.5" stroke="#000000" stroke-miterlimit="10" width="21" height="33"/>
<rect x="227.5" y="30.5" stroke="#000000" stroke-miterlimit="10" width="19" height="29"/>
<rect x="268.5" y="31.5" stroke="#000000" stroke-miterlimit="10" width="17" height="27"/>
<rect x="307.5" y="30.5" stroke="#000000" stroke-miterlimit="10" width="19" height="29"/>
<rect x="307.5" y="30.5" stroke="#000000" stroke-miterlimit="10" width="19" height="29"/>
<rect x="346.5" y="29.5" stroke="#000000" stroke-miterlimit="10" width="21" height="31"/>
<rect x="385.5" y="27.5" stroke="#000000" stroke-miterlimit="10" width="23" height="35"/>
<rect x="424.5" y="25.5" stroke="#000000" stroke-miterlimit="10" width="25" height="39"/>
<rect x="463.5" y="23.5" stroke="#000000" stroke-miterlimit="10" width="27" height="43"/>
<rect x="463.5" y="23.5" stroke="#000000" stroke-miterlimit="10" width="27" height="43"/>
<rect x="502.5" y="21.5" stroke="#000000" stroke-miterlimit="10" width="29" height="47"/>
<rect x="541.5" y="19.5" stroke="#000000" stroke-miterlimit="10" width="31" height="51"/>
</svg>
