<?xml version="1.0" encoding="utf-8"?>
<!-- Generator: Adobe Illustrator 16.0.0, SVG Export Plug-In . SVG Version: 6.00 Build 0)  -->
<!DOCTYPE svg PUBLIC "-//W3C//DTD SVG 1.1//EN" "http://www.w3.org/Graphics/SVG/1.1/DTD/svg11.dtd">
<svg version="1.1" id="Ebene_1" xmlns="http://www.w3.org/2000/svg" xmlns:xlink="http://www.w3.org/1999/xlink" x="0px" y="0px"
	 width="600px" height="300px" viewBox="0 0 600 300" enable-background="new 0 0 600 300" xml:space="preserve">
<rect x="27.5" y="48.5" stroke="#FFFFFF" stroke-miterlimit="10" width="2" height="200"/>
<rect x="46.5" y="48.5" stroke="#FFFFFF" stroke-miterlimit="10" width="3" height="200"/>
<rect x="65.5" y="48.5" stroke="#FFFFFF" stroke-miterlimit="10" width="5" height="200"/>
<rect x="84.5" y="48.5" stroke="#FFFFFF" stroke-miterlimit="10" width="7" height="200"/>
<rect x="102.5" y="48.5" stroke="#FFFFFF" stroke-miterlimit="10" width="11" height="200"/>
<rect x="119.5" y="48.5" stroke="#FFFFFF" stroke-miterlimit="10" width="17" height="200"/>
<rect x="135.5" y="48.5" stroke="#FFFFFF" stroke-miterlimit="10" width="25" height="200"/>
<rect x="149.5" y="48.5" stroke="#FFFFFF" stroke-miterlimit="10" width="37" height="200"/>
<rect x="160.5" y="48.5" stroke="#FFFFFF" stroke-miterlimit="10" width="55" height="200"/>
<rect x="183.5" y="48.5" stroke="#FFFFFF" stroke-miterlimit="10" width="49" height="200"/>
<rect x="206.5" y="48.5" stroke="#FFFFFF" stroke-miterlimit="10" width="43" height="200"/>
<rect x="229.5" y="48.5" stroke="#FFFFFF" stroke-miterlimit="10" width="37" height="200"/>
<rect x="251.5" y="48.5" stroke="#FFFFFF" stroke-miterlimit="10" width="33" height="200"/>
<rect x="273.5" y="48.5" stroke="#FFFFFF" stroke-miterlimit="10" width="29" height="200"/>
<rect x="295.5" y="48.5" stroke="#FFFFFF" stroke-miterlimit="10" width="25" height="200"/>
<rect x="317.5" y="48.5" stroke="#FFFFFF" stroke-miterlimit="10" width="21" height="200"/>
<rect x="338.5" y="48.5" stroke="#FFFFFF" stroke-miterlimit="10" width="19" height="200"/>
<rect x="359.5" y="48.5" stroke="#FFFFFF" stroke-miterlimit="10" width="17" height="200"/>
<rect x="380.5" y="48.5" stroke="#FFFFFF" stroke-miterlimit="10" width="15" height="200"/>
<rect x="401.5" y="48.5" stroke="#FFFFFF" stroke-miterlimit="10" width="13" height="200"/>
<rect x="422.5" y="48.5" stroke="#FFFFFF" stroke-miterlimit="10" width="11" height="200"/>
<rect x="443.5" y="48.5" stroke="#FFFFFF" stroke-miterlimit="10" width="9" height="200"/>
<rect x="464.5" y="48.5" stroke="#FFFFFF" stroke-miterlimit="10" width="7" height="200"/>
<rect x="484.5" y="48.5" stroke="#FFFFFF" stroke-miterlimit="10" width="7" height="200"/>
<rect x="504.5" y="48.5" stroke="#FFFFFF" stroke-miterlimit="10" width="7" height="200"/>
<rect x="524.5" y="48.5" stroke="#FFFFFF" stroke-miterlimit="10" width="7" height="200"/>
<rect x="544.5" y="48.5" stroke="#FFFFFF" stroke-miterlimit="10" width="7" height="200"/>
<rect x="564.5" y="48.5" stroke="#FFFFFF" stroke-miterlimit="10" width="7" height="200"/>
</svg>
