<?xml version="1.0" encoding="utf-8"?>
<!-- Generator: Adobe Illustrator 16.0.0, SVG Export Plug-In . SVG Version: 6.00 Build 0)  -->
<!DOCTYPE svg PUBLIC "-//W3C//DTD SVG 1.1//EN" "http://www.w3.org/Graphics/SVG/1.1/DTD/svg11.dtd">
<svg version="1.1" id="Ebene_1" xmlns="http://www.w3.org/2000/svg" xmlns:xlink="http://www.w3.org/1999/xlink" x="0px" y="0px"
	 width="600px" height="300px" viewBox="0 0 600 300" enable-background="new 0 0 600 300" xml:space="preserve">
<rect x="126.5" y="48.5" stroke="#FFFFFF" stroke-miterlimit="10" width="30" height="200"/>
<rect x="160.5" y="48.5" stroke="#FFFFFF" stroke-miterlimit="10" width="22" height="200"/>
<rect x="193.5" y="48.5" stroke="#FFFFFF" stroke-miterlimit="10" width="16" height="200"/>
<rect x="225.5" y="48.5" stroke="#FFFFFF" stroke-miterlimit="10" width="12" height="200"/>
<rect x="256.5" y="48.5" stroke="#FFFFFF" stroke-miterlimit="10" width="9" height="200"/>
<rect x="287.5" y="48.5" stroke="#FFFFFF" stroke-miterlimit="10" width="7" height="200"/>
<rect x="318.5" y="48.5" stroke="#FFFFFF" stroke-miterlimit="10" width="5" height="200"/>
<rect x="349.5" y="48.5" stroke="#FFFFFF" stroke-miterlimit="10" width="3" height="200"/>
<rect x="379.5" y="48.5" stroke="#FFFFFF" stroke-miterlimit="10" width="3" height="200"/>
<rect x="409.5" y="48.5" stroke="#FFFFFF" stroke-miterlimit="10" width="3" height="200"/>
<rect x="439.5" y="48.5" stroke="#FFFFFF" stroke-miterlimit="10" width="3" height="200"/>
<rect x="442.5" y="48.5" stroke="#FFFFFF" stroke-miterlimit="10" width="30" height="200"/>
<rect x="416.5" y="48.5" stroke="#FFFFFF" stroke-miterlimit="10" width="22" height="200"/>
<rect x="389.5" y="48.5" stroke="#FFFFFF" stroke-miterlimit="10" width="16" height="200"/>
<rect x="361.5" y="48.5" stroke="#FFFFFF" stroke-miterlimit="10" width="12" height="200"/>
<rect x="333.5" y="48.5" stroke="#FFFFFF" stroke-miterlimit="10" width="9" height="200"/>
<rect x="304.5" y="48.5" stroke="#FFFFFF" stroke-miterlimit="10" width="7" height="200"/>
<rect x="275.5" y="48.5" stroke="#FFFFFF" stroke-miterlimit="10" width="5" height="200"/>
<rect x="246.5" y="48.5" stroke="#FFFFFF" stroke-miterlimit="10" width="3" height="200"/>
<rect x="216.5" y="48.5" stroke="#FFFFFF" stroke-miterlimit="10" width="3" height="200"/>
<rect x="186.5" y="48.5" stroke="#FFFFFF" stroke-miterlimit="10" width="3" height="200"/>
<rect x="156.5" y="48.5" stroke="#FFFFFF" stroke-miterlimit="10" width="3" height="200"/>
</svg>
