<?xml version="1.0" encoding="utf-8"?>
<!-- Generator: Adobe Illustrator 16.0.0, SVG Export Plug-In . SVG Version: 6.00 Build 0)  -->
<!DOCTYPE svg PUBLIC "-//W3C//DTD SVG 1.1//EN" "http://www.w3.org/Graphics/SVG/1.1/DTD/svg11.dtd">
<svg version="1.1" id="Ebene_1" xmlns="http://www.w3.org/2000/svg" xmlns:xlink="http://www.w3.org/1999/xlink" x="0px" y="0px"
	 width="600px" height="300px" viewBox="0 0 600 300" enable-background="new 0 0 600 300" xml:space="preserve">
<rect x="94.5" y="49.169" stroke="#FFFFFF" stroke-miterlimit="10" width="30" height="200"/>
<rect x="138.5" y="49.169" stroke="#FFFFFF" stroke-miterlimit="10" width="22" height="200"/>
<rect x="181.5" y="49.169" stroke="#FFFFFF" stroke-miterlimit="10" width="16" height="200"/>
<rect x="223.5" y="49.169" stroke="#FFFFFF" stroke-miterlimit="10" width="12" height="200"/>
<rect x="264.5" y="49.169" stroke="#FFFFFF" stroke-miterlimit="10" width="9" height="200"/>
<rect x="305.5" y="49.169" stroke="#FFFFFF" stroke-miterlimit="10" width="7" height="200"/>
<rect x="346.5" y="49.169" stroke="#FFFFFF" stroke-miterlimit="10" width="5" height="200"/>
<rect x="387.5" y="49.169" stroke="#FFFFFF" stroke-miterlimit="10" width="3" height="200"/>
<rect x="427.5" y="49.169" stroke="#FFFFFF" stroke-miterlimit="10" width="3" height="200"/>
<rect x="467.5" y="49.169" stroke="#FFFFFF" stroke-miterlimit="10" width="3" height="200"/>
<rect x="475.5" y="49.169" stroke="#FFFFFF" stroke-miterlimit="10" width="30" height="200"/>
<rect x="439.5" y="49.169" stroke="#FFFFFF" stroke-miterlimit="10" width="22" height="200"/>
<rect x="402.5" y="49.169" stroke="#FFFFFF" stroke-miterlimit="10" width="16" height="200"/>
<rect x="364.5" y="49.169" stroke="#FFFFFF" stroke-miterlimit="10" width="12" height="200"/>
<rect x="326.5" y="49.169" stroke="#FFFFFF" stroke-miterlimit="10" width="9" height="200"/>
<rect x="287.5" y="49.169" stroke="#FFFFFF" stroke-miterlimit="10" width="7" height="200"/>
<rect x="248.5" y="49.169" stroke="#FFFFFF" stroke-miterlimit="10" width="5" height="200"/>
<rect x="209.5" y="49.169" stroke="#FFFFFF" stroke-miterlimit="10" width="3" height="200"/>
<rect x="169.5" y="49.169" stroke="#FFFFFF" stroke-miterlimit="10" width="3" height="200"/>
<rect x="129.5" y="49.169" stroke="#FFFFFF" stroke-miterlimit="10" width="3" height="200"/>
</svg>
