<?xml version="1.0" encoding="utf-8"?>
<!-- Generator: Adobe Illustrator 16.0.0, SVG Export Plug-In . SVG Version: 6.00 Build 0)  -->
<!DOCTYPE svg PUBLIC "-//W3C//DTD SVG 1.1//EN" "http://www.w3.org/Graphics/SVG/1.1/DTD/svg11.dtd">
<svg version="1.1" id="Ebene_1" xmlns="http://www.w3.org/2000/svg" xmlns:xlink="http://www.w3.org/1999/xlink" x="0px" y="0px"
	 width="600px" height="300px" viewBox="0 0 600 300" enable-background="new 0 0 600 300" xml:space="preserve">
<rect x="24.5" y="98.5" stroke="#FFFFFF" stroke-miterlimit="10" width="10" height="100"/>
<rect x="24.5" y="98.5" stroke="#FFFFFF" stroke-miterlimit="10" width="10" height="100"/>
<rect x="54.5" y="98.5" transform="matrix(0.9397 -0.342 0.342 0.9397 -47.2039 29.3078)" stroke="#FFFFFF" stroke-miterlimit="10" width="10" height="100"/>
<rect x="84.5" y="98.5" transform="matrix(0.766 -0.6428 0.6428 0.766 -74.5154 92.2731)" stroke="#FFFFFF" stroke-miterlimit="10" width="10" height="100"/>
<rect x="114.5" y="98.5" transform="matrix(0.5 -0.866 0.866 0.5 -68.8537 177.7471)" stroke="#FFFFFF" stroke-miterlimit="10" width="10" height="100"/>
<rect x="144.5" y="98.5" transform="matrix(0.1736 -0.9848 0.9848 0.1736 -22.7034 269.9434)" stroke="#FFFFFF" stroke-miterlimit="10" width="10" height="100"/>
<rect x="174.5" y="98.5" transform="matrix(-0.1736 -0.9848 0.9848 -0.1736 64.4243 351.0588)" stroke="#FFFFFF" stroke-miterlimit="10" width="10" height="100"/>
<rect x="204.5" y="98.5" transform="matrix(-0.5 -0.866 0.866 -0.5 185.6527 404.183)" stroke="#FFFFFF" stroke-miterlimit="10" width="9.999" height="100"/>
<rect x="234.5" y="98.5" transform="matrix(-0.7661 -0.6428 0.6428 -0.7661 327.5217 416.2026)" stroke="#FFFFFF" stroke-miterlimit="10" width="9.999" height="100"/>
<rect x="264.5" y="98.5" transform="matrix(-0.9397 -0.342 0.342 -0.9397 471.9597 380.2166)" stroke="#FFFFFF" stroke-miterlimit="10" width="9.999" height="100"/>
<rect x="294.5" y="98.5" stroke="#FFFFFF" stroke-miterlimit="10" width="9.999" height="100"/>
<rect x="324.5" y="98.5" transform="matrix(-0.9397 0.342 -0.342 -0.9397 689.9185 175.3527)" stroke="#FFFFFF" stroke-miterlimit="10" width="9.999" height="100"/>
<rect x="354.5" y="98.5" transform="matrix(-0.7661 0.6428 -0.6428 -0.7661 730.3504 31.1865)" stroke="#FFFFFF" stroke-miterlimit="10" width="9.999" height="100"/>
<rect x="384.5" y="98.5" transform="matrix(-0.5 0.866 -0.866 -0.5 712.8689 -114.5495)" stroke="#FFFFFF" stroke-miterlimit="10" width="9.999" height="100"/>
<rect x="414.5" y="98.5" transform="matrix(-0.1736 0.9848 -0.9848 -0.1736 638.5896 -238.84)" stroke="#FFFFFF" stroke-miterlimit="10" width="9.999" height="100"/>
<rect x="444.5" y="98.5" transform="matrix(0.1736 0.9848 -0.9848 0.1736 517.6888 -319.9579)" stroke="#FFFFFF" stroke-miterlimit="10" width="9.999" height="100"/>
<rect x="474.501" y="98.5" transform="matrix(0.5 0.866 -0.866 0.5 368.3699 -341.0126)" stroke="#FFFFFF" stroke-miterlimit="10" width="9.999" height="100"/>
<rect x="504.501" y="98.501" transform="matrix(0.766 0.6428 -0.6428 0.766 214.6691 -292.7676)" stroke="#FFFFFF" stroke-miterlimit="10" width="9.999" height="99.999"/>
<rect x="534.501" y="98.501" transform="matrix(0.9397 0.342 -0.342 0.9397 83.3331 -175.5743)" stroke="#FFFFFF" stroke-miterlimit="10" width="9.999" height="99.999"/>
<rect x="564.5" y="98.5" stroke="#FFFFFF" stroke-miterlimit="10" width="9.999" height="100"/>
</svg>
