<?xml version="1.0" encoding="utf-8"?>
<!-- Generator: Adobe Illustrator 16.0.0, SVG Export Plug-In . SVG Version: 6.00 Build 0)  -->
<!DOCTYPE svg PUBLIC "-//W3C//DTD SVG 1.1//EN" "http://www.w3.org/Graphics/SVG/1.1/DTD/svg11.dtd">
<svg version="1.1" id="Ebene_1" xmlns="http://www.w3.org/2000/svg" xmlns:xlink="http://www.w3.org/1999/xlink" x="0px" y="0px"
	 width="600px" height="300px" viewBox="0 0 600 300" enable-background="new 0 0 600 300" xml:space="preserve">
<rect x="12.5" y="99.5" stroke="#FFFFFF" stroke-miterlimit="10" width="8" height="99"/>
<rect x="12.5" y="99.5" stroke="#FFFFFF" stroke-miterlimit="10" width="8" height="99"/>
<polygon stroke="#FFFFFF" stroke-miterlimit="10" points="68.312,193.53 60.46,196.906 31.884,104.164 39.735,100.788 "/>
<polygon stroke="#FFFFFF" stroke-miterlimit="10" points="73.156,196.906 65.304,193.53 93.88,100.789 101.732,104.164 "/>
<polygon stroke="#FFFFFF" stroke-miterlimit="10" points="146.991,183.477 140.591,189.822 86.886,114.217 93.286,107.873 "/>
<polygon stroke="#FFFFFF" stroke-miterlimit="10" points="146.991,183.477 140.591,189.822 86.886,114.217 93.286,107.873 "/>
<polygon stroke="#FFFFFF" stroke-miterlimit="10" points="126.707,189.821 120.305,183.478 174.011,107.874 180.412,114.217 "/>
<polygon stroke="#FFFFFF" stroke-miterlimit="10" points="222.046,169.247 217.869,177.795 145.512,128.448 149.689,119.899 "/>
<polygon stroke="#FFFFFF" stroke-miterlimit="10" points="183.11,177.794 178.932,169.247 251.289,119.9 255.467,128.448 "/>
<polygon stroke="#FFFFFF" stroke-miterlimit="10" points="292.485,152.557 291.035,162.276 208.753,145.138 210.204,135.418 "/>
<polygon stroke="#FFFFFF" stroke-miterlimit="10" points="243.625,162.276 242.173,152.556 324.455,135.418 325.906,145.139 "/>
<polygon stroke="#FFFFFF" stroke-miterlimit="10" points="357.875,135.418 359.326,145.139 277.044,162.276 275.593,152.556 "/>
<polygon stroke="#FFFFFF" stroke-miterlimit="10" points="309.015,145.138 310.465,135.418 392.746,152.557 391.296,162.277 "/>
<polygon stroke="#FFFFFF" stroke-miterlimit="10" points="418.391,119.9 422.569,128.448 350.211,177.795 346.033,169.247 "/>
<polygon stroke="#FFFFFF" stroke-miterlimit="10" points="418.391,119.9 422.569,128.448 350.211,177.795 346.033,169.247 "/>
<polygon stroke="#FFFFFF" stroke-miterlimit="10" points="379.454,128.448 383.631,119.9 455.988,169.247 451.811,177.796 "/>
<polygon stroke="#FFFFFF" stroke-miterlimit="10" points="474.794,107.874 481.195,114.217 427.49,189.822 421.088,183.478 "/>
<polygon stroke="#FFFFFF" stroke-miterlimit="10" points="454.509,114.218 460.909,107.873 514.615,183.478 508.214,189.823 "/>
<polygon stroke="#FFFFFF" stroke-miterlimit="10" points="528.345,100.789 536.196,104.164 507.62,196.906 499.768,193.531 "/>
<polygon stroke="#FFFFFF" stroke-miterlimit="10" points="533.189,104.165 541.041,100.788 569.616,193.53 561.765,196.907 "/>
<rect x="580.5" y="99.5" stroke="#FFFFFF" stroke-miterlimit="10" width="8" height="99"/>
</svg>
