<?xml version="1.0" encoding="utf-8"?>
<!-- Generator: Adobe Illustrator 16.0.0, SVG Export Plug-In . SVG Version: 6.00 Build 0)  -->
<!DOCTYPE svg PUBLIC "-//W3C//DTD SVG 1.1//EN" "http://www.w3.org/Graphics/SVG/1.1/DTD/svg11.dtd">
<svg version="1.1" id="Ebene_1" xmlns="http://www.w3.org/2000/svg" xmlns:xlink="http://www.w3.org/1999/xlink" x="0px" y="0px"
	 width="600px" height="170px" viewBox="0 0 600 170" enable-background="new 0 0 600 170" xml:space="preserve">
<rect x="233.5" y="100.5" stroke="#000000" stroke-miterlimit="10" width="60" height="60"/>
<rect x="250.494" y="93.523" transform="matrix(0.9397 -0.342 0.342 0.9397 -23.6405 100.9609)" stroke="#FFFFFF" stroke-miterlimit="10" width="48.001" height="48"/>
<rect x="250.494" y="93.523" transform="matrix(0.9397 -0.342 0.342 0.9397 -23.6405 100.9609)" stroke="#FFFFFF" stroke-miterlimit="10" width="48.001" height="48"/>
<rect x="266.286" y="85.307" transform="matrix(0.766 -0.6428 0.6428 0.766 -0.3789 207.9687)" stroke="#FFFFFF" stroke-miterlimit="10" width="38.399" height="38.396"/>
<rect x="281.158" y="76.16" transform="matrix(0.5 -0.866 0.866 0.5 68.9886 302.5383)" stroke="#FFFFFF" stroke-miterlimit="10" width="30.718" height="30.718"/>
<rect x="295.194" y="66.219" transform="matrix(0.1736 -0.9848 0.9848 0.1736 176.7792 367.6846)" stroke="#FFFFFF" stroke-miterlimit="10" width="24.573" height="24.574"/>
<rect x="308.66" y="55.674" transform="matrix(-0.1737 -0.9848 0.9848 -0.1737 309.2995 390.5327)" stroke="#FFFFFF" stroke-miterlimit="10" width="19.662" height="19.661"/>
<rect x="321.627" y="44.649" transform="matrix(-0.5001 -0.866 0.866 -0.5001 448.7875 364.1067)" stroke="#FFFFFF" stroke-miterlimit="10" width="15.728" height="15.728"/>
<rect x="334.248" y="33.205" transform="matrix(-0.766 -0.6429 0.6429 -0.766 575.9917 288.6702)" stroke="#FFFFFF" stroke-miterlimit="10" width="12.581" height="12.582"/>
<rect x="346.443" y="21.458" transform="matrix(-0.9397 -0.3421 0.3421 -0.9397 672.687 171.6157)" stroke="#FFFFFF" stroke-miterlimit="10" width="10.066" height="10.067"/>
<rect x="358.5" y="9.5" stroke="#FFFFFF" stroke-miterlimit="10" width="8" height="8"/>
<line fill="none" x1="274" y1="118" x2="274" y2="131"/>
</svg>
