<?xml version="1.0" encoding="utf-8"?>
<!-- Generator: Adobe Illustrator 16.0.0, SVG Export Plug-In . SVG Version: 6.00 Build 0)  -->
<!DOCTYPE svg PUBLIC "-//W3C//DTD SVG 1.1//EN" "http://www.w3.org/Graphics/SVG/1.1/DTD/svg11.dtd">
<svg version="1.1" id="Ebene_1" xmlns="http://www.w3.org/2000/svg" xmlns:xlink="http://www.w3.org/1999/xlink" x="0px" y="0px"
	 width="600px" height="190px" viewBox="0 142.5 600 190" enable-background="new 0 142.5 600 190" xml:space="preserve">
<rect x="16.667" y="207.497" stroke="#000000" stroke-miterlimit="10" width="60" height="60"/>
<rect x="57.662" y="210.506" transform="matrix(-0.7071 0.7071 -0.7071 -0.7071 312.467 345.5793)" stroke="#FFFFFF" stroke-miterlimit="10" width="53.998" height="53.998"/>
<rect x="98.667" y="213.497" stroke="#FFFFFF" stroke-miterlimit="10" width="48" height="48"/>
<rect x="98.667" y="213.497" stroke="#FFFFFF" stroke-miterlimit="10" width="48" height="48"/>
<rect x="132.071" y="215.906" transform="matrix(0.7071 0.7071 -0.7071 0.7071 212.9507 -39.0978)" stroke="#FFFFFF" stroke-miterlimit="10" width="43.198" height="43.199"/>
<rect x="165.667" y="218.497" stroke="#FFFFFF" stroke-miterlimit="10" width="38" height="38"/>
<rect x="191.583" y="220.398" transform="matrix(0.7071 -0.7071 0.7071 0.7071 -106.8152 217.1278)" stroke="#FFFFFF" stroke-miterlimit="10" width="34.197" height="34.199"/>
<rect x="215.667" y="222.497" stroke="#FFFFFF" stroke-miterlimit="10" width="30" height="30"/>
<rect x="236.165" y="223.986" transform="matrix(-0.7071 -0.7071 0.7071 -0.7071 258.2763 581.9542)" stroke="#FFFFFF" stroke-miterlimit="10" width="27" height="27"/>
<rect x="256.667" y="225.497" stroke="#FFFFFF" stroke-miterlimit="10" width="24" height="24"/>
<rect x="272.858" y="226.704" transform="matrix(-0.7071 0.7071 -0.7071 -0.7071 652.175 204.8681)" stroke="#FFFFFF" stroke-miterlimit="10" width="21.6" height="21.6"/>
<rect x="287.667" y="227.497" stroke="#FFFFFF" stroke-miterlimit="10" width="20.001" height="20"/>
<rect x="301.678" y="228.508" transform="matrix(0.7071 0.7071 -0.7071 0.7071 258.9235 -150.1159)" stroke="#FFFFFF" stroke-miterlimit="10" width="17.999" height="17.999"/>
</svg>
