<?xml version="1.0" encoding="utf-8"?>
<!-- Generator: Adobe Illustrator 16.0.0, SVG Export Plug-In . SVG Version: 6.00 Build 0)  -->
<!DOCTYPE svg PUBLIC "-//W3C//DTD SVG 1.1//EN" "http://www.w3.org/Graphics/SVG/1.1/DTD/svg11.dtd">
<svg version="1.1" id="Ebene_1" xmlns="http://www.w3.org/2000/svg" xmlns:xlink="http://www.w3.org/1999/xlink" x="0px" y="0px"
	 width="600px" height="190px" viewBox="-299.5 151 600 190" enable-background="new -299.5 151 600 190" xml:space="preserve">
<rect x="-282.293" y="215.449" stroke="#000000" stroke-miterlimit="10" width="60" height="60"/>
<rect x="-241.293" y="218.45" transform="matrix(-0.7071 0.7071 -0.7071 -0.7071 -192.2626 570.5362)" stroke="#FFFFFF" stroke-miterlimit="10" width="54" height="53.999"/>
<rect x="-200.293" y="221.449" stroke="#FFFFFF" stroke-miterlimit="10" width="48" height="48"/>
<rect x="-159.892" y="223.851" transform="matrix(0.7071 0.7071 -0.7071 0.7071 133.0555 169.678)" stroke="#FFFFFF" stroke-miterlimit="10" width="43.2" height="43.2"/>
<rect x="-119.293" y="226.449" stroke="#FFFFFF" stroke-miterlimit="10" width="38" height="38"/>
<rect x="-79.389" y="228.348" transform="matrix(0.7071 -0.7071 0.7071 0.7071 -191.8017 27.8443)" stroke="#FFFFFF" stroke-miterlimit="10" width="34.198" height="34.198"/>
<rect x="-39.293" y="230.449" stroke="#FFFFFF" stroke-miterlimit="10" width="30" height="30"/>
<rect x="0.207" y="231.946" transform="matrix(-0.7071 -0.7071 0.7071 -0.7071 -150.1571 428.6935)" stroke="#FFFFFF" stroke-miterlimit="10" width="27" height="26.999"/>
<rect x="39.707" y="233.449" stroke="#FFFFFF" stroke-miterlimit="10" width="24" height="24"/>
<rect x="78.904" y="234.651" transform="matrix(-0.7071 0.7071 -0.7071 -0.7071 326.6951 355.5808)" stroke="#FFFFFF" stroke-miterlimit="10" width="21.6" height="21.6"/>
<rect x="117.707" y="235.449" stroke="#FFFFFF" stroke-miterlimit="10" width="20" height="20"/>
<rect x="156.686" y="236.47" transform="matrix(0.7071 0.7071 -0.7071 0.7071 222.1127 -45.259)" stroke="#FFFFFF" stroke-miterlimit="10" width="17.999" height="17.999"/>
</svg>
