<?xml version="1.0" encoding="utf-8"?>
<!-- Generator: Adobe Illustrator 16.0.0, SVG Export Plug-In . SVG Version: 6.00 Build 0)  -->
<!DOCTYPE svg PUBLIC "-//W3C//DTD SVG 1.1//EN" "http://www.w3.org/Graphics/SVG/1.1/DTD/svg11.dtd">
<svg version="1.1" id="Ebene_1" xmlns="http://www.w3.org/2000/svg" xmlns:xlink="http://www.w3.org/1999/xlink" x="0px" y="0px"
	 width="600px" height="190px" viewBox="-299.5 305 600 190" enable-background="new -299.5 305 600 190" xml:space="preserve">
<rect x="-282.833" y="371.238" stroke="#000000" stroke-miterlimit="10" width="60" height="60"/>
<rect x="-241.829" y="374.241" transform="matrix(0.7071 -0.7071 0.7071 0.7071 -346.6419 -34.3867)" stroke="#FFFFFF" stroke-miterlimit="10" width="54" height="54"/>
<rect x="-202.833" y="375.238" stroke="#FFFFFF" stroke-miterlimit="10" width="52" height="52"/>
<rect x="-164.829" y="375.234" transform="matrix(-0.7071 -0.7071 0.7071 -0.7071 -520.7119 586.7823)" stroke="#FFFFFF" stroke-miterlimit="10" width="51.999" height="51.999"/>
<rect x="-127.833" y="374.238" stroke="#FFFFFF" stroke-miterlimit="10" width="54" height="54"/>
<rect x="-92.53" y="371.525" transform="matrix(-0.7071 0.7071 -0.7071 -0.7071 176.4531 729.3573)" stroke="#FFFFFF" stroke-miterlimit="10" width="59.398" height="59.398"/>
<rect x="-58.833" y="367.238" stroke="#FFFFFF" stroke-miterlimit="10" width="68" height="68"/>
<rect x="-27.634" y="360.443" transform="matrix(0.7071 0.7071 -0.7071 0.7071 287.5793 108.2144)" stroke="#FFFFFF" stroke-miterlimit="10" width="81.598" height="81.598"/>
<rect x="0.167" y="350.238" stroke="#FFFFFF" stroke-miterlimit="10" width="102" height="102"/>
<rect x="22.872" y="334.941" transform="matrix(0.7071 -0.7071 0.7071 0.7071 -257.6017 180.5735)" stroke="#FFFFFF" stroke-miterlimit="10" width="132.598" height="132.598"/>
</svg>
