<?xml version="1.0" encoding="utf-8"?>
<!-- Generator: Adobe Illustrator 16.0.0, SVG Export Plug-In . SVG Version: 6.00 Build 0)  -->
<!DOCTYPE svg PUBLIC "-//W3C//DTD SVG 1.1//EN" "http://www.w3.org/Graphics/SVG/1.1/DTD/svg11.dtd">
<svg version="1.1" id="Ebene_1" xmlns="http://www.w3.org/2000/svg" xmlns:xlink="http://www.w3.org/1999/xlink" x="0px" y="0px"
	 width="600px" height="190px" viewBox="-299.5 305 600 190" enable-background="new -299.5 305 600 190" xml:space="preserve">
<rect x="-282.384" y="371.007" stroke="#000000" stroke-miterlimit="10" width="60" height="60"/>
<rect x="-242.375" y="374.017" transform="matrix(0.7071 -0.7071 0.7071 0.7071 -346.6432 -34.8392)" stroke="#FFFFFF" stroke-miterlimit="10" width="53.998" height="53.998"/>
<rect x="-203.384" y="375.007" stroke="#FFFFFF" stroke-miterlimit="10" width="52" height="52"/>
<rect x="-165.399" y="375.002" transform="matrix(-0.7071 -0.7071 0.7071 -0.7071 -521.522 585.9819)" stroke="#FFFFFF" stroke-miterlimit="10" width="51.999" height="52"/>
<rect x="-129.384" y="374.007" stroke="#FFFFFF" stroke-miterlimit="10" width="54" height="54"/>
<rect x="-90.091" y="371.298" transform="matrix(-0.7071 0.7071 -0.7071 -0.7071 180.4534 727.2484)" stroke="#FFFFFF" stroke-miterlimit="10" width="59.4" height="59.399"/>
<rect x="-55.384" y="367.007" stroke="#FFFFFF" stroke-miterlimit="10" width="68" height="68"/>
<rect x="-3.182" y="360.213" transform="matrix(0.7071 0.7071 -0.7071 0.7071 294.5737 90.8525)" stroke="#FFFFFF" stroke-miterlimit="10" width="81.598" height="81.599"/>
<rect x="44.616" y="349.007" stroke="#FFFFFF" stroke-miterlimit="10" width="102.001" height="102"/>
<rect x="123.324" y="333.701" transform="matrix(0.7071 -0.7071 0.7071 0.7071 -227.3036 251.2409)" stroke="#FFFFFF" stroke-miterlimit="10" width="132.598" height="132.598"/>
</svg>
