<?xml version="1.0" encoding="utf-8"?>
<!-- Generator: Adobe Illustrator 16.0.0, SVG Export Plug-In . SVG Version: 6.00 Build 0)  -->
<!DOCTYPE svg PUBLIC "-//W3C//DTD SVG 1.1//EN" "http://www.w3.org/Graphics/SVG/1.1/DTD/svg11.dtd">
<svg version="1.1" id="Ebene_1" xmlns="http://www.w3.org/2000/svg" xmlns:xlink="http://www.w3.org/1999/xlink" x="0px" y="0px"
	 width="600px" height="170px" viewBox="-299.5 266.5 600 170" enable-background="new -299.5 266.5 600 170" xml:space="preserve">
<rect x="-102.548" y="290.41" stroke="#000000" stroke-miterlimit="10" width="120" height="120"/>
<rect x="-102.548" y="290.41" stroke="#FFFFFF" stroke-miterlimit="10" width="120" height="120"/>
<rect x="-82.546" y="300.412" stroke="#FFFFFF" stroke-miterlimit="10" width="99.996" height="99.996"/>
<rect x="-64.212" y="308.747" stroke="#FFFFFF" stroke-miterlimit="10" width="83.327" height="83.326"/>
<rect x="-47.266" y="315.692" stroke="#FFFFFF" stroke-miterlimit="10" width="69.437" height="69.436"/>
<rect x="-31.479" y="321.479" stroke="#FFFFFF" stroke-miterlimit="10" width="57.861" height="57.861"/>
<rect x="-16.656" y="326.302" stroke="#FFFFFF" stroke-miterlimit="10" width="48.216" height="48.217"/>
<rect x="-2.637" y="330.32" stroke="#FFFFFF" stroke-miterlimit="10" width="40.179" height="40.18"/>
<rect x="10.712" y="333.669" stroke="#FFFFFF" stroke-miterlimit="10" width="33.48" height="33.482"/>
<rect x="23.502" y="336.46" stroke="#FFFFFF" stroke-miterlimit="10" width="27.899" height="27.9"/>
<rect x="35.827" y="338.785" stroke="#FFFFFF" stroke-miterlimit="10" width="23.249" height="23.25"/>
<rect x="47.765" y="340.723" stroke="#FFFFFF" stroke-miterlimit="10" width="19.373" height="19.375"/>
<rect x="59.38" y="342.338" stroke="#FFFFFF" stroke-miterlimit="10" width="16.144" height="16.145"/>
<rect x="70.726" y="343.684" stroke="#FFFFFF" stroke-miterlimit="10" width="13.452" height="13.453"/>
<rect x="81.847" y="344.805" stroke="#FFFFFF" stroke-miterlimit="10" width="11.21" height="11.211"/>
<rect x="92.781" y="345.739" stroke="#FFFFFF" stroke-miterlimit="10" width="9.341" height="9.342"/>
</svg>
