<?xml version="1.0" encoding="utf-8"?>
<!-- Generator: Adobe Illustrator 16.0.0, SVG Export Plug-In . SVG Version: 6.00 Build 0)  -->
<!DOCTYPE svg PUBLIC "-//W3C//DTD SVG 1.1//EN" "http://www.w3.org/Graphics/SVG/1.1/DTD/svg11.dtd">
<svg version="1.1" xmlns="http://www.w3.org/2000/svg" xmlns:xlink="http://www.w3.org/1999/xlink" x="0px" y="0px" width="600px"
	 height="170px" viewBox="-595.5 420.5 600 170" enable-background="new -595.5 420.5 600 170" xml:space="preserve">
<g id="Ebene_1">
	<rect x="-537.833" y="453.287" stroke="#000000" stroke-miterlimit="10" width="103.012" height="103.012"/>
	
		<rect x="-473.441" y="466.184" transform="matrix(0.866 -0.5 0.5 0.866 -310.6638 -149.7753)" stroke="#FFFFFF" stroke-miterlimit="10" width="77.257" height="77.255"/>
	
		<rect x="-412.265" y="475.82" transform="matrix(0.5 -0.866 0.866 0.5 -628.7995 -79.5511)" stroke="#FFFFFF" stroke-miterlimit="10" width="57.942" height="57.94"/>
	<rect x="-354.128" y="482.474" stroke="#FFFFFF" stroke-miterlimit="10" width="44.637" height="44.639"/>
	
		<rect x="-297.033" y="488.037" transform="matrix(-0.5 -0.866 0.866 -0.5 -857.5909 514.4398)" stroke="#FFFFFF" stroke-miterlimit="10" width="33.477" height="33.479"/>
	
		<rect x="-241.343" y="492.223" transform="matrix(-0.866 -0.5001 0.5001 -0.866 -679.3423 827.4928)" stroke="#FFFFFF" stroke-miterlimit="10" width="25.108" height="25.108"/>
	<rect x="-185.877" y="496.209" stroke="#FFFFFF" stroke-miterlimit="10" width="17.168" height="17.168"/>
	
		<rect x="-132.233" y="498.338" transform="matrix(-0.866 0.5 -0.5 -0.866 17.6532 1004.8225)" stroke="#FFFFFF" stroke-miterlimit="10" width="12.875" height="12.877"/>
</g>
<g id="Ebene_2">
</g>
</svg>
