<?xml version="1.0" encoding="utf-8"?>
<!-- Generator: Adobe Illustrator 16.0.0, SVG Export Plug-In . SVG Version: 6.00 Build 0)  -->
<!DOCTYPE svg PUBLIC "-//W3C//DTD SVG 1.1//EN" "http://www.w3.org/Graphics/SVG/1.1/DTD/svg11.dtd">
<svg version="1.1" id="Ebene_1" xmlns="http://www.w3.org/2000/svg" xmlns:xlink="http://www.w3.org/1999/xlink" x="0px" y="0px"
	 width="600px" height="170px" viewBox="-595.5 420.5 600 170" enable-background="new -595.5 420.5 600 170" xml:space="preserve">
<rect x="-537.303" y="476.715" stroke="#000000" stroke-miterlimit="10" width="58.868" height="58.868"/>
<rect x="-500.509" y="484.568" transform="matrix(0.866 -0.5 0.5 0.866 -317.4193 -171.3398)" stroke="#FFFFFF" stroke-miterlimit="10" width="44.15" height="44.148"/>
<rect x="-500.509" y="484.568" transform="matrix(0.866 -0.5 0.5 0.866 -317.4193 -171.3398)" stroke="#FFFFFF" stroke-miterlimit="10" width="44.15" height="44.148"/>
<rect x="-471.566" y="488.974" transform="matrix(0.5 -0.866 0.866 0.5 -665.6917 -139.7834)" stroke="#FFFFFF" stroke-miterlimit="10" width="35.32" height="35.319"/>
<rect x="-449" y="491.433" stroke="#FFFFFF" stroke-miterlimit="10" width="29.434" height="30.414"/>
<rect x="-433.266" y="493.388" transform="matrix(-0.5 -0.866 0.866 -0.5 -1068.1243 396.5865)" stroke="#FFFFFF" stroke-miterlimit="10" width="27.376" height="26.489"/>
<rect x="-417.871" y="494.08" transform="matrix(-0.866 -0.5001 0.5001 -0.866 -1008.8566 742.9333)" stroke="#FFFFFF" stroke-miterlimit="10" width="26.006" height="25.166"/>
<rect x="-402.887" y="494.376" stroke="#FFFFFF" stroke-miterlimit="10" width="25.509" height="24.527"/>
<rect x="-390.781" y="493.775" transform="matrix(-0.866 0.5 -0.5 -0.866 -450.8704 1134.1239)" stroke="#FFFFFF" stroke-miterlimit="10" width="26.786" height="25.756"/>
<rect x="-378.373" y="492.499" transform="matrix(-0.5 0.866 -0.866 -0.5 -106.6865 1074.9216)" stroke="#FFFFFF" stroke-miterlimit="10" width="29.463" height="28.329"/>
<rect x="-378.358" y="489.47" stroke="#FFFFFF" stroke-miterlimit="10" width="32.97" height="34.34"/>
<rect x="-364.807" y="486.867" transform="matrix(0.5 0.866 -0.866 0.5 266.6683 551.4061)" stroke="#FFFFFF" stroke-miterlimit="10" width="41.204" height="39.563"/>
<rect x="-346.426" y="481.915" transform="matrix(0.866 0.5 -0.5 0.866 210.3619 228.2189)" stroke="#FFFFFF" stroke-miterlimit="10" width="51.507" height="49.454"/>
<rect x="-324.396" y="474.493" stroke="#FFFFFF" stroke-miterlimit="10" width="66.718" height="64.035"/>
<rect x="-302.71" y="463.286" transform="matrix(0.866 -0.5 0.5 0.866 -287.7785 -60.9791)" stroke="#FFFFFF" stroke-miterlimit="10" width="90.066" height="86.443"/>
<polygon stroke="#FFFFFF" stroke-miterlimit="10" points="-120.771,482.166 -183.818,591.367 -288.628,530.856 -225.575,421.655 "/>
<rect x="-538.023" y="476.715" stroke="#000000" stroke-miterlimit="10" width="58.868" height="58.868"/>
<rect x="-500.509" y="484.568" transform="matrix(0.866 -0.5 0.5 0.866 -317.4193 -171.3398)" stroke="#FFFFFF" stroke-miterlimit="10" width="44.15" height="44.148"/>
<rect x="-500.509" y="484.568" transform="matrix(0.866 -0.5 0.5 0.866 -317.4193 -171.3398)" stroke="#FFFFFF" stroke-miterlimit="10" width="44.15" height="44.148"/>
<rect x="-471.566" y="488.974" transform="matrix(0.5 -0.866 0.866 0.5 -665.6917 -139.7834)" stroke="#FFFFFF" stroke-miterlimit="10" width="35.32" height="35.319"/>
<rect x="-449" y="491.433" stroke="#FFFFFF" stroke-miterlimit="10" width="29.434" height="30.414"/>
<rect x="-433.266" y="493.388" transform="matrix(-0.5 -0.866 0.866 -0.5 -1068.1243 396.5865)" stroke="#FFFFFF" stroke-miterlimit="10" width="27.376" height="26.489"/>
<rect x="-417.871" y="494.08" transform="matrix(-0.866 -0.5001 0.5001 -0.866 -1008.8566 742.9333)" stroke="#FFFFFF" stroke-miterlimit="10" width="26.006" height="25.166"/>
<rect x="-402.887" y="494.376" stroke="#FFFFFF" stroke-miterlimit="10" width="25.509" height="24.527"/>
<rect x="-390.781" y="493.775" transform="matrix(-0.866 0.5 -0.5 -0.866 -450.8704 1134.1239)" stroke="#FFFFFF" stroke-miterlimit="10" width="26.786" height="25.756"/>
<rect x="-378.373" y="492.499" transform="matrix(-0.5 0.866 -0.866 -0.5 -106.6865 1074.9216)" stroke="#FFFFFF" stroke-miterlimit="10" width="29.463" height="28.329"/>
<rect x="-378.358" y="489.47" stroke="#FFFFFF" stroke-miterlimit="10" width="32.97" height="34.34"/>
<rect x="-364.807" y="486.867" transform="matrix(0.5 0.866 -0.866 0.5 266.6683 551.4061)" stroke="#FFFFFF" stroke-miterlimit="10" width="41.204" height="39.563"/>
<rect x="-346.426" y="481.915" transform="matrix(0.866 0.5 -0.5 0.866 210.3619 228.2189)" stroke="#FFFFFF" stroke-miterlimit="10" width="51.507" height="49.454"/>
<rect x="-324.396" y="474.493" stroke="#FFFFFF" stroke-miterlimit="10" width="66.718" height="64.035"/>
<rect x="-302.71" y="463.286" transform="matrix(0.866 -0.5 0.5 0.866 -287.7785 -60.9791)" stroke="#FFFFFF" stroke-miterlimit="10" width="90.066" height="86.443"/>
<polygon stroke="#FFFFFF" stroke-miterlimit="10" points="-120.771,482.166 -183.818,591.367 -288.628,530.856 -225.575,421.655 "/>
</svg>
