<?xml version="1.0" encoding="utf-8"?>
<!-- Generator: Adobe Illustrator 16.0.0, SVG Export Plug-In . SVG Version: 6.00 Build 0)  -->
<!DOCTYPE svg PUBLIC "-//W3C//DTD SVG 1.1//EN" "http://www.w3.org/Graphics/SVG/1.1/DTD/svg11.dtd">
<svg version="1.1" id="Ebene_1" xmlns="http://www.w3.org/2000/svg" xmlns:xlink="http://www.w3.org/1999/xlink" x="0px" y="0px"
	 width="600.002px" height="170px" viewBox="-294.501 477.5 600.002 170" enable-background="new -294.501 477.5 600.002 170"
	 xml:space="preserve">
<rect x="-237.175" y="532.41" stroke="#000000" stroke-miterlimit="10" width="60" height="60"/>
<rect x="-199.662" y="540.42" transform="matrix(0.866 -0.5 0.5 0.866 -305.2104 -13.1612)" stroke="#FFFFFF" stroke-miterlimit="10" width="44.998" height="44.999"/>
<rect x="-199.662" y="540.42" transform="matrix(0.866 -0.5 0.5 0.866 -305.2104 -13.1612)" stroke="#FFFFFF" stroke-miterlimit="10" width="44.998" height="44.999"/>
<rect x="-165.162" y="544.925" transform="matrix(0.5 -0.866 0.866 0.5 -561.0759 154.0028)" stroke="#FFFFFF" stroke-miterlimit="10" width="35.998" height="35.997"/>
<rect x="-132.175" y="547.41" stroke="#FFFFFF" stroke-miterlimit="10" width="30" height="31"/>
<rect x="-132.175" y="547.41" stroke="#FFFFFF" stroke-miterlimit="10" width="30" height="31"/>
<rect x="-101.109" y="549.407" transform="matrix(-0.5 -0.866 0.866 -0.5 -618.2275 768.8802)" stroke="#FFFFFF" stroke-miterlimit="10" width="27.9" height="26.998"/>
<rect x="-101.109" y="549.407" transform="matrix(-0.5 -0.866 0.866 -0.5 -618.2275 768.8802)" stroke="#FFFFFF" stroke-miterlimit="10" width="27.9" height="26.998"/>
<rect x="-70.4" y="550.077" transform="matrix(-0.866 -0.5 0.5 -0.866 -388.0997 1021.8072)" stroke="#FFFFFF" stroke-miterlimit="10" width="26.503" height="25.648"/>
<rect x="-70.4" y="550.077" transform="matrix(-0.866 -0.5 0.5 -0.866 -388.0997 1021.8072)" stroke="#FFFFFF" stroke-miterlimit="10" width="26.503" height="25.648"/>
<rect x="-40.175" y="550.41" stroke="#FFFFFF" stroke-miterlimit="10" width="26" height="25"/>
<rect x="-40.175" y="550.41" stroke="#FFFFFF" stroke-miterlimit="10" width="26" height="25"/>
<rect x="-10.848" y="549.797" transform="matrix(-0.866 0.5 -0.5 -0.866 286.6957 1049.0215)" stroke="#FFFFFF" stroke-miterlimit="10" width="27.298" height="26.249"/>
<rect x="-10.848" y="549.797" transform="matrix(-0.866 0.5 -0.5 -0.866 286.6957 1049.0215)" stroke="#FFFFFF" stroke-miterlimit="10" width="27.298" height="26.249"/>
<rect x="17.798" y="548.46" transform="matrix(-0.5001 0.866 -0.866 -0.5001 536.6769 815.9739)" stroke="#FFFFFF" stroke-miterlimit="10" width="30.028" height="28.872"/>
<rect x="17.798" y="548.46" transform="matrix(-0.5001 0.866 -0.866 -0.5001 536.6769 815.9739)" stroke="#FFFFFF" stroke-miterlimit="10" width="30.028" height="28.872"/>
<rect x="45.824" y="545.41" stroke="#FFFFFF" stroke-miterlimit="10" width="34.001" height="35"/>
<rect x="45.824" y="545.41" stroke="#FFFFFF" stroke-miterlimit="10" width="34.001" height="35"/>
<rect x="71.818" y="542.52" transform="matrix(0.5 0.866 -0.866 0.5 533.9016 201.0671)" stroke="#FFFFFF" stroke-miterlimit="10" width="41.998" height="40.797"/>
<rect x="71.818" y="542.52" transform="matrix(0.5 0.866 -0.866 0.5 533.9016 201.0671)" stroke="#FFFFFF" stroke-miterlimit="10" width="41.998" height="40.797"/>
<rect x="96.56" y="537.429" transform="matrix(0.866 0.5 -0.5 0.866 297.9351 14.0197)" stroke="#FFFFFF" stroke-miterlimit="10" width="52.497" height="50.998"/>
<rect x="118.824" y="529.41" stroke="#FFFFFF" stroke-miterlimit="10" width="68" height="67"/>
<rect x="118.824" y="529.41" stroke="#FFFFFF" stroke-miterlimit="10" width="68" height="67"/>
<rect x="136.937" y="517.693" transform="matrix(0.866 -0.5 0.5 0.866 -256.9695 166.8415)" stroke="#FFFFFF" stroke-miterlimit="10" width="91.796" height="90.446"/>
</svg>
