<?xml version="1.0" encoding="utf-8"?>
<!-- Generator: Adobe Illustrator 16.0.0, SVG Export Plug-In . SVG Version: 6.00 Build 0)  -->
<!DOCTYPE svg PUBLIC "-//W3C//DTD SVG 1.1//EN" "http://www.w3.org/Graphics/SVG/1.1/DTD/svg11.dtd">
<svg version="1.1" id="Ebene_1" xmlns="http://www.w3.org/2000/svg" xmlns:xlink="http://www.w3.org/1999/xlink" x="0px" y="0px"
	 width="600px" height="300px" viewBox="0 0 600 300" enable-background="new 0 0 600 300" xml:space="preserve">
<rect x="37.5" y="188.5" stroke="#FFFFFF" stroke-miterlimit="10" width="7" height="111"/>
<rect x="37.648" y="189.481" transform="matrix(0.9962 -0.0872 0.0872 0.9962 -21.1649 4.5181)" stroke="#FFFFFF" stroke-miterlimit="10" width="6.93" height="109.89"/>
<rect x="37.766" y="190.037" transform="matrix(0.9848 -0.1738 0.1738 0.9848 -41.8578 10.8808)" stroke="#FFFFFF" stroke-miterlimit="10" width="6.86" height="108.791"/>
<rect x="37.892" y="190.178" transform="matrix(0.9659 -0.259 0.259 0.9659 -61.7899 19.0182)" stroke="#FFFFFF" stroke-miterlimit="10" width="6.791" height="107.704"/>
<rect x="38.064" y="189.915" transform="matrix(0.9396 -0.3422 0.3422 0.9396 -80.7287 28.8584)" stroke="#FFFFFF" stroke-miterlimit="10" width="6.724" height="106.628"/>
<rect x="38.317" y="189.261" transform="matrix(0.9062 -0.4228 0.4228 0.9062 -98.4265 40.3031)" stroke="#FFFFFF" stroke-miterlimit="10" width="6.657" height="105.561"/>
<rect x="38.686" y="188.234" transform="matrix(0.866 -0.5001 0.5001 0.866 -114.6422 53.2291)" stroke="#FFFFFF" stroke-miterlimit="10" width="6.59" height="104.505"/>
<rect x="39.205" y="186.853" transform="matrix(0.8191 -0.5736 0.5736 0.8191 -129.1676 67.5078)" stroke="#FFFFFF" stroke-miterlimit="10" width="6.524" height="103.46"/>
<rect x="39.905" y="185.138" transform="matrix(0.7661 -0.6428 0.6428 0.7661 -141.8264 83.0155)" stroke="#FFFFFF" stroke-miterlimit="10" width="6.459" height="102.425"/>
<rect x="40.816" y="183.114" transform="matrix(0.7071 -0.7071 0.7071 0.7071 -152.4408 99.6043)" stroke="#FFFFFF" stroke-miterlimit="10" width="6.394" height="101.401"/>
<rect x="41.964" y="180.806" transform="matrix(0.6428 -0.766 0.766 0.6428 -160.8345 117.0857)" stroke="#FFFFFF" stroke-miterlimit="10" width="6.331" height="100.386"/>
<rect x="43.374" y="178.241" transform="matrix(0.5736 -0.8192 0.8192 0.5736 -166.8788 135.2925)" stroke="#FFFFFF" stroke-miterlimit="10" width="6.267" height="99.383"/>
<rect x="45.07" y="175.448" transform="matrix(0.5 -0.866 0.866 0.5 -170.4604 154.042)" stroke="#FFFFFF" stroke-miterlimit="10" width="6.204" height="98.389"/>
<rect x="47.071" y="172.456" transform="matrix(0.4226 -0.9063 0.9063 0.4226 -171.4892 173.1503)" stroke="#FFFFFF" stroke-miterlimit="10" width="6.143" height="97.405"/>
<rect x="49.393" y="169.296" transform="matrix(0.342 -0.9397 0.9397 0.342 -169.8949 192.4052)" stroke="#FFFFFF" stroke-miterlimit="10" width="6.081" height="96.431"/>
<rect x="52.052" y="165.998" transform="matrix(0.2587 -0.966 0.966 0.2587 -165.6381 211.6224)" stroke="#FFFFFF" stroke-miterlimit="10" width="6.02" height="95.467"/>
<rect x="55.059" y="162.596" transform="matrix(0.1736 -0.9848 0.9848 0.1736 -158.7021 230.5827)" stroke="#FFFFFF" stroke-miterlimit="10" width="5.961" height="94.512"/>
<rect x="58.421" y="159.119" transform="matrix(0.0871 -0.9962 0.9962 0.0871 -149.0951 249.1018)" stroke="#FFFFFF" stroke-miterlimit="10" width="5.901" height="93.567"/>
<rect x="18.5" y="198.5" stroke="#FFFFFF" stroke-miterlimit="10" width="93" height="6"/>
<rect x="66.081" y="151.458" transform="matrix(-0.0871 -0.9962 0.9962 -0.0871 -121.6745 283.4879)" stroke="#FFFFFF" stroke-miterlimit="10" width="5.941" height="92.07"/>
<rect x="69.82" y="147.995" transform="matrix(-0.1736 -0.9848 0.9848 -0.1736 -105.2392 298.8292)" stroke="#FFFFFF" stroke-miterlimit="10" width="5.881" height="91.149"/>
<rect x="73.233" y="144.641" transform="matrix(-0.2588 -0.9659 0.9659 -0.2588 -87.4491 312.4131)" stroke="#FFFFFF" stroke-miterlimit="10" width="5.823" height="90.237"/>
<rect x="76.341" y="141.422" transform="matrix(-0.342 -0.9397 0.9397 -0.342 -68.5578 324.1704)" stroke="#FFFFFF" stroke-miterlimit="10" width="5.764" height="89.335"/>
<rect x="79.162" y="138.363" transform="matrix(-0.4225 -0.9063 0.9063 -0.4225 -48.8127 334.067)" stroke="#FFFFFF" stroke-miterlimit="10" width="5.707" height="88.442"/>
<rect x="81.72" y="135.487" transform="matrix(-0.4999 -0.8661 0.8661 -0.4999 -28.4463 342.1071)" stroke="#FFFFFF" stroke-miterlimit="10" width="5.65" height="87.557"/>
<rect x="84.038" y="132.818" transform="matrix(-0.5735 -0.8192 0.8192 -0.5735 -7.6681 348.3253)" stroke="#FFFFFF" stroke-miterlimit="10" width="5.593" height="86.682"/>
<rect x="86.143" y="130.372" transform="matrix(-0.6427 -0.7661 0.7661 -0.6427 13.31 352.7677)" stroke="#FFFFFF" stroke-miterlimit="10" width="5.537" height="85.816"/>
<rect x="88.061" y="128.17" transform="matrix(-0.707 -0.7072 0.7072 -0.707 34.3184 355.5145)" stroke="#FFFFFF" stroke-miterlimit="10" width="5.482" height="84.957"/>
<rect x="89.818" y="126.225" transform="matrix(-0.7659 -0.6429 0.6429 -0.7659 55.2128 356.6583)" stroke="#FFFFFF" stroke-miterlimit="10" width="5.427" height="84.107"/>
<rect x="91.444" y="124.55" transform="matrix(-0.819 -0.5738 0.5738 -0.819 75.8766 356.2985)" stroke="#FFFFFF" stroke-miterlimit="10" width="5.373" height="83.266"/>
<rect x="92.967" y="123.156" transform="matrix(-0.866 -0.5001 0.5001 -0.866 96.2354 354.5366)" stroke="#FFFFFF" stroke-miterlimit="10" width="5.319" height="82.433"/>
<rect x="94.415" y="122.051" transform="matrix(-0.9063 -0.4226 0.4226 -0.9063 116.1723 351.4683)" stroke="#FFFFFF" stroke-miterlimit="10" width="5.266" height="81.609"/>
<rect x="95.817" y="121.242" transform="matrix(-0.9397 -0.342 0.342 -0.9397 135.6243 347.1924)" stroke="#FFFFFF" stroke-miterlimit="10" width="5.213" height="80.793"/>
<rect x="97.203" y="120.73" transform="matrix(-0.9659 -0.2588 0.2588 -0.9659 154.5657 341.7969)" stroke="#FFFFFF" stroke-miterlimit="10" width="5.161" height="79.986"/>
<rect x="98.6" y="120.518" transform="matrix(-0.9848 -0.1737 0.1737 -0.9848 172.9575 335.3608)" stroke="#FFFFFF" stroke-miterlimit="10" width="5.11" height="79.186"/>
<rect x="100.036" y="120.605" transform="matrix(-0.9962 -0.0873 0.0873 -0.9962 190.7958 327.9433)" stroke="#FFFFFF" stroke-miterlimit="10" width="5.059" height="78.394"/>
<polygon stroke="#FFFFFF" stroke-miterlimit="10" points="101.537,120.5 106.5,120.5 106.5,198.596 101.516,198.355 "/>
<polygon stroke="#FFFFFF" stroke-miterlimit="10" points="99.746,121.537 104.641,121.109 111.379,198.13 106.443,198.323 "/>
<polygon stroke="#FFFFFF" stroke-miterlimit="10" points="98.068,122.555 102.859,121.71 116.15,197.089 111.298,197.706 "/>
<polygon stroke="#FFFFFF" stroke-miterlimit="10" points="96.527,123.547 101.18,122.301 120.792,195.495 116.06,196.522 "/>
<polygon stroke="#FFFFFF" stroke-miterlimit="10" points="95.171,124.507 99.652,122.876 125.31,193.371 120.732,194.792 "/>
<polygon stroke="#FFFFFF" stroke-miterlimit="10" points="94.044,125.428 98.323,123.433 129.71,190.743 125.318,192.54 "/>
<polygon stroke="#FFFFFF" stroke-miterlimit="10" points="93.189,126.303 97.237,123.966 134,187.642 129.823,189.793 "/>
<polygon stroke="#FFFFFF" stroke-miterlimit="10" points="92.644,127.127 96.435,124.473 138.186,184.1 134.252,186.582 "/>
<polygon stroke="#FFFFFF" stroke-miterlimit="10" points="92.446,127.895 95.955,124.95 142.277,180.153 138.611,182.941 "/>
<polygon stroke="#FFFFFF" stroke-miterlimit="10" points="92.627,128.602 95.834,125.395 146.281,175.841 142.906,178.906 "/>
<polygon stroke="#FFFFFF" stroke-miterlimit="10" points="93.217,129.242 96.104,125.803 150.209,171.202 147.145,174.517 "/>
<polygon stroke="#FFFFFF" stroke-miterlimit="10" points="94.242,129.814 96.792,126.173 154.069,166.279 151.333,169.813 "/>
<polygon stroke="#FFFFFF" stroke-miterlimit="10" points="95.722,130.314 97.922,126.503 157.873,161.115 155.479,164.836 "/>
<polygon stroke="#FFFFFF" stroke-miterlimit="10" points="97.676,130.74 99.517,126.791 161.628,155.754 159.588,159.63 "/>
<polygon stroke="#FFFFFF" stroke-miterlimit="10" points="100.118,131.09 101.593,127.036 165.348,150.241 163.67,154.239 "/>
<polygon stroke="#FFFFFF" stroke-miterlimit="10" points="103.057,131.362 104.162,127.236 169.042,144.621 167.732,148.709 "/>
<polygon stroke="#FFFFFF" stroke-miterlimit="10" points="106.5,131.557 107.233,127.392 172.72,138.939 171.781,143.084 "/>
<polygon stroke="#FFFFFF" stroke-miterlimit="10" points="110.447,131.674 110.812,127.502 176.393,133.241 175.824,137.409 "/>
<polygon stroke="#FFFFFF" stroke-miterlimit="10" points="114.5,131.714 114.5,127.567 179.873,127.569 179.571,131.729 "/>
<polygon stroke="#FFFFFF" stroke-miterlimit="10" points="119.449,131.678 119.091,127.588 183.563,121.949 183.625,126.078 "/>
<polygon stroke="#FFFFFF" stroke-miterlimit="10" points="124.39,131.607 123.684,127.604 186.782,116.48 187.2,120.548 "/>
<polygon stroke="#FFFFFF" stroke-miterlimit="10" points="129.322,131.504 128.28,127.617 189.55,111.202 190.313,115.178 "/>
<polygon stroke="#FFFFFF" stroke-miterlimit="10" points="134.246,131.369 132.884,127.626 191.894,106.15 192.989,110.006 "/>
<polygon stroke="#FFFFFF" stroke-miterlimit="10" points="139.163,131.205 137.497,127.631 193.841,101.359 195.254,105.067 "/>
<polygon stroke="#FFFFFF" stroke-miterlimit="10" points="144.074,131.014 142.122,127.632 195.423,96.86 197.138,100.396 "/>
<polygon stroke="#FFFFFF" stroke-miterlimit="10" points="148.979,130.796 146.762,127.629 196.674,92.682 198.67,96.021 "/>
<polygon stroke="#FFFFFF" stroke-miterlimit="10" points="153.878,130.554 151.419,127.622 197.629,88.85 199.885,91.97 "/>
<polygon stroke="#FFFFFF" stroke-miterlimit="10" points="158.774,130.29 156.096,127.611 198.324,85.386 200.818,88.268 "/>
<polygon stroke="#FFFFFF" stroke-miterlimit="10" points="163.667,130.008 160.794,127.597 198.797,82.309 201.506,84.936 "/>
<polygon stroke="#FFFFFF" stroke-miterlimit="10" points="168.557,129.709 165.516,127.579 199.087,79.635 201.986,81.992 "/>
<polygon stroke="#FFFFFF" stroke-miterlimit="10" points="173.445,129.396 170.262,127.558 199.235,77.377 202.297,79.451 "/>
<polygon stroke="#FFFFFF" stroke-miterlimit="10" points="178.333,129.072 175.035,127.533 199.279,75.544 202.478,77.325 "/>
<polygon stroke="#FFFFFF" stroke-miterlimit="10" points="183.221,128.739 179.836,127.506 199.26,74.141 202.569,75.621 "/>
<polygon stroke="#FFFFFF" stroke-miterlimit="10" points="188.11,128.4 184.666,127.477 199.218,73.17 202.608,74.345 "/>
<polygon stroke="#FFFFFF" stroke-miterlimit="10" points="193.001,128.059 189.524,127.445 199.19,72.63 202.636,73.496 "/>
<polygon stroke="#FFFFFF" stroke-miterlimit="10" points="197.896,127.717 194.414,127.412 199.217,72.517 202.689,73.074 "/>
<polygon stroke="#FFFFFF" stroke-miterlimit="10" points="202.793,127.5 199.5,127.5 199.5,72.823 202.89,73.135 "/>
<polygon stroke="#FFFFFF" stroke-miterlimit="10" points="207.698,127.18 204.45,127.464 199.732,73.54 203.102,73.555 "/>
<polygon stroke="#FFFFFF" stroke-miterlimit="10" points="212.51,126.457 209.331,127.018 200.025,74.242 203.35,73.967 "/>
<polygon stroke="#FFFFFF" stroke-miterlimit="10" points="217.231,125.345 214.145,126.172 200.414,74.926 203.668,74.367 "/>
<polygon stroke="#FFFFFF" stroke-miterlimit="10" points="221.867,123.859 218.895,124.941 200.93,75.586 204.092,74.754 "/>
<polygon stroke="#FFFFFF" stroke-miterlimit="10" points="226.421,122.02 223.583,123.344 201.607,76.218 204.654,75.124 "/>
<polygon stroke="#FFFFFF" stroke-miterlimit="10" points="230.899,119.847 228.214,121.397 202.475,76.816 205.385,75.475 "/>
<polygon stroke="#FFFFFF" stroke-miterlimit="10" points="235.305,117.363 232.791,119.125 203.56,77.379 206.313,75.804 "/>
<polygon stroke="#FFFFFF" stroke-miterlimit="10" points="239.646,114.596 237.318,116.55 204.887,77.9 207.467,76.109 "/>
<polygon stroke="#FFFFFF" stroke-miterlimit="10" points="243.928,111.569 241.801,113.697 206.481,78.379 208.872,76.39 "/>
<polygon stroke="#FFFFFF" stroke-miterlimit="10" points="248.157,108.313 246.243,110.596 208.363,78.811 210.548,76.643 "/>
<polygon stroke="#FFFFFF" stroke-miterlimit="10" points="252.341,104.857 250.651,107.273 210.549,79.193 212.518,76.867 "/>
<polygon stroke="#FFFFFF" stroke-miterlimit="10" points="256.487,101.23 255.029,103.76 213.056,79.526 214.797,77.063 "/>
<polygon stroke="#FFFFFF" stroke-miterlimit="10" points="260.602,97.465 259.382,100.085 215.896,79.807 217.4,77.227 "/>
<polygon stroke="#FFFFFF" stroke-miterlimit="10" points="264.693,93.592 263.716,96.281 219.08,80.034 220.34,77.359 "/>
<polygon stroke="#FFFFFF" stroke-miterlimit="10" points="268.769,89.643 268.037,92.379 222.613,80.207 223.625,77.461 "/>
<polygon stroke="#FFFFFF" stroke-miterlimit="10" points="272.835,85.649 272.35,88.411 226.5,80.326 227.262,77.53 "/>
<polygon stroke="#FFFFFF" stroke-miterlimit="10" points="276.9,81.644 276.66,84.409 230.744,80.392 231.254,77.568 "/>
<polygon stroke="#FFFFFF" stroke-miterlimit="10" points="280.5,77.655 280.5,80.5 235.343,80.5 235.366,77.623 "/>
<polygon stroke="#FFFFFF" stroke-miterlimit="10" points="284.583,73.762 284.828,76.567 240.292,80.463 240.067,77.624 "/>
<polygon stroke="#FFFFFF" stroke-miterlimit="10" points="288.338,69.974 288.822,72.72 245.235,80.404 244.768,77.624 "/>
<polygon stroke="#FFFFFF" stroke-miterlimit="10" points="291.78,66.316 292.494,68.982 250.171,80.322 249.47,77.621 "/>
<polygon stroke="#FFFFFF" stroke-miterlimit="10" points="294.928,62.814 295.862,65.382 255.1,80.218 254.176,77.614 "/>
<polygon stroke="#FFFFFF" stroke-miterlimit="10" points="297.801,59.492 298.944,61.943 260.023,80.092 258.887,77.604 "/>
<polygon stroke="#FFFFFF" stroke-miterlimit="10" points="300.421,56.37 301.76,58.689 264.94,79.945 263.606,77.59 "/>
<polygon stroke="#FFFFFF" stroke-miterlimit="10" points="302.812,53.469 304.332,55.641 269.854,79.781 268.334,77.573 "/>
<polygon stroke="#FFFFFF" stroke-miterlimit="10" points="304.997,50.806 306.684,52.816 274.763,79.6 273.074,77.554 "/>
<polygon stroke="#FFFFFF" stroke-miterlimit="10" points="307.002,48.396 308.839,50.234 279.669,79.403 277.827,77.531 "/>
<polygon stroke="#FFFFFF" stroke-miterlimit="10" points="308.854,46.255 310.825,47.909 284.573,79.193 282.595,77.506 "/>
<polygon stroke="#FFFFFF" stroke-miterlimit="10" points="310.58,44.392 312.666,45.854 289.475,78.972 287.378,77.479 "/>
<polygon stroke="#FFFFFF" stroke-miterlimit="10" points="312.207,42.815 314.391,44.077 294.376,78.74 292.18,77.449 "/>
<polygon stroke="#FFFFFF" stroke-miterlimit="10" points="313.763,41.533 316.025,42.589 299.277,78.501 297,77.418 "/>
<polygon stroke="#FFFFFF" stroke-miterlimit="10" points="315.275,40.548 317.598,41.394 304.179,78.256 301.84,77.385 "/>
<polygon stroke="#FFFFFF" stroke-miterlimit="10" points="316.772,39.861 319.136,40.495 309.083,78.008 306.7,77.351 "/>
<polygon stroke="#FFFFFF" stroke-miterlimit="10" points="318.281,39.473 320.667,39.895 313.988,77.758 311.582,77.315 "/>
<polygon stroke="#FFFFFF" stroke-miterlimit="10" points="319.827,39.38 322.216,39.59 318.897,77.508 316.485,77.279 "/>
<polygon stroke="#FFFFFF" stroke-miterlimit="10" points="321.437,39.5 323.811,39.5 323.809,77.222 321.411,77.186 "/>
<polygon stroke="#FFFFFF" stroke-miterlimit="10" points="323.131,39.98 325.473,39.776 328.726,76.979 326.357,77.149 "/>
<polygon stroke="#FFFFFF" stroke-miterlimit="10" points="324.87,40.453 327.162,40.049 333.58,76.459 331.259,76.831 "/>
<polygon stroke="#FFFFFF" stroke-miterlimit="10" points="326.674,40.912 328.899,40.315 338.371,75.67 336.114,76.237 "/>
<polygon stroke="#FFFFFF" stroke-miterlimit="10" points="328.565,41.354 330.708,40.573 343.1,74.624 340.923,75.378 "/>
<polygon stroke="#FFFFFF" stroke-miterlimit="10" points="330.566,41.775 332.612,40.821 347.771,73.334 345.689,74.265 "/>
<polygon stroke="#FFFFFF" stroke-miterlimit="10" points="332.697,42.174 334.633,41.057 352.389,71.814 350.416,72.911 "/>
<polygon stroke="#FFFFFF" stroke-miterlimit="10" points="334.977,42.547 336.79,41.278 356.955,70.081 355.104,71.333 "/>
<polygon stroke="#FFFFFF" stroke-miterlimit="10" points="337.424,42.893 339.103,41.485 361.476,68.151 359.758,69.546 "/>
<polygon stroke="#FFFFFF" stroke-miterlimit="10" points="340.055,43.209 341.588,41.676 365.954,66.044 364.38,67.567 "/>
<polygon stroke="#FFFFFF" stroke-miterlimit="10" points="342.883,43.493 344.263,41.849 370.396,63.779 368.975,65.417 "/>
<polygon stroke="#FFFFFF" stroke-miterlimit="10" points="345.921,43.744 347.14,42.003 374.806,61.377 373.546,63.114 "/>
<polygon stroke="#FFFFFF" stroke-miterlimit="10" points="349.18,43.96 350.232,42.138 379.189,58.858 378.096,60.68 "/>
<polygon stroke="#FFFFFF" stroke-miterlimit="10" points="352.669,44.141 353.55,42.252 383.551,56.244 382.63,58.135 "/>
<polygon stroke="#FFFFFF" stroke-miterlimit="10" points="356.396,44.285 357.102,42.347 387.896,53.558 387.151,55.502 "/>
<polygon stroke="#FFFFFF" stroke-miterlimit="10" points="360.364,44.394 360.893,42.42 392.231,50.82 391.664,52.802 "/>
<polygon stroke="#FFFFFF" stroke-miterlimit="10" points="364.578,44.465 364.929,42.473 396.56,48.054 396.172,50.057 "/>
<polygon stroke="#FFFFFF" stroke-miterlimit="10" points="369.037,44.5 369.211,42.505 400.889,45.279 400.679,47.289 "/>
<polygon stroke="#FFFFFF" stroke-miterlimit="10" points="373.5,44.499 373.5,42.517 405.102,42.52 405.008,44.52 "/>
<polygon stroke="#FFFFFF" stroke-miterlimit="10" points="378.448,44.463 378.277,42.508 409.444,39.784 409.524,41.765 "/>
<polygon stroke="#FFFFFF" stroke-miterlimit="10" points="383.392,44.409 383.055,42.495 413.557,37.12 413.807,39.066 "/>
<polygon stroke="#FFFFFF" stroke-miterlimit="10" points="388.329,44.338 387.832,42.479 417.45,34.547 417.864,36.444 "/>
<polygon stroke="#FFFFFF" stroke-miterlimit="10" points="393.261,44.25 392.61,42.461 421.137,32.082 421.708,33.917 "/>
<polygon stroke="#FFFFFF" stroke-miterlimit="10" points="398.188,44.147 397.392,42.439 424.63,29.741 425.352,31.502 "/>
<polygon stroke="#FFFFFF" stroke-miterlimit="10" points="403.11,44.03 402.178,42.415 427.945,27.541 428.81,29.216 "/>
<polygon stroke="#FFFFFF" stroke-miterlimit="10" points="408.029,43.9 406.97,42.388 431.1,25.495 432.096,27.072 "/>
<polygon stroke="#FFFFFF" stroke-miterlimit="10" points="412.945,43.759 411.77,42.358 434.11,23.616 435.229,25.086 "/>
<polygon stroke="#FFFFFF" stroke-miterlimit="10" points="417.858,43.606 416.579,42.326 436.994,21.915 438.224,23.268 "/>
<polygon stroke="#FFFFFF" stroke-miterlimit="10" points="422.77,43.444 421.397,42.293 439.771,20.4 441.101,21.629 "/>
<polygon stroke="#FFFFFF" stroke-miterlimit="10" points="427.681,43.274 426.228,42.258 442.459,19.081 443.876,20.178 "/>
<polygon stroke="#FFFFFF" stroke-miterlimit="10" points="432.591,43.099 431.07,42.222 445.078,17.963 446.571,18.923 "/>
<polygon stroke="#FFFFFF" stroke-miterlimit="10" points="437.501,42.918 435.926,42.185 447.648,17.051 449.203,17.869 "/>
<polygon stroke="#FFFFFF" stroke-miterlimit="10" points="442.413,42.734 440.796,42.146 450.188,16.348 451.792,17.021 "/>
<polygon stroke="#FFFFFF" stroke-miterlimit="10" points="447.327,42.549 445.682,42.108 452.718,15.854 454.358,16.379 "/>
<polygon stroke="#FFFFFF" stroke-miterlimit="10" points="452.243,42.362 450.583,42.07 455.256,15.57 456.919,15.946 "/>
<polygon stroke="#FFFFFF" stroke-miterlimit="10" points="457.162,42.177 455.5,42.032 457.822,15.494 459.495,15.721 "/>
<polygon stroke="#FFFFFF" stroke-miterlimit="10" points="462.085,41.5 460.5,41.5 460.5,15.622 462.137,15.454 "/>
<polygon stroke="#FFFFFF" stroke-miterlimit="10" points="467.013,41.327 465.45,41.464 463.217,15.942 464.817,15.635 "/>
<polygon stroke="#FFFFFF" stroke-miterlimit="10" points="471.895,40.963 470.365,41.232 465.96,16.255 467.512,15.813 "/>
<polygon stroke="#FFFFFF" stroke-miterlimit="10" points="476.732,40.413 475.246,40.811 468.748,16.558 470.24,15.988 "/>
<polygon stroke="#FFFFFF" stroke-miterlimit="10" points="481.527,39.687 480.096,40.207 471.594,16.848 473.017,16.158 "/>
<polygon stroke="#FFFFFF" stroke-miterlimit="10" points="486.282,38.791 484.915,39.429 474.514,17.124 475.858,16.321 "/>
<polygon stroke="#FFFFFF" stroke-miterlimit="10" points="490.999,37.738 489.706,38.484 477.523,17.385 478.779,16.477 "/>
<polygon stroke="#FFFFFF" stroke-miterlimit="10" points="495.681,36.538 494.47,37.386 480.635,17.628 481.795,16.624 "/>
<polygon stroke="#FFFFFF" stroke-miterlimit="10" points="500.331,35.203 499.21,36.144 483.861,17.852 484.918,16.762 "/>
<polygon stroke="#FFFFFF" stroke-miterlimit="10" points="504.953,33.746 503.929,34.771 487.212,18.055 488.162,16.889 "/>
<polygon stroke="#FFFFFF" stroke-miterlimit="10" points="509.55,32.182 508.628,33.28 490.7,18.236 491.535,17.005 "/>
<polygon stroke="#FFFFFF" stroke-miterlimit="10" points="514.126,30.522 513.312,31.686 494.332,18.396 495.049,17.109 "/>
<polygon stroke="#FFFFFF" stroke-miterlimit="10" points="518.684,28.783 517.981,30.001 498.116,18.531 498.712,17.201 "/>
<polygon stroke="#FFFFFF" stroke-miterlimit="10" points="523.228,26.979 522.64,28.241 502.059,18.644 502.532,17.28 "/>
<polygon stroke="#FFFFFF" stroke-miterlimit="10" points="527.762,25.126 527.291,26.421 506.165,18.731 506.514,17.346 "/>
<polygon stroke="#FFFFFF" stroke-miterlimit="10" points="532.289,23.238 531.936,24.556 510.438,18.795 510.663,17.397 "/>
<polygon stroke="#FFFFFF" stroke-miterlimit="10" points="536.814,21.33 536.579,22.66 514.88,18.834 514.981,17.436 "/>
<polygon stroke="#FFFFFF" stroke-miterlimit="10" points="541.34,19.418 541.223,20.75 519.492,18.849 519.472,17.461 "/>
<polygon stroke="#FFFFFF" stroke-miterlimit="10" points="545.5,17.513 545.5,18.5 524.274,18.5 523.949,17.301 "/>
<polygon stroke="#FFFFFF" stroke-miterlimit="10" points="550.066,15.617 550.151,16.591 529.217,18.422 528.793,17.268 "/>
<polygon stroke="#FFFFFF" stroke-miterlimit="10" points="554.476,13.768 554.644,14.721 534.156,18.332 533.638,17.23 "/>
<polygon stroke="#FFFFFF" stroke-miterlimit="10" points="558.736,11.977 558.984,12.902 539.09,18.231 538.484,17.189 "/>
<polygon stroke="#FFFFFF" stroke-miterlimit="10" points="562.857,10.258 563.182,11.148 544.021,18.121 543.334,17.146 "/>
<polygon stroke="#FFFFFF" stroke-miterlimit="10" points="566.848,8.621 567.244,9.472 548.949,18.002 548.187,17.1 "/>
<polygon stroke="#FFFFFF" stroke-miterlimit="10" points="570.717,7.079 571.182,7.884 553.875,17.875 553.045,17.051 "/>
<polygon stroke="#FFFFFF" stroke-miterlimit="10" points="574.478,5.641 575.005,6.395 558.798,17.741 557.909,17 "/>
<polygon stroke="#FFFFFF" stroke-miterlimit="10" points="578.14,4.314 578.725,5.013 563.72,17.602 562.779,16.947 "/>
<polygon stroke="#FFFFFF" stroke-miterlimit="10" points="581.716,3.109 582.353,3.747 568.641,17.457 567.657,16.894 "/>
<polygon stroke="#FFFFFF" stroke-miterlimit="10" points="585.219,2.031 585.903,2.605 573.563,17.31 572.543,16.839 "/>
<polygon stroke="#FFFFFF" stroke-miterlimit="10" points="588.662,1.086 589.386,1.594 578.484,17.16 577.438,16.784 "/>
<polygon stroke="#FFFFFF" stroke-miterlimit="10" points="592.058,0.279 592.816,0.717 583.407,17.01 582.343,16.729 "/>
<polygon stroke="#FFFFFF" stroke-miterlimit="10" points="595.42,-0.387 596.205,-0.021 588.332,16.859 587.258,16.676 "/>
<polygon stroke="#FFFFFF" stroke-miterlimit="10" points="598.761,-0.909 599.567,-0.616 593.259,16.711 592.184,16.622 "/>
<polygon stroke="#FFFFFF" stroke-miterlimit="10" points="602.095,-1.287 602.916,-1.068 598.188,16.565 597.121,16.57 "/>
</svg>
