<?xml version="1.0" encoding="utf-8"?>
<!-- Generator: Adobe Illustrator 16.0.0, SVG Export Plug-In . SVG Version: 6.00 Build 0)  -->
<!DOCTYPE svg PUBLIC "-//W3C//DTD SVG 1.1//EN" "http://www.w3.org/Graphics/SVG/1.1/DTD/svg11.dtd">
<svg version="1.1" id="Ebene_1" xmlns="http://www.w3.org/2000/svg" xmlns:xlink="http://www.w3.org/1999/xlink" x="0px" y="0px"
	 width="600px" height="300px" viewBox="0 0 600 300" enable-background="new 0 0 600 300" xml:space="preserve">
<rect x="36.5" y="4.5" stroke="#FFFFFF" stroke-miterlimit="10" width="7" height="111"/>
<rect x="36.758" y="6.17" transform="matrix(0.9962 -0.0872 0.0872 0.9962 -5.1779 3.7417)" stroke="#FFFFFF" stroke-miterlimit="10" width="6.93" height="109.891"/>
<rect x="37.118" y="8.243" transform="matrix(0.9848 -0.1737 0.1737 0.9848 -10.2624 7.994)" stroke="#FFFFFF" stroke-miterlimit="10" width="6.86" height="108.791"/>
<rect x="37.613" y="10.697" transform="matrix(0.9659 -0.2588 0.2588 0.9659 -15.3085 12.8128)" stroke="#FFFFFF" stroke-miterlimit="10" width="6.792" height="107.703"/>
<rect x="38.276" y="13.511" transform="matrix(0.9397 -0.342 0.342 0.9397 -20.3449 18.2719)" stroke="#FFFFFF" stroke-miterlimit="10" width="6.724" height="106.627"/>
<rect x="39.136" y="16.66" transform="matrix(0.9063 -0.4227 0.4227 0.9063 -25.3717 24.4576)" stroke="#FFFFFF" stroke-miterlimit="10" width="6.656" height="105.56"/>
<rect x="40.221" y="20.117" transform="matrix(0.866 -0.5001 0.5001 0.866 -30.3574 31.4586)" stroke="#FFFFFF" stroke-miterlimit="10" width="6.589" height="104.505"/>
<rect x="41.557" y="23.854" transform="matrix(0.8191 -0.5737 0.5737 0.8191 -35.2528 39.3873)" stroke="#FFFFFF" stroke-miterlimit="10" width="6.523" height="103.46"/>
<rect x="43.167" y="27.84" transform="matrix(0.766 -0.6429 0.6429 0.766 -39.963 48.3269)" stroke="#FFFFFF" stroke-miterlimit="10" width="6.458" height="102.426"/>
<rect x="45.071" y="32.045" transform="matrix(0.707 -0.7072 0.7072 0.707 -44.3754 58.376)" stroke="#FFFFFF" stroke-miterlimit="10" width="6.392" height="101.402"/>
<rect x="47.288" y="36.435" transform="matrix(0.6427 -0.7661 0.7661 0.6427 -48.3419 69.6073)" stroke="#FFFFFF" stroke-miterlimit="10" width="6.329" height="100.388"/>
<rect x="49.833" y="40.979" transform="matrix(0.5734 -0.8192 0.8192 0.5734 -51.6884 82.0683)" stroke="#FFFFFF" stroke-miterlimit="10" width="6.265" height="99.384"/>
<rect x="52.719" y="45.64" transform="matrix(0.4999 -0.8661 0.8661 0.4999 -54.2194 95.7739)" stroke="#FFFFFF" stroke-miterlimit="10" width="6.203" height="98.39"/>
<rect x="55.954" y="50.385" transform="matrix(0.4226 -0.9063 0.9063 0.4226 -55.7249 110.714)" stroke="#FFFFFF" stroke-miterlimit="10" width="6.141" height="97.407"/>
<rect x="59.546" y="55.181" transform="matrix(0.342 -0.9397 0.9397 0.342 -55.9811 126.8486)" stroke="#FFFFFF" stroke-miterlimit="10" width="6.079" height="96.432"/>
<rect x="63.499" y="59.993" transform="matrix(0.2588 -0.9659 0.9659 0.2588 -54.7614 144.0888)" stroke="#FFFFFF" stroke-miterlimit="10" width="6.019" height="95.468"/>
<rect x="67.813" y="64.788" transform="matrix(0.1737 -0.9848 0.9848 0.1737 -51.8468 162.2957)" stroke="#FFFFFF" stroke-miterlimit="10" width="5.959" height="94.514"/>
<rect x="72.487" y="69.532" transform="matrix(0.0872 -0.9962 0.9962 0.0872 -47.0163 181.3183)" stroke="#FFFFFF" stroke-miterlimit="10" width="5.899" height="93.569"/>
<rect x="34.5" y="117.59" stroke="#FFFFFF" stroke-miterlimit="10" width="92" height="5.841"/>
<rect x="82.953" y="79.03" transform="matrix(-0.0871 -0.9962 0.9962 -0.0871 -30.7703 220.9425)" stroke="#FFFFFF" stroke-miterlimit="10" width="5.783" height="91.079"/>
<rect x="87.98" y="83.57" transform="matrix(-0.1737 -0.9848 0.9848 -0.1737 -20.0812 240.4577)" stroke="#FFFFFF" stroke-miterlimit="10" width="5.725" height="90.168"/>
<rect x="92.666" y="88.099" transform="matrix(-0.2588 -0.9659 0.9659 -0.2588 -7.9952 259.3288)" stroke="#FFFFFF" stroke-miterlimit="10" width="5.668" height="89.266"/>
<rect x="97.02" y="92.586" transform="matrix(-0.342 -0.9397 0.9397 -0.342 5.4418 277.3564)" stroke="#FFFFFF" stroke-miterlimit="10" width="5.611" height="88.374"/>
<rect x="101.055" y="97.002" transform="matrix(-0.4226 -0.9063 0.9063 -0.4226 20.1584 294.336)" stroke="#FFFFFF" stroke-miterlimit="10" width="5.555" height="87.49"/>
<rect x="104.785" y="101.317" transform="matrix(-0.5001 -0.866 0.866 -0.5001 36.0737 310.0741)" stroke="#FFFFFF" stroke-miterlimit="10" width="5.499" height="86.616"/>
<rect x="108.225" y="105.504" transform="matrix(-0.5738 -0.819 0.819 -0.5738 53.0777 324.3806)" stroke="#FFFFFF" stroke-miterlimit="10" width="5.443" height="85.75"/>
<rect x="111.393" y="109.537" transform="matrix(-0.6429 -0.766 0.766 -0.6429 71.0197 337.0771)" stroke="#FFFFFF" stroke-miterlimit="10" width="5.388" height="84.891"/>
<rect x="114.309" y="113.392" transform="matrix(-0.7071 -0.7071 0.7071 -0.7071 89.7965 348.0201)" stroke="#FFFFFF" stroke-miterlimit="10" width="5.334" height="84.041"/>
<rect x="116.993" y="117.044" transform="matrix(-0.7661 -0.6427 0.6427 -0.7661 109.3173 357.0735)" stroke="#FFFFFF" stroke-miterlimit="10" width="5.28" height="83.202"/>
<rect x="119.468" y="120.474" transform="matrix(-0.8193 -0.5734 0.5734 -0.8193 129.4047 364.1042)" stroke="#FFFFFF" stroke-miterlimit="10" width="5.227" height="82.37"/>
<rect x="121.758" y="123.664" transform="matrix(-0.8661 -0.4999 0.4999 -0.8661 149.8285 369.0134)" stroke="#FFFFFF" stroke-miterlimit="10" width="5.175" height="81.545"/>
<rect x="123.887" y="126.596" transform="matrix(-0.9064 -0.4224 0.4224 -0.9064 170.5352 371.7086)" stroke="#FFFFFF" stroke-miterlimit="10" width="5.123" height="80.73"/>
<rect x="125.881" y="129.256" transform="matrix(-0.9398 -0.3418 0.3418 -0.9398 191.271 372.1343)" stroke="#FFFFFF" stroke-miterlimit="10" width="5.072" height="79.923"/>
<rect x="127.767" y="131.633" transform="matrix(-0.966 -0.2585 0.2585 -0.966 211.8681 370.2505)" stroke="#FFFFFF" stroke-miterlimit="10" width="5.02" height="79.124"/>
<rect x="129.568" y="133.718" transform="matrix(-0.9849 -0.1733 0.1733 -0.9849 232.1522 366.0356)" stroke="#FFFFFF" stroke-miterlimit="10" width="4.971" height="78.333"/>
<rect x="131.313" y="135.503" transform="matrix(-0.9962 -0.0867 0.0867 -0.9962 251.9298 359.4995)" stroke="#FFFFFF" stroke-miterlimit="10" width="4.921" height="77.55"/>
<polygon stroke="#FFFFFF" stroke-miterlimit="10" points="133.5,136.983 138.135,136.98 138.258,213.755 133.5,213.757 "/>
<polygon stroke="#FFFFFF" stroke-miterlimit="10" points="131.905,138.501 136.476,138.098 143.222,213.805 138.529,214.218 "/>
<polygon stroke="#FFFFFF" stroke-miterlimit="10" points="130.488,140.574 134.961,139.782 148.146,213.864 143.555,214.677 "/>
<polygon stroke="#FFFFFF" stroke-miterlimit="10" points="129.295,143.176 133.638,142.009 153.034,213.934 148.576,215.131 "/>
<polygon stroke="#FFFFFF" stroke-miterlimit="10" points="128.369,146.276 132.551,144.75 157.887,214.012 153.593,215.577 "/>
<polygon stroke="#FFFFFF" stroke-miterlimit="10" points="127.749,149.842 131.742,147.976 162.705,214.098 158.605,216.012 "/>
<polygon stroke="#FFFFFF" stroke-miterlimit="10" points="127.473,153.836 131.25,151.65 167.492,214.19 163.613,216.432 "/>
<polygon stroke="#FFFFFF" stroke-miterlimit="10" points="127.573,158.219 131.109,155.738 172.249,214.29 168.617,216.835 "/>
<polygon stroke="#FFFFFF" stroke-miterlimit="10" points="128.08,162.95 131.354,160.199 176.979,214.395 173.616,217.218 "/>
<polygon stroke="#FFFFFF" stroke-miterlimit="10" points="129.02,167.987 132.011,164.991 181.684,214.504 178.611,217.578 "/>
<polygon stroke="#FFFFFF" stroke-miterlimit="10" points="130.414,173.285 133.105,170.072 186.367,214.617 183.603,217.914 "/>
<polygon stroke="#FFFFFF" stroke-miterlimit="10" points="132.282,178.798 134.659,175.396 191.031,214.733 188.59,218.223 "/>
<polygon stroke="#FFFFFF" stroke-miterlimit="10" points="134.639,184.479 136.689,180.92 195.68,214.852 193.573,218.503 "/>
<polygon stroke="#FFFFFF" stroke-miterlimit="10" points="137.494,190.283 139.209,186.596 200.315,214.97 198.553,218.753 "/>
<polygon stroke="#FFFFFF" stroke-miterlimit="10" points="140.854,196.162 142.228,192.377 204.94,215.088 203.529,218.972 "/>
<polygon stroke="#FFFFFF" stroke-miterlimit="10" points="144.723,202.069 145.75,198.218 209.559,215.205 208.502,219.157 "/>
<polygon stroke="#FFFFFF" stroke-miterlimit="10" points="149.097,207.96 149.777,204.073 214.173,215.32 213.472,219.31 "/>
<polygon stroke="#FFFFFF" stroke-miterlimit="10" points="153.972,213.789 154.308,209.897 218.787,215.434 218.439,219.428 "/>
<polygon stroke="#FFFFFF" stroke-miterlimit="10" points="159.338,219.514 159.334,215.646 223.403,215.543 223.405,219.512 "/>
<polygon stroke="#FFFFFF" stroke-miterlimit="10" points="165.184,225.092 164.846,221.278 228.024,215.647 228.369,219.562 "/>
<polygon stroke="#FFFFFF" stroke-miterlimit="10" points="171.015,230.598 170.352,226.866 232.175,215.861 232.853,219.691 "/>
<polygon stroke="#FFFFFF" stroke-miterlimit="10" points="176.824,235.991 175.848,232.368 235.87,216.181 236.869,219.899 "/>
<polygon stroke="#FFFFFF" stroke-miterlimit="10" points="182.606,241.233 181.331,237.744 239.13,216.601 240.437,220.183 "/>
<polygon stroke="#FFFFFF" stroke-miterlimit="10" points="188.356,246.287 186.797,242.956 241.977,217.116 243.574,220.536 "/>
<polygon stroke="#FFFFFF" stroke-miterlimit="10" points="194.068,251.118 192.243,247.967 244.434,217.723 246.304,220.957 "/>
<polygon stroke="#FFFFFF" stroke-miterlimit="10" points="199.738,255.693 197.666,252.743 246.528,218.412 248.651,221.44 "/>
<polygon stroke="#FFFFFF" stroke-miterlimit="10" points="205.361,259.983 203.063,257.253 248.29,219.178 250.646,221.981 "/>
<polygon stroke="#FFFFFF" stroke-miterlimit="10" points="210.934,263.961 208.431,261.467 249.75,220.014 252.315,222.575 "/>
<polygon stroke="#FFFFFF" stroke-miterlimit="10" points="216.452,267.603 213.769,265.358 250.942,220.911 253.693,223.216 "/>
<polygon stroke="#FFFFFF" stroke-miterlimit="10" points="221.914,270.887 219.073,268.904 251.9,221.861 254.813,223.897 "/>
<polygon stroke="#FFFFFF" stroke-miterlimit="10" points="227.316,273.795 224.344,272.085 252.66,222.857 255.708,224.614 "/>
<polygon stroke="#FFFFFF" stroke-miterlimit="10" points="232.658,276.313 229.578,274.883 253.258,223.89 256.415,225.359 "/>
<polygon stroke="#FFFFFF" stroke-miterlimit="10" points="237.938,278.429 234.776,277.284 253.73,224.95 256.971,226.127 "/>
<polygon stroke="#FFFFFF" stroke-miterlimit="10" points="243.153,280.135 239.937,279.279 254.114,226.03 257.411,226.911 "/>
<polygon stroke="#FFFFFF" stroke-miterlimit="10" points="248.306,281.426 245.059,280.86 254.447,227.121 257.774,227.705 "/>
<polygon stroke="#FFFFFF" stroke-miterlimit="10" points="253.395,282.301 250.143,282.023 254.766,228.214 258.098,228.502 "/>
<polygon stroke="#FFFFFF" stroke-miterlimit="10" points="258.42,282.761 255.189,282.768 255.105,229.3 258.416,229.297 "/>
<polygon stroke="#FFFFFF" stroke-miterlimit="10" points="263.383,282.811 260.197,283.097 255.501,230.372 258.766,230.084 "/>
<polygon stroke="#FFFFFF" stroke-miterlimit="10" points="268.318,282.869 265.202,283.426 256.021,231.832 259.216,231.267 "/>
<polygon stroke="#FFFFFF" stroke-miterlimit="10" points="273.229,282.935 270.203,283.752 256.696,233.661 259.799,232.828 "/>
<polygon stroke="#FFFFFF" stroke-miterlimit="10" points="278.113,283.007 275.2,284.074 257.558,235.839 260.545,234.749 "/>
<polygon stroke="#FFFFFF" stroke-miterlimit="10" points="282.975,283.086 280.193,284.39 258.632,238.341 261.484,237.008 "/>
<polygon stroke="#FFFFFF" stroke-miterlimit="10" points="287.813,283.17 285.184,284.696 259.945,241.142 262.644,239.581 "/>
<polygon stroke="#FFFFFF" stroke-miterlimit="10" points="292.632,283.259 290.17,284.991 261.521,244.214 264.048,242.442 "/>
<polygon stroke="#FFFFFF" stroke-miterlimit="10" points="297.432,283.353 295.153,285.273 263.381,247.529 265.72,245.564 "/>
<polygon stroke="#FFFFFF" stroke-miterlimit="10" points="302.215,283.449 300.134,285.54 265.542,251.058 267.679,248.918 "/>
<polygon stroke="#FFFFFF" stroke-miterlimit="10" points="306.983,283.549 305.111,285.79 268.021,254.768 269.943,252.473 "/>
<polygon stroke="#FFFFFF" stroke-miterlimit="10" points="311.738,283.65 310.086,286.021 270.829,258.627 272.527,256.197 "/>
<polygon stroke="#FFFFFF" stroke-miterlimit="10" points="316.483,283.753 315.059,286.233 273.979,262.604 275.443,260.061 "/>
<polygon stroke="#FFFFFF" stroke-miterlimit="10" points="321.22,283.855 320.028,286.425 277.476,266.664 278.7,264.03 "/>
<polygon stroke="#FFFFFF" stroke-miterlimit="10" points="325.95,283.957 324.996,286.594 281.324,270.777 282.305,268.074 "/>
<polygon stroke="#FFFFFF" stroke-miterlimit="10" points="330.676,284.058 329.963,286.74 285.527,274.909 286.261,272.159 "/>
<polygon stroke="#FFFFFF" stroke-miterlimit="10" points="335.4,284.156 334.928,286.863 290.084,279.029 290.569,276.254 "/>
<polygon stroke="#FFFFFF" stroke-miterlimit="10" points="340.125,284.251 339.893,286.962 294.99,283.105 295.229,280.326 "/>
<polygon stroke="#FFFFFF" stroke-miterlimit="10" points="344.852,284.342 344.856,287.036 300.239,287.107 300.236,284.346 "/>
<polygon stroke="#FFFFFF" stroke-miterlimit="10" points="349.576,284.431 349.813,287.087 305.817,291.008 305.576,288.284 "/>
<polygon stroke="#FFFFFF" stroke-miterlimit="10" points="353.973,284.596 354.436,287.195 311.384,294.858 310.911,292.192 "/>
<polygon stroke="#FFFFFF" stroke-miterlimit="10" points="358.052,284.835 358.732,287.358 316.935,298.631 316.238,296.043 "/>
<polygon stroke="#FFFFFF" stroke-miterlimit="10" points="361.826,285.145 362.715,287.575 322.466,302.299 321.556,299.807 "/>
<polygon stroke="#FFFFFF" stroke-miterlimit="10" points="365.312,285.521 366.398,287.842 327.974,305.836 326.861,303.457 "/>
<polygon stroke="#FFFFFF" stroke-miterlimit="10" points="368.525,285.962 369.798,288.156 333.454,309.218 332.152,306.968 "/>
<polygon stroke="#FFFFFF" stroke-miterlimit="10" points="371.486,286.46 372.931,288.515 338.905,312.422 337.427,310.315 "/>
<polygon stroke="#FFFFFF" stroke-miterlimit="10" points="374.216,287.012 375.817,288.913 344.323,315.428 342.684,313.478 "/>
<polygon stroke="#FFFFFF" stroke-miterlimit="10" points="376.735,287.611 378.479,289.349 349.706,318.216 347.92,316.434 "/>
<polygon stroke="#FFFFFF" stroke-miterlimit="10" points="379.067,288.254 380.937,289.816 355.051,320.77 353.136,319.166 "/>
<polygon stroke="#FFFFFF" stroke-miterlimit="10" points="381.236,288.934 383.215,290.313 360.356,323.073 358.329,321.657 "/>
<polygon stroke="#FFFFFF" stroke-miterlimit="10" points="383.268,289.644 385.338,290.833 365.621,325.115 363.499,323.894 "/>
<polygon stroke="#FFFFFF" stroke-miterlimit="10" points="385.186,290.379 387.33,291.373 370.843,326.885 368.645,325.863 "/>
<polygon stroke="#FFFFFF" stroke-miterlimit="10" points="387.017,291.133 389.218,291.928 376.021,328.374 373.766,327.556 "/>
<polygon stroke="#FFFFFF" stroke-miterlimit="10" points="388.787,291.899 391.026,292.493 381.157,329.576 378.861,328.964 "/>
<polygon stroke="#FFFFFF" stroke-miterlimit="10" points="390.522,292.673 392.782,293.064 386.249,330.489 383.932,330.083 "/>
<polygon stroke="#FFFFFF" stroke-miterlimit="10" points="392.249,293.446 394.512,293.638 391.297,331.11 388.977,330.91 "/>
<polygon stroke="#FFFFFF" stroke-miterlimit="10" points="393.991,294.214 396.239,294.208 396.302,331.441 393.996,331.444 "/>
<polygon stroke="#FFFFFF" stroke-miterlimit="10" points="395.774,294.976 397.991,294.776 401.266,331.491 398.991,331.693 "/>
<polygon stroke="#FFFFFF" stroke-miterlimit="10" points="397.643,296.009 399.812,295.621 406.209,331.548 403.983,331.943 "/>
<polygon stroke="#FFFFFF" stroke-miterlimit="10" points="399.618,297.301 401.724,296.731 411.133,331.611 408.972,332.193 "/>
<polygon stroke="#FFFFFF" stroke-miterlimit="10" points="401.722,298.836 403.749,298.093 416.038,331.681 413.957,332.441 "/>
<polygon stroke="#FFFFFF" stroke-miterlimit="10" points="403.973,300.598 405.908,299.69 420.926,331.755 418.939,332.686 "/>
</svg>
