<?xml version="1.0" encoding="utf-8"?>
<!-- Generator: Adobe Illustrator 16.0.0, SVG Export Plug-In . SVG Version: 6.00 Build 0)  -->
<!DOCTYPE svg PUBLIC "-//W3C//DTD SVG 1.1//EN" "http://www.w3.org/Graphics/SVG/1.1/DTD/svg11.dtd">
<svg version="1.1" id="Ebene_1" xmlns="http://www.w3.org/2000/svg" xmlns:xlink="http://www.w3.org/1999/xlink" x="0px" y="0px"
	 width="600px" height="300px" viewBox="0 0 600 300" enable-background="new 0 0 600 300" xml:space="preserve">
<rect x="4.5" y="36.5" stroke="#FFFFFF" stroke-miterlimit="10" width="7" height="111"/>
<rect x="14.422" y="36.629" transform="matrix(0.9962 -0.0872 0.0872 0.9962 -7.9189 1.9091)" stroke="#FFFFFF" stroke-miterlimit="10" width="6.931" height="109.89"/>
<rect x="24.373" y="37.171" transform="matrix(0.9848 -0.1738 0.1738 0.9848 -15.4899 6.2252)" stroke="#FFFFFF" stroke-miterlimit="10" width="6.861" height="108.791"/>
<rect x="34.315" y="38.118" transform="matrix(0.9659 -0.2589 0.2589 0.9659 -22.5286 12.9019)" stroke="#FFFFFF" stroke-miterlimit="10" width="6.792" height="107.704"/>
<rect x="44.212" y="39.458" transform="matrix(0.9396 -0.3422 0.3422 0.9396 -28.8714 21.8778)" stroke="#FFFFFF" stroke-miterlimit="10" width="6.724" height="106.628"/>
<rect x="54.026" y="41.177" transform="matrix(0.9062 -0.4228 0.4228 0.9062 -34.3478 33.0619)" stroke="#FFFFFF" stroke-miterlimit="10" width="6.656" height="105.562"/>
<rect x="63.723" y="43.259" transform="matrix(0.8659 -0.5003 0.5003 0.8659 -38.7937 46.3398)" stroke="#FFFFFF" stroke-miterlimit="10" width="6.59" height="104.507"/>
<rect x="73.27" y="45.686" transform="matrix(0.819 -0.5738 0.5738 0.819 -42.045 61.5459)" stroke="#FFFFFF" stroke-miterlimit="10" width="6.524" height="103.462"/>
<rect x="82.635" y="48.435" transform="matrix(0.7659 -0.643 0.643 0.7659 -43.9695 78.5354)" stroke="#FFFFFF" stroke-miterlimit="10" width="6.458" height="102.427"/>
<rect x="91.789" y="51.484" transform="matrix(0.707 -0.7073 0.7073 0.707 -44.436 97.1249)" stroke="#FFFFFF" stroke-miterlimit="10" width="6.394" height="101.403"/>
<rect x="100.705" y="54.805" transform="matrix(0.6427 -0.7661 0.7661 0.6427 -43.3296 117.0933)" stroke="#FFFFFF" stroke-miterlimit="10" width="6.33" height="100.389"/>
<rect x="109.357" y="58.374" transform="matrix(0.5734 -0.8193 0.8193 0.5734 -40.5476 138.2621)" stroke="#FFFFFF" stroke-miterlimit="10" width="6.267" height="99.385"/>
<rect x="117.724" y="62.161" transform="matrix(0.4999 -0.8661 0.8661 0.4999 -36.0167 160.3415)" stroke="#FFFFFF" stroke-miterlimit="10" width="6.205" height="98.391"/>
<rect x="125.785" y="66.137" transform="matrix(0.4224 -0.9064 0.9064 0.4224 -29.6676 183.1223)" stroke="#FFFFFF" stroke-miterlimit="10" width="6.142" height="97.407"/>
<rect x="133.523" y="70.27" transform="matrix(0.3417 -0.9398 0.9398 0.3417 -21.4594 206.337)" stroke="#FFFFFF" stroke-miterlimit="10" width="6.081" height="96.434"/>
<rect x="140.925" y="74.532" transform="matrix(0.2586 -0.966 0.966 0.2586 -11.3906 229.6926)" stroke="#FFFFFF" stroke-miterlimit="10" width="6.02" height="95.47"/>
<rect x="147.979" y="78.888" transform="matrix(0.1733 -0.9849 0.9849 0.1733 0.5541 252.9531)" stroke="#FFFFFF" stroke-miterlimit="10" width="5.96" height="94.516"/>
<rect x="154.676" y="83.311" transform="matrix(0.0869 -0.9962 0.9962 0.0869 14.3256 275.821)" stroke="#FFFFFF" stroke-miterlimit="10" width="5.9" height="93.57"/>
<rect x="117.614" y="131.5" stroke="#FFFFFF" stroke-miterlimit="10" width="92.886" height="6"/>
<rect x="167.035" y="92.524" transform="matrix(-0.0871 -0.9962 0.9962 -0.0871 46.8415 319.9285)" stroke="#FFFFFF" stroke-miterlimit="10" width="5.941" height="91.956"/>
<rect x="173.354" y="96.902" transform="matrix(-0.1735 -0.9848 0.9848 -0.1735 66.6257 340.7538)" stroke="#FFFFFF" stroke-miterlimit="10" width="5.881" height="91.036"/>
<rect x="179.998" y="101.163" transform="matrix(-0.2586 -0.966 0.966 -0.2586 88.9676 360.7312)" stroke="#FFFFFF" stroke-miterlimit="10" width="5.822" height="90.126"/>
<rect x="186.947" y="105.279" transform="matrix(-0.3419 -0.9397 0.9397 -0.3419 113.8684 379.5265)" stroke="#FFFFFF" stroke-miterlimit="10" width="5.764" height="89.225"/>
<rect x="194.181" y="109.226" transform="matrix(-0.4225 -0.9063 0.9063 -0.4225 141.2622 396.7878)" stroke="#FFFFFF" stroke-miterlimit="10" width="5.706" height="88.332"/>
<rect x="201.677" y="112.981" transform="matrix(-0.4999 -0.8661 0.8661 -0.4999 171.0214 412.1603)" stroke="#FFFFFF" stroke-miterlimit="10" width="5.649" height="87.449"/>
<rect x="209.412" y="116.522" transform="matrix(-0.5734 -0.8193 0.8193 -0.5734 202.9654 425.3026)" stroke="#FFFFFF" stroke-miterlimit="10" width="5.593" height="86.575"/>
<polygon stroke="#FFFFFF" stroke-miterlimit="10" points="251.178,133.017 254.735,137.259 189.08,192.354 185.522,188.108 "/>
<rect x="225.495" y="122.888" transform="matrix(-0.707 -0.7072 0.7072 -0.707 272.6925 443.601)" stroke="#FFFFFF" stroke-miterlimit="10" width="5.481" height="84.853"/>
<rect x="233.788" y="125.679" transform="matrix(-0.766 -0.6429 0.6429 -0.766 309.8581 448.1606)" stroke="#FFFFFF" stroke-miterlimit="10" width="5.426" height="84.004"/>
<polygon stroke="#FFFFFF" stroke-miterlimit="10" points="266.549,134.17 270.948,137.252 223.249,205.378 218.849,202.292 "/>
<rect x="250.74" y="130.415" transform="matrix(-0.8659 -0.5002 0.5002 -0.8659 387.0048 446.9008)" stroke="#FFFFFF" stroke-miterlimit="10" width="5.319" height="82.333"/>
<rect x="259.341" y="132.342" transform="matrix(-0.9063 -0.4227 0.4227 -0.9063 426.2206 440.7075)" stroke="#FFFFFF" stroke-miterlimit="10" width="5.265" height="81.51"/>
<rect x="267.986" y="133.965" transform="matrix(-0.9397 -0.3421 0.3421 -0.9397 465.2336 430.6729)" stroke="#FFFFFF" stroke-miterlimit="10" width="5.213" height="80.695"/>
<rect x="276.649" y="135.283" transform="matrix(-0.9659 -0.2589 0.2589 -0.9659 503.5743 416.7691)" stroke="#FFFFFF" stroke-miterlimit="10" width="5.16" height="79.889"/>
<rect x="285.3" y="136.293" transform="matrix(-0.9848 -0.1738 0.1738 -0.9848 540.7772 399.0175)" stroke="#FFFFFF" stroke-miterlimit="10" width="5.109" height="79.09"/>
<rect x="293.91" y="136.998" transform="matrix(-0.9962 -0.0873 0.0873 -0.9962 576.377 377.4911)" stroke="#FFFFFF" stroke-miterlimit="10" width="5.058" height="78.3"/>
<polygon stroke="#FFFFFF" stroke-miterlimit="10" points="302.5,137.5 307.463,137.5 307.487,214.967 302.5,214.914 "/>
<polygon stroke="#FFFFFF" stroke-miterlimit="10" points="307.618,137.967 312.514,137.538 319.222,213.937 314.298,214.314 "/>
<polygon stroke="#FFFFFF" stroke-miterlimit="10" points="312.869,139.001 317.66,138.156 330.868,212.924 326.045,213.722 "/>
<polygon stroke="#FFFFFF" stroke-miterlimit="10" points="318.248,140.584 322.9,139.338 342.377,211.937 337.689,213.14 "/>
<polygon stroke="#FFFFFF" stroke-miterlimit="10" points="323.749,142.693 328.229,141.063 353.702,210.981 349.184,212.572 "/>
<polygon stroke="#FFFFFF" stroke-miterlimit="10" points="329.366,145.302 333.645,143.307 364.799,210.065 360.48,212.024 "/>
<polygon stroke="#FFFFFF" stroke-miterlimit="10" points="335.093,148.38 339.14,146.043 375.626,209.194 371.536,211.499 "/>
<polygon stroke="#FFFFFF" stroke-miterlimit="10" points="340.921,151.895 344.71,149.241 386.144,208.375 382.309,211 "/>
<polygon stroke="#FFFFFF" stroke-miterlimit="10" points="346.842,155.811 350.35,152.867 396.315,207.611 392.76,210.531 "/>
<polygon stroke="#FFFFFF" stroke-miterlimit="10" points="352.848,160.09 356.053,156.885 406.109,206.909 402.854,210.096 "/>
<polygon stroke="#FFFFFF" stroke-miterlimit="10" points="358.928,164.693 361.813,161.256 415.496,206.271 412.562,209.695 "/>
<polygon stroke="#FFFFFF" stroke-miterlimit="10" points="365.073,169.578 367.622,165.939 424.451,205.703 421.852,209.333 "/>
<polygon stroke="#FFFFFF" stroke-miterlimit="10" points="371.274,174.702 373.475,170.894 432.952,205.207 430.701,209.011 "/>
<polygon stroke="#FFFFFF" stroke-miterlimit="10" points="377.521,180.021 379.361,176.075 440.981,204.785 439.09,208.73 "/>
<polygon stroke="#FFFFFF" stroke-miterlimit="10" points="383.801,185.491 385.276,181.44 448.525,204.438 447,208.493 "/>
<polygon stroke="#FFFFFF" stroke-miterlimit="10" points="390.105,191.067 391.211,186.944 455.574,204.169 454.42,208.299 "/>
<polygon stroke="#FFFFFF" stroke-miterlimit="10" points="396.424,196.704 397.158,192.543 462.122,203.977 461.34,208.149 "/>
<polygon stroke="#FFFFFF" stroke-miterlimit="10" points="402.745,202.357 403.11,198.19 468.166,203.861 467.755,208.045 "/>
<polygon stroke="#FFFFFF" stroke-miterlimit="10" points="409.5,207.5 409.5,203.844 473.93,203.581 473.665,207.5 "/>
<polygon stroke="#FFFFFF" stroke-miterlimit="10" points="415.776,213.045 415.461,209.438 478.98,203.62 479.058,207.508 "/>
<polygon stroke="#FFFFFF" stroke-miterlimit="10" points="422.515,218.412 421.893,214.882 484.035,203.663 484.447,207.49 "/>
<polygon stroke="#FFFFFF" stroke-miterlimit="10" points="429.698,223.592 428.78,220.164 489.1,203.737 489.836,207.477 "/>
<polygon stroke="#FFFFFF" stroke-miterlimit="10" points="437.301,228.549 436.1,225.248 494.172,203.842 495.221,207.467 "/>
<polygon stroke="#FFFFFF" stroke-miterlimit="10" points="445.295,233.25 443.825,230.099 499.251,203.976 500.598,207.461 "/>
<polygon stroke="#FFFFFF" stroke-miterlimit="10" points="453.649,237.664 451.929,234.683 504.337,204.137 505.966,207.458 "/>
<polygon stroke="#FFFFFF" stroke-miterlimit="10" points="462.332,241.764 460.378,238.972 509.429,204.324 511.322,207.459 "/>
<polygon stroke="#FFFFFF" stroke-miterlimit="10" points="471.309,245.523 469.14,242.938 514.526,204.535 516.664,207.464 "/>
<polygon stroke="#FFFFFF" stroke-miterlimit="10" points="480.542,248.921 478.18,246.559 519.628,204.769 521.989,207.473 "/>
<polygon stroke="#FFFFFF" stroke-miterlimit="10" points="489.995,251.938 487.461,249.813 524.733,205.021 527.295,207.484 "/>
<polygon stroke="#FFFFFF" stroke-miterlimit="10" points="499.63,254.56 496.946,252.682 529.842,205.291 532.58,207.499 "/>
<polygon stroke="#FFFFFF" stroke-miterlimit="10" points="509.406,256.772 506.598,255.152 534.951,205.575 537.843,207.517 "/>
<polygon stroke="#FFFFFF" stroke-miterlimit="10" points="519.286,258.568 516.376,257.213 540.062,205.872 543.081,207.537 "/>
<polygon stroke="#FFFFFF" stroke-miterlimit="10" points="529.229,259.942 526.242,258.856 545.172,206.18 548.294,207.561 "/>
<polygon stroke="#FFFFFF" stroke-miterlimit="10" points="539.197,260.893 536.158,260.079 550.281,206.494 553.48,207.587 "/>
<polygon stroke="#FFFFFF" stroke-miterlimit="10" points="549.151,261.419 546.084,260.879 555.39,206.813 558.639,207.615 "/>
<polygon stroke="#FFFFFF" stroke-miterlimit="10" points="559.055,261.526 555.982,261.259 560.495,207.135 563.769,207.646 "/>
<polygon stroke="#FFFFFF" stroke-miterlimit="10" points="568.5,261.5 565.816,261.5 565.412,207.594 568.5,207.677 "/>
<polygon stroke="#FFFFFF" stroke-miterlimit="10" points="578.202,260.794 575.556,261.025 570.506,207.896 573.559,207.712 "/>
<polygon stroke="#FFFFFF" stroke-miterlimit="10" points="587.835,260.103 585.245,260.56 575.681,208.598 578.676,208.152 "/>
<polygon stroke="#FFFFFF" stroke-miterlimit="10" points="597.374,259.43 594.859,260.104 580.943,209.683 583.858,208.984 "/>
<polygon stroke="#FFFFFF" stroke-miterlimit="10" points="606.787,258.78 604.365,259.661 586.29,211.136 589.104,210.195 "/>
<polygon stroke="#FFFFFF" stroke-miterlimit="10" points="616.042,258.158 613.729,259.236 591.717,212.938 594.411,211.768 "/>
<polygon stroke="#FFFFFF" stroke-miterlimit="10" points="625.11,257.567 622.923,258.83 597.218,215.068 599.774,213.683 "/>
</svg>
