<?xml version="1.0" encoding="utf-8"?>
<!-- Generator: Adobe Illustrator 16.0.0, SVG Export Plug-In . SVG Version: 6.00 Build 0)  -->
<!DOCTYPE svg PUBLIC "-//W3C//DTD SVG 1.1//EN" "http://www.w3.org/Graphics/SVG/1.1/DTD/svg11.dtd">
<svg version="1.1" id="Ebene_1" xmlns="http://www.w3.org/2000/svg" xmlns:xlink="http://www.w3.org/1999/xlink" x="0px" y="0px"
	 width="600px" height="300px" viewBox="0 0 600 300" enable-background="new 0 0 600 300" xml:space="preserve">
<rect x="3.232" y="188.5" stroke="#FFFFFF" stroke-miterlimit="10" width="7" height="111"/>
<rect x="13.044" y="187.939" transform="matrix(0.9962 -0.0871 0.0871 0.9962 -21.089 2.3605)" stroke="#FFFFFF" stroke-miterlimit="10" width="6.93" height="109.89"/>
<rect x="22.754" y="186.966" transform="matrix(0.9848 -0.1735 0.1735 0.9848 -41.4813 8.2041)" stroke="#FFFFFF" stroke-miterlimit="10" width="6.861" height="108.791"/>
<rect x="32.327" y="185.6" transform="matrix(0.966 -0.2587 0.2587 0.966 -60.7198 17.3886)" stroke="#FFFFFF" stroke-miterlimit="10" width="6.792" height="107.702"/>
<rect x="41.733" y="183.863" transform="matrix(0.9397 -0.3419 0.3419 0.9397 -78.3691 29.7087)" stroke="#FFFFFF" stroke-miterlimit="10" width="6.724" height="106.626"/>
<rect x="50.94" y="181.781" transform="matrix(0.9064 -0.4225 0.4225 0.9064 -94.0234 44.8946)" stroke="#FFFFFF" stroke-miterlimit="10" width="6.657" height="105.559"/>
<rect x="59.922" y="179.378" transform="matrix(0.866 -0.5 0.5 0.866 -107.3387 62.634)" stroke="#FFFFFF" stroke-miterlimit="10" width="6.59" height="104.504"/>
<rect x="68.652" y="176.687" transform="matrix(0.8192 -0.5736 0.5736 0.8192 -118.0043 82.5514)" stroke="#FFFFFF" stroke-miterlimit="10" width="6.525" height="103.458"/>
<rect x="77.108" y="173.735" transform="matrix(0.7661 -0.6427 0.6427 0.7661 -125.7876 104.2501)" stroke="#FFFFFF" stroke-miterlimit="10" width="6.459" height="102.423"/>
<rect x="85.268" y="170.554" transform="matrix(0.7071 -0.7071 0.7071 0.7071 -130.5339 127.3461)" stroke="#FFFFFF" stroke-miterlimit="10" width="6.395" height="101.399"/>
<rect x="93.115" y="167.177" transform="matrix(0.6428 -0.766 0.766 0.6428 -132.1182 151.3876)" stroke="#FFFFFF" stroke-miterlimit="10" width="6.331" height="100.385"/>
<rect x="100.633" y="163.638" transform="matrix(0.5736 -0.8191 0.8191 0.5736 -130.4976 175.9537)" stroke="#FFFFFF" stroke-miterlimit="10" width="6.267" height="99.381"/>
<rect x="107.81" y="159.97" transform="matrix(0.5001 -0.866 0.866 0.5001 -125.6839 200.6057)" stroke="#FFFFFF" stroke-miterlimit="10" width="6.205" height="98.387"/>
<rect x="114.637" y="156.209" transform="matrix(0.4228 -0.9062 0.9062 0.4228 -117.752 224.956)" stroke="#FFFFFF" stroke-miterlimit="10" width="6.142" height="97.403"/>
<rect x="121.107" y="152.387" transform="matrix(0.3421 -0.9396 0.9396 0.3421 -106.8237 248.6197)" stroke="#FFFFFF" stroke-miterlimit="10" width="6.081" height="96.429"/>
<rect x="127.215" y="148.54" transform="matrix(0.2589 -0.9659 0.9659 0.2589 -93.0716 271.2383)" stroke="#FFFFFF" stroke-miterlimit="10" width="6.02" height="95.465"/>
<rect x="132.96" y="144.7" transform="matrix(0.1737 -0.9848 0.9848 0.1737 -76.7089 292.4879)" stroke="#FFFFFF" stroke-miterlimit="10" width="5.96" height="94.511"/>
<rect x="138.345" y="140.901" transform="matrix(0.0871 -0.9962 0.9962 0.0871 -57.9868 312.0867)" stroke="#FFFFFF" stroke-miterlimit="10" width="5.9" height="93.566"/>
<rect x="100.232" y="180.5" stroke="#FFFFFF" stroke-miterlimit="10" width="92" height="6"/>
<rect x="147.924" y="133.899" transform="matrix(-0.0872 -0.9962 0.9962 -0.0872 -14.7024 345.4073)" stroke="#FFFFFF" stroke-miterlimit="10" width="5.941" height="91.08"/>
<rect x="152.963" y="130.268" transform="matrix(-0.1737 -0.9848 0.9848 -0.1737 10.2978 359.3464)" stroke="#FFFFFF" stroke-miterlimit="10" width="5.88" height="90.169"/>
<rect x="158.341" y="126.639" transform="matrix(-0.2589 -0.9659 0.9659 -0.2589 37.5716 371.3715)" stroke="#FFFFFF" stroke-miterlimit="10" width="5.822" height="89.268"/>
<rect x="164.05" y="123.041" transform="matrix(-0.3421 -0.9396 0.9396 -0.3421 66.9093 381.3012)" stroke="#FFFFFF" stroke-miterlimit="10" width="5.763" height="88.375"/>
<rect x="170.079" y="119.506" transform="matrix(-0.4227 -0.9063 0.9063 -0.4227 98.089 388.9832)" stroke="#FFFFFF" stroke-miterlimit="10" width="5.705" height="87.491"/>
<rect x="176.411" y="116.062" transform="matrix(-0.5001 -0.8659 0.8659 -0.5001 130.8734 394.2853)" stroke="#FFFFFF" stroke-miterlimit="10" width="5.648" height="86.617"/>
<rect x="183.032" y="112.737" transform="matrix(-0.5737 -0.8191 0.8191 -0.5737 164.9801 397.0914)" stroke="#FFFFFF" stroke-miterlimit="10" width="5.592" height="85.751"/>
<rect x="189.924" y="109.556" transform="matrix(-0.6429 -0.7659 0.7659 -0.6429 200.1491 397.3183)" stroke="#FFFFFF" stroke-miterlimit="10" width="5.536" height="84.893"/>
<rect x="197.068" y="106.546" transform="matrix(-0.7072 -0.707 0.707 -0.7072 236.0715 394.9033)" stroke="#FFFFFF" stroke-miterlimit="10" width="5.481" height="84.044"/>
<rect x="204.442" y="103.729" transform="matrix(-0.7661 -0.6427 0.6427 -0.7661 272.4629 389.8082)" stroke="#FFFFFF" stroke-miterlimit="10" width="5.426" height="83.203"/>
<rect x="212.023" y="101.125" transform="matrix(-0.8192 -0.5735 0.5735 -0.8192 308.9802 382.0309)" stroke="#FFFFFF" stroke-miterlimit="10" width="5.372" height="82.371"/>
<rect x="219.789" y="98.753" transform="matrix(-0.8661 -0.5 0.5 -0.8661 345.3437 371.5786)" stroke="#FFFFFF" stroke-miterlimit="10" width="5.319" height="81.548"/>
<rect x="227.714" y="96.631" transform="matrix(-0.9064 -0.4225 0.4225 -0.9064 381.2461 358.486)" stroke="#FFFFFF" stroke-miterlimit="10" width="5.265" height="80.732"/>
<rect x="235.774" y="94.771" transform="matrix(-0.9397 -0.3419 0.3419 -0.9397 416.3274 342.851)" stroke="#FFFFFF" stroke-miterlimit="10" width="5.213" height="79.925"/>
<rect x="243.941" y="93.187" transform="matrix(-0.966 -0.2587 0.2587 -0.966 450.3116 324.7524)" stroke="#FFFFFF" stroke-miterlimit="10" width="5.161" height="79.126"/>
<rect x="252.191" y="91.887" transform="matrix(-0.9848 -0.1736 0.1736 -0.9848 482.8784 304.3358)" stroke="#FFFFFF" stroke-miterlimit="10" width="5.109" height="78.335"/>
<rect x="260.497" y="90.88" transform="matrix(-0.9962 -0.0871 0.0871 -0.9962 513.7615 281.7253)" stroke="#FFFFFF" stroke-miterlimit="10" width="5.057" height="77.551"/>
<rect x="269.232" y="90.5" stroke="#FFFFFF" stroke-miterlimit="10" width="5" height="76"/>
<rect x="277.538" y="90.091" transform="matrix(-0.9962 0.0872 -0.0872 -0.9962 570.0957 230.5192)" stroke="#FFFFFF" stroke-miterlimit="10" width="4.95" height="75.24"/>
<rect x="285.775" y="89.399" transform="matrix(-0.9848 0.1738 -0.1738 -0.9848 594.0737 201.2715)" stroke="#FFFFFF" stroke-miterlimit="10" width="4.9" height="74.488"/>
<rect x="293.921" y="88.436" transform="matrix(-0.9659 0.2589 -0.2589 -0.9659 615.0297 169.6301)" stroke="#FFFFFF" stroke-miterlimit="10" width="4.851" height="73.743"/>
<rect x="301.953" y="87.219" transform="matrix(-0.9396 0.3422 -0.3422 -0.9396 632.6721 135.8294)" stroke="#FFFFFF" stroke-miterlimit="10" width="4.803" height="73.005"/>
<rect x="309.851" y="85.764" transform="matrix(-0.9062 0.4229 -0.4229 -0.9062 646.7169 100.3406)" stroke="#FFFFFF" stroke-miterlimit="10" width="4.755" height="72.276"/>
<rect x="317.596" y="84.091" transform="matrix(-0.8658 0.5003 -0.5003 -0.8658 656.9467 63.5707)" stroke="#FFFFFF" stroke-miterlimit="10" width="4.708" height="71.553"/>
<rect x="325.17" y="82.218" transform="matrix(-0.8189 0.5739 -0.5739 -0.8189 663.2112 26.0236)" stroke="#FFFFFF" stroke-miterlimit="10" width="4.661" height="70.837"/>
<rect x="332.556" y="80.167" transform="matrix(-0.7658 0.6431 -0.6431 -0.7658 665.3976 -11.8871)" stroke="#FFFFFF" stroke-miterlimit="10" width="4.615" height="70.13"/>
<rect x="339.741" y="77.96" transform="matrix(-0.7067 0.7075 -0.7075 -0.7067 663.4609 -49.6725)" stroke="#FFFFFF" stroke-miterlimit="10" width="4.569" height="69.428"/>
<rect x="346.712" y="75.619" transform="matrix(-0.6424 0.7664 -0.7664 -0.6424 657.4369 -86.8149)" stroke="#FFFFFF" stroke-miterlimit="10" width="4.524" height="68.734"/>
<rect x="353.459" y="73.167" transform="matrix(-0.5732 0.8194 -0.8194 -0.5732 647.4057 -122.8489)" stroke="#FFFFFF" stroke-miterlimit="10" width="4.479" height="68.047"/>
<rect x="359.973" y="70.628" transform="matrix(-0.4996 0.8663 -0.8663 -0.4996 633.4853 -157.3398)" stroke="#FFFFFF" stroke-miterlimit="10" width="4.434" height="67.366"/>
<rect x="366.247" y="68.026" transform="matrix(-0.4221 0.9065 -0.9065 -0.4221 615.8671 -189.8425)" stroke="#FFFFFF" stroke-miterlimit="10" width="4.39" height="66.693"/>
<rect x="372.275" y="65.384" transform="matrix(-0.3415 0.9399 -0.9399 -0.3415 594.8127 -219.9322)" stroke="#FFFFFF" stroke-miterlimit="10" width="4.346" height="66.026"/>
<rect x="378.057" y="62.725" transform="matrix(-0.2583 0.9661 -0.9661 -0.2583 570.5709 -247.2624)" stroke="#FFFFFF" stroke-miterlimit="10" width="4.303" height="65.366"/>
<rect x="383.589" y="60.074" transform="matrix(-0.1731 0.9849 -0.9849 -0.1731 543.5054 -271.4747)" stroke="#FFFFFF" stroke-miterlimit="10" width="4.261" height="64.712"/>
<rect x="388.875" y="57.452" transform="matrix(-0.0865 0.9963 -0.9963 -0.0865 513.9509 -292.2943)" stroke="#FFFFFF" stroke-miterlimit="10" width="4.217" height="64.065"/>
<rect x="364.292" y="84.5" stroke="#FFFFFF" stroke-miterlimit="10" width="62.942" height="4"/>
<rect x="398.559" y="52.55" transform="matrix(0.0879 0.9961 -0.9961 0.0879 448.7048 -322.6399)" stroke="#FFFFFF" stroke-miterlimit="10" width="3.96" height="62.313"/>
<rect x="403.592" y="50.05" transform="matrix(0.1744 0.9847 -0.9847 0.1744 414.4932 -332.5495)" stroke="#FFFFFF" stroke-miterlimit="10" width="3.92" height="61.69"/>
<rect x="408.86" y="47.55" transform="matrix(0.2595 0.9657 -0.9657 0.2595 379.588 -338.9023)" stroke="#FFFFFF" stroke-miterlimit="10" width="3.881" height="61.073"/>
<rect x="414.354" y="45.071" transform="matrix(0.3427 0.9395 -0.9395 0.3427 344.3732 -341.5733)" stroke="#FFFFFF" stroke-miterlimit="10" width="3.843" height="60.462"/>
<rect x="420.067" y="42.634" transform="matrix(0.4232 0.906 -0.906 0.4232 309.1203 -340.4603)" stroke="#FFFFFF" stroke-miterlimit="10" width="3.805" height="59.858"/>
<rect x="425.99" y="40.26" transform="matrix(0.5006 0.8657 -0.8657 0.5006 274.1685 -335.4931)" stroke="#FFFFFF" stroke-miterlimit="10" width="3.767" height="59.259"/>
<rect x="432.11" y="37.966" transform="matrix(0.5741 0.8188 -0.8188 0.5741 239.9362 -326.6708)" stroke="#FFFFFF" stroke-miterlimit="10" width="3.73" height="58.666"/>
<rect x="438.417" y="35.772" transform="matrix(0.6433 0.7656 -0.7656 0.6433 206.6623 -313.9535)" stroke="#FFFFFF" stroke-miterlimit="10" width="3.693" height="58.079"/>
<rect x="444.896" y="33.694" transform="matrix(0.7075 0.7067 -0.7067 0.7075 174.7924 -297.4387)" stroke="#FFFFFF" stroke-miterlimit="10" width="3.656" height="57.498"/>
<rect x="451.534" y="31.747" transform="matrix(0.7664 0.6423 -0.6423 0.7664 144.5625 -277.1336)" stroke="#FFFFFF" stroke-miterlimit="10" width="3.62" height="56.923"/>
<rect x="458.313" y="29.947" transform="matrix(0.8195 0.5731 -0.5731 0.8195 116.3719 -253.2003)" stroke="#FFFFFF" stroke-miterlimit="10" width="3.583" height="56.353"/>
<rect x="465.219" y="28.306" transform="matrix(0.8663 0.4996 -0.4996 0.8663 90.5363 -225.7945)" stroke="#FFFFFF" stroke-miterlimit="10" width="3.548" height="55.79"/>
<rect x="472.234" y="26.835" transform="matrix(0.9066 0.4221 -0.4221 0.9066 67.2706 -194.9696)" stroke="#FFFFFF" stroke-miterlimit="10" width="3.512" height="55.233"/>
<rect x="479.34" y="25.545" transform="matrix(0.9399 0.3415 -0.3415 0.9399 46.9859 -161.1172)" stroke="#FFFFFF" stroke-miterlimit="10" width="3.477" height="54.68"/>
<polygon stroke="#FFFFFF" stroke-miterlimit="10" points="482.898,78.1 479.573,77.211 493.586,24.923 496.906,25.812 "/>
<rect x="493.757" y="23.54" transform="matrix(0.9849 0.1731 -0.1731 0.9849 16.1901 -84.9959)" stroke="#FFFFFF" stroke-miterlimit="10" width="3.408" height="53.592"/>
<polygon stroke="#FFFFFF" stroke-miterlimit="10" points="502.086,75.938 498.725,75.646 503.352,22.791 506.707,23.084 "/>
<polygon stroke="#FFFFFF" stroke-miterlimit="10" points="511.664,74.943 508.324,74.985 508.327,22.5 511.662,22.5 "/>
<polygon stroke="#FFFFFF" stroke-miterlimit="10" points="521.18,73.883 517.889,74.213 513.363,22.45 516.652,22.162 "/>
<polygon stroke="#FFFFFF" stroke-miterlimit="10" points="530.574,72.442 527.357,73.052 518.428,22.393 521.646,21.824 "/>
<polygon stroke="#FFFFFF" stroke-miterlimit="10" points="539.816,70.64 536.697,71.518 523.518,22.326 526.645,21.488 "/>
<polygon stroke="#FFFFFF" stroke-miterlimit="10" points="548.877,68.495 545.877,69.631 528.635,22.253 531.646,21.157 "/>
<polygon stroke="#FFFFFF" stroke-miterlimit="10" points="557.73,66.033 554.868,67.412 533.775,22.174 536.65,20.833 "/>
<polygon stroke="#FFFFFF" stroke-miterlimit="10" points="566.349,63.277 563.645,64.885 538.939,22.089 541.659,20.519 "/>
<polygon stroke="#FFFFFF" stroke-miterlimit="10" points="574.71,60.256 572.183,62.074 544.125,21.999 546.672,20.216 "/>
<polygon stroke="#FFFFFF" stroke-miterlimit="10" points="582.795,56.996 580.459,59.007 549.329,21.904 551.688,19.926 "/>
<polygon stroke="#FFFFFF" stroke-miterlimit="10" points="590.584,53.527 588.453,55.713 554.551,21.807 556.705,19.652 "/>
<polygon stroke="#FFFFFF" stroke-miterlimit="10" points="598.062,49.881 596.148,52.221 559.788,21.706 561.727,19.396 "/>
<polygon stroke="#FFFFFF" stroke-miterlimit="10" points="605.216,46.088 603.531,48.561 565.039,21.604 566.752,19.158 "/>
<polygon stroke="#FFFFFF" stroke-miterlimit="10" points="612.037,42.181 610.59,44.765 570.301,21.5 571.778,18.94 "/>
<polygon stroke="#FFFFFF" stroke-miterlimit="10" points="618.517,38.191 617.313,40.864 575.57,21.396 576.808,18.744 "/>
<polygon stroke="#FFFFFF" stroke-miterlimit="10" points="624.651,34.151 623.695,36.892 580.848,21.293 581.839,18.57 "/>
<polygon stroke="#FFFFFF" stroke-miterlimit="10" points="630.439,30.093 629.732,32.878 586.129,21.191 586.871,18.421 "/>
<polygon stroke="#FFFFFF" stroke-miterlimit="10" points="635.881,26.048 635.424,28.855 591.412,21.092 591.906,18.295 "/>
<polygon stroke="#FFFFFF" stroke-miterlimit="10" points="640.979,22.046 640.771,24.854 596.695,20.995 596.941,18.194 "/>
</svg>
